<svg width="130" height="131" viewBox="0 0 130 131" fill="none" xmlns="http://www.w3.org/2000/svg">
<path d="M16.2543 46.0341V40H17.7798V46.0341H16.2543ZM14 43.7798V42.2543H20.0341V43.7798H14Z" fill="white"/>
<rect x="10.5" y="36.5" width="13" height="13" rx="1.5" stroke="white"/>
<rect x="0.5" y="0.5" width="129" height="130" rx="3.5" stroke="white"/>
<path d="M30.7585 104V95.2727H34.2528C34.8949 95.2727 35.4304 95.3679 35.8594 95.5582C36.2884 95.7486 36.6108 96.0128 36.8267 96.3509C37.0426 96.6861 37.1506 97.0724 37.1506 97.5099C37.1506 97.8509 37.0824 98.1506 36.946 98.4091C36.8097 98.6648 36.6222 98.875 36.3835 99.0398C36.1477 99.2017 35.8778 99.3168 35.5739 99.3849V99.4702C35.9063 99.4844 36.2173 99.5781 36.5071 99.7514C36.7997 99.9247 37.0369 100.168 37.2188 100.48C37.4006 100.79 37.4915 101.159 37.4915 101.588C37.4915 102.051 37.3764 102.464 37.1463 102.828C36.919 103.189 36.5824 103.474 36.1364 103.685C35.6903 103.895 35.1406 104 34.4872 104H30.7585ZM32.6037 102.491H34.108C34.6222 102.491 34.9972 102.393 35.233 102.197C35.4688 101.999 35.5866 101.734 35.5866 101.405C35.5866 101.163 35.5284 100.95 35.4119 100.766C35.2955 100.581 35.1293 100.436 34.9134 100.331C34.7003 100.226 34.446 100.173 34.1506 100.173H32.6037V102.491ZM32.6037 98.9247H33.9716C34.2244 98.9247 34.4489 98.8807 34.6449 98.7926C34.8438 98.7017 35 98.5739 35.1136 98.4091C35.2301 98.2443 35.2884 98.0469 35.2884 97.8168C35.2884 97.5014 35.1761 97.2472 34.9517 97.054C34.7301 96.8608 34.4148 96.7642 34.0057 96.7642H32.6037V98.9247ZM46.7493 104L43.9453 100.28H43.3146V104H41.4695V95.2727H43.3146V98.7585H43.6854L46.5831 95.2727H48.88L45.4751 99.321L49.0376 104H46.7493ZM57.4933 99.6364C57.4933 100.588 57.3129 101.398 56.9521 102.065C56.5941 102.733 56.1055 103.243 55.4862 103.595C54.8697 103.945 54.1765 104.119 53.4066 104.119C52.631 104.119 51.935 103.943 51.3185 103.591C50.7021 103.239 50.2148 102.729 49.8569 102.061C49.4989 101.393 49.32 100.585 49.32 99.6364C49.32 98.6847 49.4989 97.875 49.8569 97.2074C50.2148 96.5398 50.7021 96.0312 51.3185 95.6818C51.935 95.3295 52.631 95.1534 53.4066 95.1534C54.1765 95.1534 54.8697 95.3295 55.4862 95.6818C56.1055 96.0312 56.5941 96.5398 56.9521 97.2074C57.3129 97.875 57.4933 98.6847 57.4933 99.6364ZM55.6225 99.6364C55.6225 99.0199 55.5302 98.5 55.3455 98.0767C55.1637 97.6534 54.9066 97.3324 54.5742 97.1136C54.2418 96.8949 53.8526 96.7855 53.4066 96.7855C52.9606 96.7855 52.5714 96.8949 52.239 97.1136C51.9066 97.3324 51.6481 97.6534 51.4634 98.0767C51.2816 98.5 51.1907 99.0199 51.1907 99.6364C51.1907 100.253 51.2816 100.773 51.4634 101.196C51.6481 101.619 51.9066 101.94 52.239 102.159C52.5714 102.378 52.9606 102.487 53.4066 102.487C53.8526 102.487 54.2418 102.378 54.5742 102.159C54.9066 101.94 55.1637 101.619 55.3455 101.196C55.5302 100.773 55.6225 100.253 55.6225 99.6364ZM58.8601 104V95.2727H62.3033C62.9652 95.2727 63.5291 95.3991 63.995 95.652C64.4609 95.902 64.8161 96.25 65.0604 96.696C65.3075 97.1392 65.4311 97.6506 65.4311 98.2301C65.4311 98.8097 65.3061 99.321 65.0561 99.7642C64.8061 100.207 64.4439 100.553 63.9695 100.8C63.4979 101.047 62.9268 101.17 62.2564 101.17H60.0618V99.6918H61.9581C62.3132 99.6918 62.6058 99.6307 62.8359 99.5085C63.0689 99.3835 63.2422 99.2116 63.3558 98.9929C63.4723 98.7713 63.5305 98.517 63.5305 98.2301C63.5305 97.9403 63.4723 97.6875 63.3558 97.4716C63.2422 97.2528 63.0689 97.0838 62.8359 96.9645C62.603 96.8423 62.3075 96.7812 61.9496 96.7812H60.7053V104H58.8601ZM69.8043 104.119C69.168 104.119 68.6012 104.01 68.104 103.791C67.6097 103.57 67.2191 103.266 66.9322 102.879C66.6481 102.49 66.5018 102.041 66.4933 101.533H68.3512C68.3626 101.746 68.4322 101.933 68.56 102.095C68.6907 102.254 68.864 102.378 69.0799 102.466C69.2958 102.554 69.5387 102.598 69.8086 102.598C70.0898 102.598 70.3384 102.548 70.5543 102.449C70.7702 102.349 70.9393 102.212 71.0614 102.036C71.1836 101.859 71.2447 101.656 71.2447 101.426C71.2447 101.193 71.1793 100.987 71.0487 100.808C70.9208 100.626 70.7362 100.484 70.4947 100.382C70.256 100.28 69.9719 100.229 69.6424 100.229H68.8285V98.8736H69.6424C69.9208 98.8736 70.1665 98.8253 70.3796 98.7287C70.5955 98.6321 70.7631 98.4986 70.8825 98.3281C71.0018 98.1548 71.0614 97.9531 71.0614 97.723C71.0614 97.5043 71.0089 97.3125 70.9038 97.1477C70.8015 96.9801 70.6566 96.8494 70.4691 96.7557C70.2844 96.6619 70.0685 96.6151 69.8214 96.6151C69.5714 96.6151 69.3427 96.6605 69.1353 96.7514C68.9279 96.8395 68.7617 96.9659 68.6367 97.1307C68.5117 97.2955 68.445 97.4886 68.4364 97.7102H66.668C66.6765 97.2074 66.82 96.7642 67.0984 96.3807C67.3768 95.9972 67.7518 95.6974 68.2234 95.4815C68.6978 95.2628 69.2333 95.1534 69.8299 95.1534C70.4322 95.1534 70.9592 95.2628 71.4109 95.4815C71.8626 95.7003 72.2134 95.9957 72.4634 96.3679C72.7163 96.7372 72.8413 97.152 72.8384 97.6122C72.8413 98.1009 72.6893 98.5085 72.3825 98.8352C72.0785 99.1619 71.6822 99.3693 71.1935 99.4574V99.5256C71.8356 99.608 72.3242 99.831 72.6594 100.195C72.9975 100.555 73.1651 101.007 73.1623 101.55C73.1651 102.047 73.0217 102.489 72.7319 102.875C72.445 103.261 72.0487 103.565 71.543 103.787C71.0373 104.009 70.4577 104.119 69.8043 104.119ZM74.5398 95.2727H76.3807V100.761H76.4531L80.2244 95.2727H81.8395V104H79.9943V98.5071H79.9304L76.1378 104H74.5398V95.2727ZM83.364 104V95.2727H85.2092V98.8736H88.9549V95.2727H90.7958V104H88.9549V100.395H85.2092V104H83.364ZM93.2589 104.119V102.619H93.7319C93.9677 102.619 94.158 102.591 94.3029 102.534C94.4478 102.474 94.5629 102.388 94.6481 102.274C94.7362 102.158 94.81 102.013 94.8697 101.839L94.9762 101.554L91.8058 95.2727H93.7148L95.7688 99.5682L97.4862 95.2727H99.3697L96.3612 102.287C96.2163 102.611 96.0444 102.912 95.8455 103.19C95.6495 103.469 95.3981 103.693 95.0913 103.864C94.7844 104.034 94.3924 104.119 93.9151 104.119H93.2589Z" fill="white"/>
<path d="M18.7784 12.6364C18.7784 13.5881 18.598 14.3977 18.2372 15.0653C17.8793 15.733 17.3906 16.2429 16.7713 16.5952C16.1548 16.9446 15.4616 17.1193 14.6918 17.1193C13.9162 17.1193 13.2202 16.9432 12.6037 16.5909C11.9872 16.2386 11.5 15.7287 11.142 15.0611C10.7841 14.3935 10.6051 13.5852 10.6051 12.6364C10.6051 11.6847 10.7841 10.875 11.142 10.2074C11.5 9.53977 11.9872 9.03125 12.6037 8.68182C13.2202 8.32955 13.9162 8.15341 14.6918 8.15341C15.4616 8.15341 16.1548 8.32955 16.7713 8.68182C17.3906 9.03125 17.8793 9.53977 18.2372 10.2074C18.598 10.875 18.7784 11.6847 18.7784 12.6364ZM16.9077 12.6364C16.9077 12.0199 16.8153 11.5 16.6307 11.0767C16.4489 10.6534 16.1918 10.3324 15.8594 10.1136C15.527 9.89489 15.1378 9.78551 14.6918 9.78551C14.2457 9.78551 13.8565 9.89489 13.5241 10.1136C13.1918 10.3324 12.9332 10.6534 12.7486 11.0767C12.5668 11.5 12.4759 12.0199 12.4759 12.6364C12.4759 13.2528 12.5668 13.7727 12.7486 14.196C12.9332 14.6193 13.1918 14.9403 13.5241 15.1591C13.8565 15.3778 14.2457 15.4872 14.6918 15.4872C15.1378 15.4872 15.527 15.3778 15.8594 15.1591C16.1918 14.9403 16.4489 14.6193 16.6307 14.196C16.8153 13.7727 16.9077 13.2528 16.9077 12.6364ZM20.1452 17V8.27273H25.9364V9.79403H21.9904V11.4986H23.4094C24.0998 11.4986 24.695 11.6108 25.195 11.8352C25.6978 12.0568 26.0856 12.3707 26.3583 12.777C26.631 13.1832 26.7674 13.6619 26.7674 14.2131C26.7674 14.7614 26.631 15.2457 26.3583 15.6662C26.0856 16.0838 25.6978 16.4105 25.195 16.6463C24.695 16.8821 24.0998 17 23.4094 17H20.1452ZM21.9904 15.517H23.4094C23.739 15.517 24.0174 15.4574 24.2447 15.3381C24.4719 15.2159 24.6438 15.0554 24.7603 14.8565C24.8796 14.6548 24.9393 14.4347 24.9393 14.196C24.9393 13.8494 24.8072 13.5568 24.543 13.3182C24.2816 13.0767 23.9038 12.956 23.4094 12.956H21.9904V15.517ZM27.4886 17V15.517L27.7358 15.4957C28.054 15.4702 28.3111 15.3494 28.5071 15.1335C28.7031 14.9148 28.8494 14.5668 28.946 14.0895C29.0455 13.6094 29.1094 12.9645 29.1378 12.1548L29.2827 8.27273H35.206V17H33.4119V9.75142H30.9957L30.8594 12.7898C30.8139 13.767 30.6974 14.5653 30.5099 15.1847C30.3253 15.804 30.0298 16.2614 29.6236 16.5568C29.2202 16.8523 28.6676 17 27.9659 17H27.4886ZM44.7472 12.6364C44.7472 13.5881 44.5668 14.3977 44.206 15.0653C43.848 15.733 43.3594 16.2429 42.7401 16.5952C42.1236 16.9446 41.4304 17.1193 40.6605 17.1193C39.8849 17.1193 39.1889 16.9432 38.5724 16.5909C37.956 16.2386 37.4688 15.7287 37.1108 15.0611C36.7528 14.3935 36.5739 13.5852 36.5739 12.6364C36.5739 11.6847 36.7528 10.875 37.1108 10.2074C37.4688 9.53977 37.956 9.03125 38.5724 8.68182C39.1889 8.32955 39.8849 8.15341 40.6605 8.15341C41.4304 8.15341 42.1236 8.32955 42.7401 8.68182C43.3594 9.03125 43.848 9.53977 44.206 10.2074C44.5668 10.875 44.7472 11.6847 44.7472 12.6364ZM42.8764 12.6364C42.8764 12.0199 42.7841 11.5 42.5994 11.0767C42.4176 10.6534 42.1605 10.3324 41.8281 10.1136C41.4957 9.89489 41.1065 9.78551 40.6605 9.78551C40.2145 9.78551 39.8253 9.89489 39.4929 10.1136C39.1605 10.3324 38.902 10.6534 38.7173 11.0767C38.5355 11.5 38.4446 12.0199 38.4446 12.6364C38.4446 13.2528 38.5355 13.7727 38.7173 14.196C38.902 14.6193 39.1605 14.9403 39.4929 15.1591C39.8253 15.3778 40.2145 15.4872 40.6605 15.4872C41.1065 15.4872 41.4957 15.3778 41.8281 15.1591C42.1605 14.9403 42.4176 14.6193 42.5994 14.196C42.7841 13.7727 42.8764 13.2528 42.8764 12.6364ZM52.3516 8.27273V17H50.5618V8.27273H52.3516ZM45.2905 17L48.0263 12.3977L45.4055 8.27273H47.6768L49.6371 11.8651H53.3232L55.2322 8.27273H57.495L54.9382 12.3849L57.6229 17H55.4197L53.5746 13.5696H49.3686L47.4766 17H45.2905ZM64.0032 17L61.1992 13.2798H60.5685V17H58.7234V8.27273H60.5685V11.7585H60.9393L63.837 8.27273H66.1339L62.729 12.321L66.2915 17H64.0032ZM68.7237 17H66.7464L69.7592 8.27273H72.1371L75.1456 17H73.1683L70.9822 10.267H70.9141L68.7237 17ZM68.6001 13.5696H73.2706V15.0099H68.6001V13.5696ZM29.8675 39.794V38.2727H37.0352V39.794H34.3633V47H32.5394V39.794H29.8675ZM38.2156 47V38.2727H41.7099C42.3519 38.2727 42.8874 38.3679 43.3164 38.5582C43.7454 38.7486 44.0678 39.0128 44.2837 39.3509C44.4996 39.6861 44.6076 40.0724 44.6076 40.5099C44.6076 40.8509 44.5394 41.1506 44.4031 41.4091C44.2667 41.6648 44.0792 41.875 43.8406 42.0398C43.6048 42.2017 43.3349 42.3168 43.0309 42.3849V42.4702C43.3633 42.4844 43.6744 42.5781 43.9641 42.7514C44.2567 42.9247 44.494 43.1676 44.6758 43.4801C44.8576 43.7898 44.9485 44.1591 44.9485 44.5881C44.9485 45.0511 44.8335 45.4645 44.6033 45.8281C44.3761 46.1889 44.0394 46.4744 43.5934 46.6847C43.1474 46.8949 42.5977 47 41.9442 47H38.2156ZM40.0607 45.4915H41.565C42.0792 45.4915 42.4542 45.3935 42.69 45.1974C42.9258 44.9986 43.0437 44.7344 43.0437 44.4048C43.0437 44.1634 42.9854 43.9503 42.869 43.7656C42.7525 43.581 42.5863 43.4361 42.3704 43.331C42.1573 43.2259 41.9031 43.1733 41.6076 43.1733H40.0607V45.4915ZM40.0607 41.9247H41.4286C41.6815 41.9247 41.9059 41.8807 42.1019 41.7926C42.3008 41.7017 42.457 41.5739 42.5707 41.4091C42.6871 41.2443 42.7454 41.0469 42.7454 40.8168C42.7454 40.5014 42.6332 40.2472 42.4087 40.054C42.1871 39.8608 41.8718 39.7642 41.4627 39.7642H40.0607V41.9247ZM46.1491 47V38.2727H52.0298V39.794H47.9943V41.8736H51.7273V43.3949H47.9943V45.4787H52.0469V47H46.1491ZM47.8026 37.3778C47.5582 37.3778 47.348 37.2926 47.1719 37.1222C46.9957 36.9489 46.9077 36.7443 46.9077 36.5085C46.9077 36.267 46.9957 36.0625 47.1719 35.8949C47.348 35.7273 47.5582 35.6435 47.8026 35.6435C48.0497 35.6435 48.2585 35.7273 48.429 35.8949C48.6023 36.0625 48.6889 36.267 48.6889 36.5085C48.6889 36.7443 48.6023 36.9489 48.429 37.1222C48.2585 37.2926 48.0497 37.3778 47.8026 37.3778ZM50.4105 37.3778C50.1662 37.3778 49.956 37.2926 49.7798 37.1222C49.6037 36.9489 49.5156 36.7443 49.5156 36.5085C49.5156 36.267 49.6037 36.0625 49.7798 35.8949C49.956 35.7273 50.1662 35.6435 50.4105 35.6435C50.6577 35.6435 50.8665 35.7273 51.0369 35.8949C51.2102 36.0625 51.2969 36.267 51.2969 36.5085C51.2969 36.7443 51.2102 36.9489 51.0369 37.1222C50.8665 37.2926 50.6577 37.3778 50.4105 37.3778ZM53.4968 47V38.2727H56.94C57.6019 38.2727 58.1658 38.3991 58.6317 38.652C59.0977 38.902 59.4528 39.25 59.6971 39.696C59.9442 40.1392 60.0678 40.6506 60.0678 41.2301C60.0678 41.8097 59.9428 42.321 59.6928 42.7642C59.4428 43.2074 59.0806 43.5526 58.6062 43.7997C58.1346 44.0469 57.5636 44.1705 56.8931 44.1705H54.6985V42.6918H56.5948C56.9499 42.6918 57.2425 42.6307 57.4727 42.5085C57.7056 42.3835 57.8789 42.2116 57.9925 41.9929C58.109 41.7713 58.1673 41.517 58.1673 41.2301C58.1673 40.9403 58.109 40.6875 57.9925 40.4716C57.8789 40.2528 57.7056 40.0838 57.4727 39.9645C57.2397 39.8423 56.9442 39.7812 56.5863 39.7812H55.342V47H53.4968ZM60.7933 49.1051V45.5298H61.3857C61.5874 45.3849 61.772 45.1804 61.9396 44.9162C62.1072 44.6491 62.2507 44.2812 62.37 43.8125C62.4893 43.3409 62.5746 42.7244 62.6257 41.9631L62.8729 38.2727H68.647V45.5298H69.6016V49.0966H67.8288V47H62.5661V49.1051H60.7933ZM63.5163 45.5298H66.8743V39.794H64.5348L64.3984 41.9631C64.3615 42.5398 64.3004 43.0511 64.2152 43.4972C64.1328 43.9432 64.032 44.3338 63.9126 44.669C63.7962 45.0014 63.6641 45.2884 63.5163 45.5298ZM72.2276 47H70.2504L73.2631 38.2727H75.641L78.6495 47H76.6722L74.4862 40.267H74.418L72.2276 47ZM72.104 43.5696H76.7745V45.0099H72.104V43.5696ZM86.3988 47H84.5579V39.7812H83.3136C82.9585 39.7812 82.663 39.8338 82.4272 39.9389C82.1942 40.0412 82.0195 40.1918 81.9031 40.3906C81.7866 40.5895 81.7283 40.8338 81.7283 41.1236C81.7283 41.4105 81.7866 41.6506 81.9031 41.8438C82.0195 42.0369 82.1942 42.1818 82.4272 42.2784C82.6602 42.375 82.9528 42.4233 83.305 42.4233H85.3079V43.9062H83.0067C82.3391 43.9062 81.7681 43.7955 81.2937 43.5739C80.8192 43.3523 80.457 43.0341 80.207 42.6193C79.957 42.2017 79.832 41.7031 79.832 41.1236C79.832 40.5469 79.9542 40.0455 80.1985 39.6193C80.4457 39.1903 80.8022 38.8594 81.2681 38.6264C81.7369 38.3906 82.3008 38.2727 82.9599 38.2727H86.3988V47ZM81.69 43.0284H83.68L81.5579 47H79.521L81.69 43.0284Z" fill="white"/>
<path d="M30.7585 57.2727H33.0341L35.4375 63.1364H35.5398L37.9432 57.2727H40.2188V66H38.429V60.3196H38.3565L36.098 65.9574H34.8793L32.6207 60.2983H32.5483V66H30.7585V57.2727ZM48.4379 66H46.5969V58.7812H45.3526C44.9975 58.7812 44.7021 58.8338 44.4663 58.9389C44.2333 59.0412 44.0586 59.1918 43.9421 59.3906C43.8256 59.5895 43.7674 59.8338 43.7674 60.1236C43.7674 60.4105 43.8256 60.6506 43.9421 60.8438C44.0586 61.0369 44.2333 61.1818 44.4663 61.2784C44.6992 61.375 44.9918 61.4233 45.3441 61.4233H47.3469V62.9062H45.0458C44.3782 62.9062 43.8072 62.7955 43.3327 62.5739C42.8583 62.3523 42.4961 62.0341 42.2461 61.6193C41.9961 61.2017 41.8711 60.7031 41.8711 60.1236C41.8711 59.5469 41.9933 59.0455 42.2376 58.6193C42.4847 58.1903 42.8413 57.8594 43.3072 57.6264C43.7759 57.3906 44.3398 57.2727 44.9989 57.2727H48.4379V66ZM43.729 62.0284H45.7191L43.5969 66H41.56L43.729 62.0284ZM55.745 57.2727V58.794H51.799V66H49.9538V57.2727H55.745ZM62.2063 66L59.4023 62.2798H58.7717V66H56.9265V57.2727H58.7717V60.7585H59.1424L62.0401 57.2727H64.337L60.9322 61.321L64.4947 66H62.2063ZM66.9268 66H64.9496L67.9624 57.2727H70.3402L73.3487 66H71.3714L69.1854 59.267H69.1172L66.9268 66ZM66.8033 62.5696H71.4737V64.0099H66.8033V62.5696ZM81.098 66H79.2571V58.7812H78.0128C77.6577 58.7812 77.3622 58.8338 77.1264 58.9389C76.8935 59.0412 76.7188 59.1918 76.6023 59.3906C76.4858 59.5895 76.4276 59.8338 76.4276 60.1236C76.4276 60.4105 76.4858 60.6506 76.6023 60.8438C76.7188 61.0369 76.8935 61.1818 77.1264 61.2784C77.3594 61.375 77.652 61.4233 78.0043 61.4233H80.0071V62.9062H77.706C77.0384 62.9062 76.4673 62.7955 75.9929 62.5739C75.5185 62.3523 75.1562 62.0341 74.9062 61.6193C74.6562 61.2017 74.5312 60.7031 74.5312 60.1236C74.5312 59.5469 74.6534 59.0455 74.8977 58.6193C75.1449 58.1903 75.5014 57.8594 75.9673 57.6264C76.4361 57.3906 77 57.2727 77.6591 57.2727H81.098V66ZM76.3892 62.0284H78.3793L76.2571 66H74.2202L76.3892 62.0284Z" fill="white"/>
<rect x="10.5" y="55.5" width="13" height="13" rx="1.5" stroke="white"/>
<rect x="10.5" y="86.5" width="108" height="27" rx="4.5" stroke="white"/>
</svg>
