<svg width="130" height="131" viewBox="0 0 130 131" fill="none" xmlns="http://www.w3.org/2000/svg">
<path d="M30.7585 104V95.2727H34.2528C34.8949 95.2727 35.4304 95.3679 35.8594 95.5582C36.2884 95.7486 36.6108 96.0128 36.8267 96.3509C37.0426 96.6861 37.1506 97.0724 37.1506 97.5099C37.1506 97.8509 37.0824 98.1506 36.946 98.4091C36.8097 98.6648 36.6222 98.875 36.3835 99.0398C36.1477 99.2017 35.8778 99.3168 35.5739 99.3849V99.4702C35.9063 99.4844 36.2173 99.5781 36.5071 99.7514C36.7997 99.9247 37.0369 100.168 37.2188 100.48C37.4006 100.79 37.4915 101.159 37.4915 101.588C37.4915 102.051 37.3764 102.464 37.1463 102.828C36.919 103.189 36.5824 103.474 36.1364 103.685C35.6903 103.895 35.1406 104 34.4872 104H30.7585ZM32.6037 102.491H34.108C34.6222 102.491 34.9972 102.393 35.233 102.197C35.4688 101.999 35.5866 101.734 35.5866 101.405C35.5866 101.163 35.5284 100.95 35.4119 100.766C35.2955 100.581 35.1293 100.436 34.9134 100.331C34.7003 100.226 34.446 100.173 34.1506 100.173H32.6037V102.491ZM32.6037 98.9247H33.9716C34.2244 98.9247 34.4489 98.8807 34.6449 98.7926C34.8438 98.7017 35 98.5739 35.1136 98.4091C35.2301 98.2443 35.2884 98.0469 35.2884 97.8168C35.2884 97.5014 35.1761 97.2472 34.9517 97.054C34.7301 96.8608 34.4148 96.7642 34.0057 96.7642H32.6037V98.9247ZM46.7493 104L43.9453 100.28H43.3146V104H41.4695V95.2727H43.3146V98.7585H43.6854L46.5831 95.2727H48.88L45.4751 99.321L49.0376 104H46.7493ZM57.4933 99.6364C57.4933 100.588 57.3129 101.398 56.9521 102.065C56.5941 102.733 56.1055 103.243 55.4862 103.595C54.8697 103.945 54.1765 104.119 53.4066 104.119C52.631 104.119 51.935 103.943 51.3185 103.591C50.7021 103.239 50.2148 102.729 49.8569 102.061C49.4989 101.393 49.32 100.585 49.32 99.6364C49.32 98.6847 49.4989 97.875 49.8569 97.2074C50.2148 96.5398 50.7021 96.0312 51.3185 95.6818C51.935 95.3295 52.631 95.1534 53.4066 95.1534C54.1765 95.1534 54.8697 95.3295 55.4862 95.6818C56.1055 96.0312 56.5941 96.5398 56.9521 97.2074C57.3129 97.875 57.4933 98.6847 57.4933 99.6364ZM55.6225 99.6364C55.6225 99.0199 55.5302 98.5 55.3455 98.0767C55.1637 97.6534 54.9066 97.3324 54.5742 97.1136C54.2418 96.8949 53.8526 96.7855 53.4066 96.7855C52.9606 96.7855 52.5714 96.8949 52.239 97.1136C51.9066 97.3324 51.6481 97.6534 51.4634 98.0767C51.2816 98.5 51.1907 99.0199 51.1907 99.6364C51.1907 100.253 51.2816 100.773 51.4634 101.196C51.6481 101.619 51.9066 101.94 52.239 102.159C52.5714 102.378 52.9606 102.487 53.4066 102.487C53.8526 102.487 54.2418 102.378 54.5742 102.159C54.9066 101.94 55.1637 101.619 55.3455 101.196C55.5302 100.773 55.6225 100.253 55.6225 99.6364ZM58.8601 104V95.2727H62.3033C62.9652 95.2727 63.5291 95.3991 63.995 95.652C64.4609 95.902 64.8161 96.25 65.0604 96.696C65.3075 97.1392 65.4311 97.6506 65.4311 98.2301C65.4311 98.8097 65.3061 99.321 65.0561 99.7642C64.8061 100.207 64.4439 100.553 63.9695 100.8C63.4979 101.047 62.9268 101.17 62.2564 101.17H60.0618V99.6918H61.9581C62.3132 99.6918 62.6058 99.6307 62.8359 99.5085C63.0689 99.3835 63.2422 99.2116 63.3558 98.9929C63.4723 98.7713 63.5305 98.517 63.5305 98.2301C63.5305 97.9403 63.4723 97.6875 63.3558 97.4716C63.2422 97.2528 63.0689 97.0838 62.8359 96.9645C62.603 96.8423 62.3075 96.7812 61.9496 96.7812H60.7053V104H58.8601ZM69.8043 104.119C69.168 104.119 68.6012 104.01 68.104 103.791C67.6097 103.57 67.2191 103.266 66.9322 102.879C66.6481 102.49 66.5018 102.041 66.4933 101.533H68.3512C68.3626 101.746 68.4322 101.933 68.56 102.095C68.6907 102.254 68.864 102.378 69.0799 102.466C69.2958 102.554 69.5387 102.598 69.8086 102.598C70.0898 102.598 70.3384 102.548 70.5543 102.449C70.7702 102.349 70.9393 102.212 71.0614 102.036C71.1836 101.859 71.2447 101.656 71.2447 101.426C71.2447 101.193 71.1793 100.987 71.0487 100.808C70.9208 100.626 70.7362 100.484 70.4947 100.382C70.256 100.28 69.9719 100.229 69.6424 100.229H68.8285V98.8736H69.6424C69.9208 98.8736 70.1665 98.8253 70.3796 98.7287C70.5955 98.6321 70.7631 98.4986 70.8825 98.3281C71.0018 98.1548 71.0614 97.9531 71.0614 97.723C71.0614 97.5043 71.0089 97.3125 70.9038 97.1477C70.8015 96.9801 70.6566 96.8494 70.4691 96.7557C70.2844 96.6619 70.0685 96.6151 69.8214 96.6151C69.5714 96.6151 69.3427 96.6605 69.1353 96.7514C68.9279 96.8395 68.7617 96.9659 68.6367 97.1307C68.5117 97.2955 68.445 97.4886 68.4364 97.7102H66.668C66.6765 97.2074 66.82 96.7642 67.0984 96.3807C67.3768 95.9972 67.7518 95.6974 68.2234 95.4815C68.6978 95.2628 69.2333 95.1534 69.8299 95.1534C70.4322 95.1534 70.9592 95.2628 71.4109 95.4815C71.8626 95.7003 72.2134 95.9957 72.4634 96.3679C72.7163 96.7372 72.8413 97.152 72.8384 97.6122C72.8413 98.1009 72.6893 98.5085 72.3825 98.8352C72.0785 99.1619 71.6822 99.3693 71.1935 99.4574V99.5256C71.8356 99.608 72.3242 99.831 72.6594 100.195C72.9975 100.555 73.1651 101.007 73.1623 101.55C73.1651 102.047 73.0217 102.489 72.7319 102.875C72.445 103.261 72.0487 103.565 71.543 103.787C71.0373 104.009 70.4577 104.119 69.8043 104.119ZM74.5398 95.2727H76.3807V100.761H76.4531L80.2244 95.2727H81.8395V104H79.9943V98.5071H79.9304L76.1378 104H74.5398V95.2727ZM83.364 104V95.2727H85.2092V98.8736H88.9549V95.2727H90.7958V104H88.9549V100.395H85.2092V104H83.364ZM93.2589 104.119V102.619H93.7319C93.9677 102.619 94.158 102.591 94.3029 102.534C94.4478 102.474 94.5629 102.388 94.6481 102.274C94.7362 102.158 94.81 102.013 94.8697 101.839L94.9762 101.554L91.8058 95.2727H93.7148L95.7688 99.5682L97.4862 95.2727H99.3697L96.3612 102.287C96.2163 102.611 96.0444 102.912 95.8455 103.19C95.6495 103.469 95.3981 103.693 95.0913 103.864C94.7844 104.034 94.3924 104.119 93.9151 104.119H93.2589Z" fill="white"/>
<rect x="10.5" y="86.5" width="108" height="27" rx="4.5" stroke="white"/>
</svg>
