<svg width="130" height="131" viewBox="0 0 130 131" fill="none" xmlns="http://www.w3.org/2000/svg">
<rect x="10.5" y="36.5" width="13" height="13" rx="1.5" stroke="white"/>
<rect x="0.5" y="0.5" width="129" height="130" rx="3.5" stroke="white"/>
<path d="M30.7585 104V95.2727H34.2528C34.8949 95.2727 35.4304 95.3679 35.8594 95.5582C36.2884 95.7486 36.6108 96.0128 36.8267 96.3509C37.0426 96.6861 37.1506 97.0724 37.1506 97.5099C37.1506 97.8509 37.0824 98.1506 36.946 98.4091C36.8097 98.6648 36.6222 98.875 36.3835 99.0398C36.1477 99.2017 35.8778 99.3168 35.5739 99.3849V99.4702C35.9063 99.4844 36.2173 99.5781 36.5071 99.7514C36.7997 99.9247 37.0369 100.168 37.2188 100.48C37.4006 100.79 37.4915 101.159 37.4915 101.588C37.4915 102.051 37.3764 102.464 37.1463 102.828C36.919 103.189 36.5824 103.474 36.1364 103.685C35.6903 103.895 35.1406 104 34.4872 104H30.7585ZM32.6037 102.491H34.108C34.6222 102.491 34.9972 102.393 35.233 102.197C35.4688 101.999 35.5866 101.734 35.5866 101.405C35.5866 101.163 35.5284 100.95 35.4119 100.766C35.2955 100.581 35.1293 100.436 34.9134 100.331C34.7003 100.226 34.446 100.173 34.1506 100.173H32.6037V102.491ZM32.6037 98.9247H33.9716C34.2244 98.9247 34.4489 98.8807 34.6449 98.7926C34.8438 98.7017 35 98.5739 35.1136 98.4091C35.2301 98.2443 35.2884 98.0469 35.2884 97.8168C35.2884 97.5014 35.1761 97.2472 34.9517 97.054C34.7301 96.8608 34.4148 96.7642 34.0057 96.7642H32.6037V98.9247ZM46.7493 104L43.9453 100.28H43.3146V104H41.4695V95.2727H43.3146V98.7585H43.6854L46.5831 95.2727H48.88L45.4751 99.321L49.0376 104H46.7493ZM57.4933 99.6364C57.4933 100.588 57.3129 101.398 56.9521 102.065C56.5941 102.733 56.1055 103.243 55.4862 103.595C54.8697 103.945 54.1765 104.119 53.4066 104.119C52.631 104.119 51.935 103.943 51.3185 103.591C50.7021 103.239 50.2148 102.729 49.8569 102.061C49.4989 101.393 49.32 100.585 49.32 99.6364C49.32 98.6847 49.4989 97.875 49.8569 97.2074C50.2148 96.5398 50.7021 96.0312 51.3185 95.6818C51.935 95.3295 52.631 95.1534 53.4066 95.1534C54.1765 95.1534 54.8697 95.3295 55.4862 95.6818C56.1055 96.0312 56.5941 96.5398 56.9521 97.2074C57.3129 97.875 57.4933 98.6847 57.4933 99.6364ZM55.6225 99.6364C55.6225 99.0199 55.5302 98.5 55.3455 98.0767C55.1637 97.6534 54.9066 97.3324 54.5742 97.1136C54.2418 96.8949 53.8526 96.7855 53.4066 96.7855C52.9606 96.7855 52.5714 96.8949 52.239 97.1136C51.9066 97.3324 51.6481 97.6534 51.4634 98.0767C51.2816 98.5 51.1907 99.0199 51.1907 99.6364C51.1907 100.253 51.2816 100.773 51.4634 101.196C51.6481 101.619 51.9066 101.94 52.239 102.159C52.5714 102.378 52.9606 102.487 53.4066 102.487C53.8526 102.487 54.2418 102.378 54.5742 102.159C54.9066 101.94 55.1637 101.619 55.3455 101.196C55.5302 100.773 55.6225 100.253 55.6225 99.6364ZM58.8601 104V95.2727H62.3033C62.9652 95.2727 63.5291 95.3991 63.995 95.652C64.4609 95.902 64.8161 96.25 65.0604 96.696C65.3075 97.1392 65.4311 97.6506 65.4311 98.2301C65.4311 98.8097 65.3061 99.321 65.0561 99.7642C64.8061 100.207 64.4439 100.553 63.9695 100.8C63.4979 101.047 62.9268 101.17 62.2564 101.17H60.0618V99.6918H61.9581C62.3132 99.6918 62.6058 99.6307 62.8359 99.5085C63.0689 99.3835 63.2422 99.2116 63.3558 98.9929C63.4723 98.7713 63.5305 98.517 63.5305 98.2301C63.5305 97.9403 63.4723 97.6875 63.3558 97.4716C63.2422 97.2528 63.0689 97.0838 62.8359 96.9645C62.603 96.8423 62.3075 96.7812 61.9496 96.7812H60.7053V104H58.8601ZM69.8043 104.119C69.168 104.119 68.6012 104.01 68.104 103.791C67.6097 103.57 67.2191 103.266 66.9322 102.879C66.6481 102.49 66.5018 102.041 66.4933 101.533H68.3512C68.3626 101.746 68.4322 101.933 68.56 102.095C68.6907 102.254 68.864 102.378 69.0799 102.466C69.2958 102.554 69.5387 102.598 69.8086 102.598C70.0898 102.598 70.3384 102.548 70.5543 102.449C70.7702 102.349 70.9393 102.212 71.0614 102.036C71.1836 101.859 71.2447 101.656 71.2447 101.426C71.2447 101.193 71.1793 100.987 71.0487 100.808C70.9208 100.626 70.7362 100.484 70.4947 100.382C70.256 100.28 69.9719 100.229 69.6424 100.229H68.8285V98.8736H69.6424C69.9208 98.8736 70.1665 98.8253 70.3796 98.7287C70.5955 98.6321 70.7631 98.4986 70.8825 98.3281C71.0018 98.1548 71.0614 97.9531 71.0614 97.723C71.0614 97.5043 71.0089 97.3125 70.9038 97.1477C70.8015 96.9801 70.6566 96.8494 70.4691 96.7557C70.2844 96.6619 70.0685 96.6151 69.8214 96.6151C69.5714 96.6151 69.3427 96.6605 69.1353 96.7514C68.9279 96.8395 68.7617 96.9659 68.6367 97.1307C68.5117 97.2955 68.445 97.4886 68.4364 97.7102H66.668C66.6765 97.2074 66.82 96.7642 67.0984 96.3807C67.3768 95.9972 67.7518 95.6974 68.2234 95.4815C68.6978 95.2628 69.2333 95.1534 69.8299 95.1534C70.4322 95.1534 70.9592 95.2628 71.4109 95.4815C71.8626 95.7003 72.2134 95.9957 72.4634 96.3679C72.7163 96.7372 72.8413 97.152 72.8384 97.6122C72.8413 98.1009 72.6893 98.5085 72.3825 98.8352C72.0785 99.1619 71.6822 99.3693 71.1935 99.4574V99.5256C71.8356 99.608 72.3242 99.831 72.6594 100.195C72.9975 100.555 73.1651 101.007 73.1623 101.55C73.1651 102.047 73.0217 102.489 72.7319 102.875C72.445 103.261 72.0487 103.565 71.543 103.787C71.0373 104.009 70.4577 104.119 69.8043 104.119ZM74.5398 95.2727H76.3807V100.761H76.4531L80.2244 95.2727H81.8395V104H79.9943V98.5071H79.9304L76.1378 104H74.5398V95.2727ZM83.364 104V95.2727H85.2092V98.8736H88.9549V95.2727H90.7958V104H88.9549V100.395H85.2092V104H83.364ZM93.2589 104.119V102.619H93.7319C93.9677 102.619 94.158 102.591 94.3029 102.534C94.4478 102.474 94.5629 102.388 94.6481 102.274C94.7362 102.158 94.81 102.013 94.8697 101.839L94.9762 101.554L91.8058 95.2727H93.7148L95.7688 99.5682L97.4862 95.2727H99.3697L96.3612 102.287C96.2163 102.611 96.0444 102.912 95.8455 103.19C95.6495 103.469 95.3981 103.693 95.0913 103.864C94.7844 104.034 94.3924 104.119 93.9151 104.119H93.2589Z" fill="white"/>
<path d="M19.7784 12.6364C19.7784 13.5881 19.598 14.3977 19.2372 15.0653C18.8793 15.733 18.3906 16.2429 17.7713 16.5952C17.1548 16.9446 16.4616 17.1193 15.6918 17.1193C14.9162 17.1193 14.2202 16.9432 13.6037 16.5909C12.9872 16.2386 12.5 15.7287 12.142 15.0611C11.7841 14.3935 11.6051 13.5852 11.6051 12.6364C11.6051 11.6847 11.7841 10.875 12.142 10.2074C12.5 9.53977 12.9872 9.03125 13.6037 8.68182C14.2202 8.32955 14.9162 8.15341 15.6918 8.15341C16.4616 8.15341 17.1548 8.32955 17.7713 8.68182C18.3906 9.03125 18.8793 9.53977 19.2372 10.2074C19.598 10.875 19.7784 11.6847 19.7784 12.6364ZM17.9077 12.6364C17.9077 12.0199 17.8153 11.5 17.6307 11.0767C17.4489 10.6534 17.1918 10.3324 16.8594 10.1136C16.527 9.89489 16.1378 9.78551 15.6918 9.78551C15.2457 9.78551 14.8565 9.89489 14.5241 10.1136C14.1918 10.3324 13.9332 10.6534 13.7486 11.0767C13.5668 11.5 13.4759 12.0199 13.4759 12.6364C13.4759 13.2528 13.5668 13.7727 13.7486 14.196C13.9332 14.6193 14.1918 14.9403 14.5241 15.1591C14.8565 15.3778 15.2457 15.4872 15.6918 15.4872C16.1378 15.4872 16.527 15.3778 16.8594 15.1591C17.1918 14.9403 17.4489 14.6193 17.6307 14.196C17.8153 13.7727 17.9077 13.2528 17.9077 12.6364ZM21.1452 17V8.27273H26.9364V9.79403H22.9904V11.4986H24.4094C25.0998 11.4986 25.695 11.6108 26.195 11.8352C26.6978 12.0568 27.0856 12.3707 27.3583 12.777C27.631 13.1832 27.7674 13.6619 27.7674 14.2131C27.7674 14.7614 27.631 15.2457 27.3583 15.6662C27.0856 16.0838 26.6978 16.4105 26.195 16.6463C25.695 16.8821 25.0998 17 24.4094 17H21.1452ZM22.9904 15.517H24.4094C24.739 15.517 25.0174 15.4574 25.2447 15.3381C25.4719 15.2159 25.6438 15.0554 25.7603 14.8565C25.8796 14.6548 25.9393 14.4347 25.9393 14.196C25.9393 13.8494 25.8072 13.5568 25.543 13.3182C25.2816 13.0767 24.9038 12.956 24.4094 12.956H22.9904V15.517ZM28.4886 17V15.517L28.7358 15.4957C29.054 15.4702 29.3111 15.3494 29.5071 15.1335C29.7031 14.9148 29.8494 14.5668 29.946 14.0895C30.0455 13.6094 30.1094 12.9645 30.1378 12.1548L30.2827 8.27273H36.206V17H34.4119V9.75142H31.9957L31.8594 12.7898C31.8139 13.767 31.6974 14.5653 31.5099 15.1847C31.3253 15.804 31.0298 16.2614 30.6236 16.5568C30.2202 16.8523 29.6676 17 28.9659 17H28.4886ZM45.7472 12.6364C45.7472 13.5881 45.5668 14.3977 45.206 15.0653C44.848 15.733 44.3594 16.2429 43.7401 16.5952C43.1236 16.9446 42.4304 17.1193 41.6605 17.1193C40.8849 17.1193 40.1889 16.9432 39.5724 16.5909C38.956 16.2386 38.4688 15.7287 38.1108 15.0611C37.7528 14.3935 37.5739 13.5852 37.5739 12.6364C37.5739 11.6847 37.7528 10.875 38.1108 10.2074C38.4688 9.53977 38.956 9.03125 39.5724 8.68182C40.1889 8.32955 40.8849 8.15341 41.6605 8.15341C42.4304 8.15341 43.1236 8.32955 43.7401 8.68182C44.3594 9.03125 44.848 9.53977 45.206 10.2074C45.5668 10.875 45.7472 11.6847 45.7472 12.6364ZM43.8764 12.6364C43.8764 12.0199 43.7841 11.5 43.5994 11.0767C43.4176 10.6534 43.1605 10.3324 42.8281 10.1136C42.4957 9.89489 42.1065 9.78551 41.6605 9.78551C41.2145 9.78551 40.8253 9.89489 40.4929 10.1136C40.1605 10.3324 39.902 10.6534 39.7173 11.0767C39.5355 11.5 39.4446 12.0199 39.4446 12.6364C39.4446 13.2528 39.5355 13.7727 39.7173 14.196C39.902 14.6193 40.1605 14.9403 40.4929 15.1591C40.8253 15.3778 41.2145 15.4872 41.6605 15.4872C42.1065 15.4872 42.4957 15.3778 42.8281 15.1591C43.1605 14.9403 43.4176 14.6193 43.5994 14.196C43.7841 13.7727 43.8764 13.2528 43.8764 12.6364ZM53.3516 8.27273V17H51.5618V8.27273H53.3516ZM46.2905 17L49.0263 12.3977L46.4055 8.27273H48.6768L50.6371 11.8651H54.3232L56.2322 8.27273H58.495L55.9382 12.3849L58.6229 17H56.4197L54.5746 13.5696H50.3686L48.4766 17H46.2905ZM65.0032 17L62.1992 13.2798H61.5685V17H59.7234V8.27273H61.5685V11.7585H61.9393L64.837 8.27273H67.1339L63.729 12.321L67.2915 17H65.0032ZM69.7237 17H67.7464L70.7592 8.27273H73.1371L76.1456 17H74.1683L71.9822 10.267H71.9141L69.7237 17ZM69.6001 13.5696H74.2706V15.0099H69.6001V13.5696ZM30.8675 39.794V38.2727H38.0352V39.794H35.3633V47H33.5394V39.794H30.8675ZM39.2156 47V38.2727H42.7099C43.3519 38.2727 43.8874 38.3679 44.3164 38.5582C44.7454 38.7486 45.0678 39.0128 45.2837 39.3509C45.4996 39.6861 45.6076 40.0724 45.6076 40.5099C45.6076 40.8509 45.5394 41.1506 45.4031 41.4091C45.2667 41.6648 45.0792 41.875 44.8406 42.0398C44.6048 42.2017 44.3349 42.3168 44.0309 42.3849V42.4702C44.3633 42.4844 44.6744 42.5781 44.9641 42.7514C45.2567 42.9247 45.494 43.1676 45.6758 43.4801C45.8576 43.7898 45.9485 44.1591 45.9485 44.5881C45.9485 45.0511 45.8335 45.4645 45.6033 45.8281C45.3761 46.1889 45.0394 46.4744 44.5934 46.6847C44.1474 46.8949 43.5977 47 42.9442 47H39.2156ZM41.0607 45.4915H42.565C43.0792 45.4915 43.4542 45.3935 43.69 45.1974C43.9258 44.9986 44.0437 44.7344 44.0437 44.4048C44.0437 44.1634 43.9854 43.9503 43.869 43.7656C43.7525 43.581 43.5863 43.4361 43.3704 43.331C43.1573 43.2259 42.9031 43.1733 42.6076 43.1733H41.0607V45.4915ZM41.0607 41.9247H42.4286C42.6815 41.9247 42.9059 41.8807 43.1019 41.7926C43.3008 41.7017 43.457 41.5739 43.5707 41.4091C43.6871 41.2443 43.7454 41.0469 43.7454 40.8168C43.7454 40.5014 43.6332 40.2472 43.4087 40.054C43.1871 39.8608 42.8718 39.7642 42.4627 39.7642H41.0607V41.9247ZM47.1491 47V38.2727H53.0298V39.794H48.9943V41.8736H52.7273V43.3949H48.9943V45.4787H53.0469V47H47.1491ZM48.8026 37.3778C48.5582 37.3778 48.348 37.2926 48.1719 37.1222C47.9957 36.9489 47.9077 36.7443 47.9077 36.5085C47.9077 36.267 47.9957 36.0625 48.1719 35.8949C48.348 35.7273 48.5582 35.6435 48.8026 35.6435C49.0497 35.6435 49.2585 35.7273 49.429 35.8949C49.6023 36.0625 49.6889 36.267 49.6889 36.5085C49.6889 36.7443 49.6023 36.9489 49.429 37.1222C49.2585 37.2926 49.0497 37.3778 48.8026 37.3778ZM51.4105 37.3778C51.1662 37.3778 50.956 37.2926 50.7798 37.1222C50.6037 36.9489 50.5156 36.7443 50.5156 36.5085C50.5156 36.267 50.6037 36.0625 50.7798 35.8949C50.956 35.7273 51.1662 35.6435 51.4105 35.6435C51.6577 35.6435 51.8665 35.7273 52.0369 35.8949C52.2102 36.0625 52.2969 36.267 52.2969 36.5085C52.2969 36.7443 52.2102 36.9489 52.0369 37.1222C51.8665 37.2926 51.6577 37.3778 51.4105 37.3778ZM54.4968 47V38.2727H57.94C58.6019 38.2727 59.1658 38.3991 59.6317 38.652C60.0977 38.902 60.4528 39.25 60.6971 39.696C60.9442 40.1392 61.0678 40.6506 61.0678 41.2301C61.0678 41.8097 60.9428 42.321 60.6928 42.7642C60.4428 43.2074 60.0806 43.5526 59.6062 43.7997C59.1346 44.0469 58.5636 44.1705 57.8931 44.1705H55.6985V42.6918H57.5948C57.9499 42.6918 58.2425 42.6307 58.4727 42.5085C58.7056 42.3835 58.8789 42.2116 58.9925 41.9929C59.109 41.7713 59.1673 41.517 59.1673 41.2301C59.1673 40.9403 59.109 40.6875 58.9925 40.4716C58.8789 40.2528 58.7056 40.0838 58.4727 39.9645C58.2397 39.8423 57.9442 39.7812 57.5863 39.7812H56.342V47H54.4968ZM61.7933 49.1051V45.5298H62.3857C62.5874 45.3849 62.772 45.1804 62.9396 44.9162C63.1072 44.6491 63.2507 44.2812 63.37 43.8125C63.4893 43.3409 63.5746 42.7244 63.6257 41.9631L63.8729 38.2727H69.647V45.5298H70.6016V49.0966H68.8288V47H63.5661V49.1051H61.7933ZM64.5163 45.5298H67.8743V39.794H65.5348L65.3984 41.9631C65.3615 42.5398 65.3004 43.0511 65.2152 43.4972C65.1328 43.9432 65.032 44.3338 64.9126 44.669C64.7962 45.0014 64.6641 45.2884 64.5163 45.5298ZM73.2276 47H71.2504L74.2631 38.2727H76.641L79.6495 47H77.6722L75.4862 40.267H75.418L73.2276 47ZM73.104 43.5696H77.7745V45.0099H73.104V43.5696ZM87.3988 47H85.5579V39.7812H84.3136C83.9585 39.7812 83.663 39.8338 83.4272 39.9389C83.1942 40.0412 83.0195 40.1918 82.9031 40.3906C82.7866 40.5895 82.7283 40.8338 82.7283 41.1236C82.7283 41.4105 82.7866 41.6506 82.9031 41.8438C83.0195 42.0369 83.1942 42.1818 83.4272 42.2784C83.6602 42.375 83.9528 42.4233 84.305 42.4233H86.3079V43.9062H84.0067C83.3391 43.9062 82.7681 43.7955 82.2937 43.5739C81.8192 43.3523 81.457 43.0341 81.207 42.6193C80.957 42.2017 80.832 41.7031 80.832 41.1236C80.832 40.5469 80.9542 40.0455 81.1985 39.6193C81.4457 39.1903 81.8022 38.8594 82.2681 38.6264C82.7369 38.3906 83.3008 38.2727 83.9599 38.2727H87.3988V47ZM82.69 43.0284H84.68L82.5579 47H80.521L82.69 43.0284Z" fill="white"/>
<path d="M33.7585 57.2727H36.0341L38.4375 63.1364H38.5398L40.9432 57.2727H43.2188V66H41.429V60.3196H41.3565L39.098 65.9574H37.8793L35.6207 60.2983H35.5483V66H33.7585V57.2727ZM51.4379 66H49.5969V58.7812H48.3526C47.9975 58.7812 47.7021 58.8338 47.4663 58.9389C47.2333 59.0412 47.0586 59.1918 46.9421 59.3906C46.8256 59.5895 46.7674 59.8338 46.7674 60.1236C46.7674 60.4105 46.8256 60.6506 46.9421 60.8438C47.0586 61.0369 47.2333 61.1818 47.4663 61.2784C47.6992 61.375 47.9918 61.4233 48.3441 61.4233H50.3469V62.9062H48.0458C47.3782 62.9062 46.8072 62.7955 46.3327 62.5739C45.8583 62.3523 45.4961 62.0341 45.2461 61.6193C44.9961 61.2017 44.8711 60.7031 44.8711 60.1236C44.8711 59.5469 44.9933 59.0455 45.2376 58.6193C45.4847 58.1903 45.8413 57.8594 46.3072 57.6264C46.7759 57.3906 47.3398 57.2727 47.9989 57.2727H51.4379V66ZM46.729 62.0284H48.7191L46.5969 66H44.56L46.729 62.0284ZM58.745 57.2727V58.794H54.799V66H52.9538V57.2727H58.745ZM65.2063 66L62.4023 62.2798H61.7717V66H59.9265V57.2727H61.7717V60.7585H62.1424L65.0401 57.2727H67.337L63.9322 61.321L67.4947 66H65.2063ZM69.9268 66H67.9496L70.9624 57.2727H73.3402L76.3487 66H74.3714L72.1854 59.267H72.1172L69.9268 66ZM69.8033 62.5696H74.4737V64.0099H69.8033V62.5696ZM84.098 66H82.2571V58.7812H81.0128C80.6577 58.7812 80.3622 58.8338 80.1264 58.9389C79.8935 59.0412 79.7188 59.1918 79.6023 59.3906C79.4858 59.5895 79.4276 59.8338 79.4276 60.1236C79.4276 60.4105 79.4858 60.6506 79.6023 60.8438C79.7188 61.0369 79.8935 61.1818 80.1264 61.2784C80.3594 61.375 80.652 61.4233 81.0043 61.4233H83.0071V62.9062H80.706C80.0384 62.9062 79.4673 62.7955 78.9929 62.5739C78.5185 62.3523 78.1562 62.0341 77.9062 61.6193C77.6562 61.2017 77.5312 60.7031 77.5312 60.1236C77.5312 59.5469 77.6534 59.0455 77.8977 58.6193C78.1449 58.1903 78.5014 57.8594 78.9673 57.6264C79.4361 57.3906 80 57.2727 80.6591 57.2727H84.098V66ZM79.3892 62.0284H81.3793L79.2571 66H77.2202L79.3892 62.0284Z" fill="white"/>
<rect x="10.5" y="55.5" width="13" height="13" rx="1.5" stroke="white"/>
<rect x="10.5" y="86.5" width="108" height="27" rx="4.5" stroke="white"/>
</svg>
