<svg width="378" height="375" viewBox="0 0 378 375" fill="none" xmlns="http://www.w3.org/2000/svg">
<circle cx="314.32" cy="188.638" r="0.957654" transform="rotate(-0.472186 314.32 188.638)" fill="white"/>
<circle cx="318.954" cy="188.599" r="0.957654" transform="rotate(-0.472186 318.954 188.599)" fill="white"/>
<circle cx="323.587" cy="188.561" r="0.957654" transform="rotate(-0.472186 323.587 188.561)" fill="white"/>
<circle cx="328.22" cy="188.523" r="0.957654" transform="rotate(-0.472186 328.22 188.523)" fill="white"/>
<circle cx="332.977" cy="192.417" r="0.957654" transform="rotate(-0.472186 332.977 192.417)" fill="white"/>
<circle cx="337.487" cy="188.447" r="0.957654" transform="rotate(-0.472186 337.487 188.447)" fill="white"/>
<circle cx="341.596" cy="184.755" r="0.957654" transform="rotate(-0.472186 341.596 184.755)" fill="white"/>
<circle cx="346.754" cy="188.371" r="0.957654" transform="rotate(-0.472186 346.754 188.371)" fill="white"/>
<circle cx="351.173" cy="197.205" r="0.957654" transform="rotate(-0.472186 351.173 197.205)" fill="white"/>
<circle cx="356.02" cy="188.294" r="0.957654" transform="rotate(-0.472186 356.02 188.294)" fill="white"/>
<circle cx="360.749" cy="175.179" r="0.957654" transform="rotate(-0.472186 360.749 175.179)" fill="white"/>
<circle cx="365.287" cy="188.218" r="0.957654" transform="rotate(-0.472186 365.287 188.218)" fill="white"/>
<circle cx="370.326" cy="193.375" r="0.957654" transform="rotate(-0.472186 370.326 193.375)" fill="white"/>
<circle cx="374.553" cy="188.142" r="0.957654" transform="rotate(-0.472186 374.553 188.142)" fill="white"/>
<circle cx="278.878" cy="98.7411" r="0.957654" transform="rotate(-44.963 278.878 98.7411)" fill="white"/>
<circle cx="278.78" cy="93.2099" r="0.957654" transform="rotate(-44.963 278.78 93.2099)" fill="white"/>
<circle cx="285.435" cy="92.1923" r="0.957654" transform="rotate(-44.963 285.435 92.1923)" fill="white"/>
<circle cx="294.102" cy="94.1679" r="0.957654" transform="rotate(-44.963 294.102 94.1679)" fill="white"/>
<circle cx="291.992" cy="85.6435" r="0.957654" transform="rotate(-44.963 291.992 85.6435)" fill="white"/>
<circle cx="295.27" cy="82.37" r="0.957654" transform="rotate(-44.963 295.27 82.37)" fill="white"/>
<circle cx="292.187" cy="67.3534" r="0.957654" transform="rotate(-44.963 292.187 67.3534)" fill="white"/>
<circle cx="301.827" cy="75.8202" r="0.957654" transform="rotate(-44.963 301.827 75.8202)" fill="white"/>
<circle cx="305.106" cy="72.5458" r="0.957654" transform="rotate(-44.963 305.106 72.5458)" fill="white"/>
<circle cx="308.384" cy="69.2724" r="0.957654" transform="rotate(-44.963 308.384 69.2724)" fill="white"/>
<circle cx="311.662" cy="65.9979" r="0.957654" transform="rotate(-44.963 311.662 65.9979)" fill="white"/>
<circle cx="314.941" cy="62.7235" r="0.957654" transform="rotate(-44.963 314.941 62.7235)" fill="white"/>
<circle cx="318.22" cy="59.4501" r="0.957654" transform="rotate(-44.963 318.22 59.4501)" fill="white"/>
<circle cx="321.498" cy="56.1747" r="0.957654" transform="rotate(-44.963 321.498 56.1747)" fill="white"/>
<circle cx="229.828" cy="91.181" r="0.957654" transform="rotate(-68.7538 229.828 91.181)" fill="white"/>
<circle cx="240.277" cy="69.391" r="0.957654" transform="rotate(-68.7538 240.277 69.391)" fill="white"/>
<circle cx="234.616" cy="61.4935" r="0.957654" transform="rotate(-68.7538 234.616 61.4935)" fill="white"/>
<circle cx="243.635" cy="60.7543" r="0.957654" transform="rotate(-68.7538 243.635 60.7543)" fill="white"/>
<circle cx="249.939" cy="57.6625" r="0.957654" transform="rotate(-68.7538 249.939 57.6625)" fill="white"/>
<circle cx="246.993" cy="52.1166" r="0.957654" transform="rotate(-68.7538 246.993 52.1166)" fill="white"/>
<circle cx="248.672" cy="47.7972" r="0.957654" transform="rotate(-68.7538 248.672 47.7972)" fill="white"/>
<circle cx="244.193" cy="40.4252" r="0.957654" transform="rotate(-68.7538 244.193 40.4252)" fill="white"/>
<circle cx="252.03" cy="39.1605" r="0.957654" transform="rotate(-68.7538 252.03 39.1605)" fill="white"/>
<circle cx="253.709" cy="34.8422" r="0.957654" transform="rotate(-68.7538 253.709 34.8422)" fill="white"/>
<circle cx="259.515" cy="32.764" r="0.957654" transform="rotate(-68.7538 259.515 32.764)" fill="white"/>
<circle cx="257.067" cy="26.2054" r="0.957654" transform="rotate(-68.7538 257.067 26.2054)" fill="white"/>
<circle cx="260.473" cy="23.1879" r="0.957654" transform="rotate(-68.7538 260.473 23.1879)" fill="white"/>
<circle cx="267.177" cy="20.3148" r="0.957654" transform="rotate(-68.7538 267.177 20.3148)" fill="white"/>
<circle cx="304.119" cy="141.857" r="0.957654" transform="rotate(-24.4845 304.119 141.857)" fill="white"/>
<circle cx="308.335" cy="139.938" r="0.957654" transform="rotate(-24.4845 308.335 139.938)" fill="white"/>
<circle cx="313.169" cy="141.007" r="0.957654" transform="rotate(-24.4845 313.169 141.007)" fill="white"/>
<circle cx="316.042" cy="132.388" r="0.957654" transform="rotate(-24.4845 316.042 132.388)" fill="white"/>
<circle cx="320.986" cy="134.177" r="0.957654" transform="rotate(-24.4845 320.986 134.177)" fill="white"/>
<circle cx="322.745" cy="125.685" r="0.957654" transform="rotate(-24.4845 322.745 125.685)" fill="white"/>
<circle cx="329.419" cy="130.336" r="0.957654" transform="rotate(-24.4845 329.419 130.336)" fill="white"/>
<circle cx="335.195" cy="131.431" r="0.957654" transform="rotate(-24.4845 335.195 131.431)" fill="white"/>
<circle cx="337.852" cy="126.495" r="0.957654" transform="rotate(-24.4845 337.852 126.495)" fill="white"/>
<circle cx="339.026" cy="114.193" r="0.957654" transform="rotate(-24.4845 339.026 114.193)" fill="white"/>
<circle cx="346.286" cy="122.654" r="0.957654" transform="rotate(-24.4845 346.286 122.654)" fill="white"/>
<circle cx="352.433" cy="127.601" r="0.957654" transform="rotate(-24.4845 352.433 127.601)" fill="white"/>
<circle cx="354.348" cy="116.108" r="0.957654" transform="rotate(-24.4845 354.348 116.108)" fill="white"/>
<circle cx="358.937" cy="116.894" r="0.957654" transform="rotate(-24.4845 358.937 116.894)" fill="white"/>
<circle cx="279.735" cy="274.206" r="0.957654" transform="rotate(48.2754 279.735 274.206)" fill="white"/>
<circle cx="283.29" cy="279.138" r="0.957654" transform="rotate(48.2754 283.29 279.138)" fill="white"/>
<circle cx="291.226" cy="277.078" r="0.957654" transform="rotate(48.2754 291.226 277.078)" fill="white"/>
<circle cx="289.457" cy="286.055" r="0.957654" transform="rotate(48.2754 289.457 286.055)" fill="white"/>
<circle cx="292.541" cy="289.513" r="0.957654" transform="rotate(48.2754 292.541 289.513)" fill="white"/>
<circle cx="297.93" cy="289.527" r="0.957654" transform="rotate(48.2754 297.93 289.527)" fill="white"/>
<circle cx="298.709" cy="296.429" r="0.957654" transform="rotate(48.2754 298.709 296.429)" fill="white"/>
<circle cx="292.183" cy="304.849" r="0.957654" transform="rotate(48.2754 292.183 304.849)" fill="white"/>
<circle cx="304.877" cy="303.346" r="0.957654" transform="rotate(48.2754 304.877 303.346)" fill="white"/>
<circle cx="311.337" cy="305.806" r="0.957654" transform="rotate(48.2754 311.337 305.806)" fill="white"/>
<circle cx="311.044" cy="310.262" r="0.957654" transform="rotate(48.2754 311.044 310.262)" fill="white"/>
<circle cx="314.128" cy="313.72" r="0.957654" transform="rotate(48.2754 314.128 313.72)" fill="white"/>
<circle cx="310.38" cy="322.088" r="0.957654" transform="rotate(48.2754 310.38 322.088)" fill="white"/>
<circle cx="320.296" cy="320.637" r="0.957654" transform="rotate(48.2754 320.296 320.637)" fill="white"/>
<circle cx="301.977" cy="234.671" r="0.957654" transform="rotate(19.2938 301.977 234.671)" fill="white"/>
<circle cx="306.351" cy="236.203" r="0.957654" transform="rotate(19.2938 306.351 236.203)" fill="white"/>
<circle cx="312.163" cy="229.064" r="0.957654" transform="rotate(19.2938 312.163 229.064)" fill="white"/>
<circle cx="315.097" cy="239.264" r="0.957654" transform="rotate(19.2938 315.097 239.264)" fill="white"/>
<circle cx="317.909" cy="249.174" r="0.957654" transform="rotate(19.2938 317.909 249.174)" fill="white"/>
<circle cx="323.843" cy="242.327" r="0.957654" transform="rotate(19.2938 323.843 242.327)" fill="white"/>
<circle cx="328.217" cy="243.858" r="0.957654" transform="rotate(19.2938 328.217 243.858)" fill="white"/>
<circle cx="333.231" cy="239.598" r="0.957654" transform="rotate(19.2938 333.231 239.598)" fill="white"/>
<circle cx="336.963" cy="246.92" r="0.957654" transform="rotate(19.2938 336.963 246.92)" fill="white"/>
<circle cx="342.808" cy="246.302" r="0.957654" transform="rotate(19.2938 342.808 246.302)" fill="white"/>
<circle cx="345.71" cy="249.981" r="0.957654" transform="rotate(19.2938 345.71 249.981)" fill="white"/>
<circle cx="347.596" cy="255.878" r="0.957654" transform="rotate(19.2938 347.596 255.878)" fill="white"/>
<circle cx="354.456" cy="253.043" r="0.957654" transform="rotate(19.2938 354.456 253.043)" fill="white"/>
<circle cx="361.003" cy="241.513" r="0.957654" transform="rotate(19.2938 361.003 241.513)" fill="white"/>
<circle cx="236.105" cy="302.479" r="0.957654" transform="rotate(63.5631 236.105 302.479)" fill="white"/>
<circle cx="240.407" cy="306.696" r="0.957654" transform="rotate(63.5631 240.407 306.696)" fill="white"/>
<circle cx="240.231" cy="310.777" r="0.957654" transform="rotate(63.5631 240.231 310.777)" fill="white"/>
<circle cx="225.084" cy="317.23" r="0.957654" transform="rotate(63.5631 225.084 317.23)" fill="white"/>
<circle cx="244.357" cy="319.074" r="0.957654" transform="rotate(63.5631 244.357 319.074)" fill="white"/>
<circle cx="246.42" cy="323.224" r="0.957654" transform="rotate(63.5631 246.42 323.224)" fill="white"/>
<circle cx="251.899" cy="325.848" r="0.957654" transform="rotate(63.5631 251.899 325.848)" fill="white"/>
<circle cx="250.546" cy="331.521" r="0.957654" transform="rotate(63.5631 250.546 331.521)" fill="white"/>
<circle cx="252.609" cy="335.671" r="0.957654" transform="rotate(63.5631 252.609 335.671)" fill="white"/>
<circle cx="249.984" cy="341.172" r="0.957654" transform="rotate(63.5631 249.984 341.172)" fill="white"/>
<circle cx="256.734" cy="343.967" r="0.957654" transform="rotate(63.5631 256.734 343.967)" fill="white"/>
<circle cx="260.518" cy="344.044" r="0.957654" transform="rotate(63.5631 260.518 344.044)" fill="white"/>
<circle cx="255.729" cy="350.748" r="0.957654" transform="rotate(63.5631 255.729 350.748)" fill="white"/>
<circle cx="262.923" cy="356.415" r="0.957654" transform="rotate(63.5631 262.923 356.415)" fill="white"/>
<circle cx="0.957654" cy="0.957654" r="0.957654" transform="matrix(-0.723404 -0.690426 -0.690426 0.723404 104.059 97.9131)" fill="white"/>
<circle cx="0.957654" cy="0.957654" r="0.957654" transform="matrix(-0.723404 -0.690426 -0.690426 0.723404 100.708 94.7148)" fill="white"/>
<circle cx="0.957654" cy="0.957654" r="0.957654" transform="matrix(-0.723404 -0.690426 -0.690426 0.723404 109.674 83.6025)" fill="white"/>
<circle cx="0.957654" cy="0.957654" r="0.957654" transform="matrix(-0.723404 -0.690426 -0.690426 0.723404 97.2246 85.5176)" fill="white"/>
<circle cx="0.957654" cy="0.957654" r="0.957654" transform="matrix(-0.723404 -0.690426 -0.690426 0.723404 90.6519 85.1172)" fill="white"/>
<circle cx="0.957654" cy="0.957654" r="0.957654" transform="matrix(-0.723404 -0.690426 -0.690426 0.723404 79.9868 87.4326)" fill="white"/>
<circle cx="0.957654" cy="0.957654" r="0.957654" transform="matrix(-0.723404 -0.690426 -0.690426 0.723404 83.9482 78.7188)" fill="white"/>
<circle cx="0.957654" cy="0.957654" r="0.957654" transform="matrix(-0.723404 -0.690426 -0.690426 0.723404 93.394 63.4912)" fill="white"/>
<circle cx="0.957654" cy="0.957654" r="0.957654" transform="matrix(-0.723404 -0.690426 -0.690426 0.723404 77.2446 72.3213)" fill="white"/>
<circle cx="0.957654" cy="0.957654" r="0.957654" transform="matrix(-0.723404 -0.690426 -0.690426 0.723404 68.4946 73.0684)" fill="white"/>
<circle cx="0.957654" cy="0.957654" r="0.957654" transform="matrix(-0.723404 -0.690426 -0.690426 0.723404 70.5405 65.9229)" fill="white"/>
<circle cx="0.957654" cy="0.957654" r="0.957654" transform="matrix(-0.723404 -0.690426 -0.690426 0.723404 67.1885 62.7236)" fill="white"/>
<circle cx="0.957654" cy="0.957654" r="0.957654" transform="matrix(-0.723404 -0.690426 -0.690426 0.723404 63.8369 59.5244)" fill="white"/>
<circle cx="0.957654" cy="0.957654" r="0.957654" transform="matrix(-0.723404 -0.690426 -0.690426 0.723404 60.4849 56.3252)" fill="white"/>
<circle cx="0.957654" cy="0.957654" r="0.957654" transform="matrix(-0.362376 -0.932032 -0.932032 0.362376 137.218 75.4453)" fill="white"/>
<circle cx="0.957654" cy="0.957654" r="0.957654" transform="matrix(-0.362376 -0.932032 -0.932032 0.362376 139.603 69.9355)" fill="white"/>
<circle cx="0.957654" cy="0.957654" r="0.957654" transform="matrix(-0.362376 -0.932032 -0.932032 0.362376 137.923 65.6172)" fill="white"/>
<circle cx="0.957654" cy="0.957654" r="0.957654" transform="matrix(-0.362376 -0.932032 -0.932032 0.362376 141.049 61.0811)" fill="white"/>
<circle cx="0.957654" cy="0.957654" r="0.957654" transform="matrix(-0.362376 -0.932032 -0.932032 0.362376 134.565 56.9795)" fill="white"/>
<circle cx="0.957654" cy="0.957654" r="0.957654" transform="matrix(-0.362376 -0.932032 -0.932032 0.362376 126.684 54.377)" fill="white"/>
<circle cx="0.957654" cy="0.957654" r="0.957654" transform="matrix(-0.362376 -0.932032 -0.932032 0.362376 131.208 48.3428)" fill="white"/>
<circle cx="0.957654" cy="0.957654" r="0.957654" transform="matrix(-0.362376 -0.932032 -0.932032 0.362376 129.528 44.0244)" fill="white"/>
<circle cx="0.957654" cy="0.957654" r="0.957654" transform="matrix(-0.362376 -0.932032 -0.932032 0.362376 135.303 38.0967)" fill="white"/>
<circle cx="0.957654" cy="0.957654" r="0.957654" transform="matrix(-0.362376 -0.932032 -0.932032 0.362376 126.17 35.3867)" fill="white"/>
<circle cx="0.957654" cy="0.957654" r="0.957654" transform="matrix(-0.362376 -0.932032 -0.932032 0.362376 117.107 32.3506)" fill="white"/>
<circle cx="0.957654" cy="0.957654" r="0.957654" transform="matrix(-0.362376 -0.932032 -0.932032 0.362376 122.812 26.75)" fill="white"/>
<circle cx="0.957654" cy="0.957654" r="0.957654" transform="matrix(-0.362376 -0.932032 -0.932032 0.362376 125.726 18.9443)" fill="white"/>
<circle cx="0.957654" cy="0.957654" r="0.957654" transform="matrix(-0.362376 -0.932032 -0.932032 0.362376 115.192 19.9014)" fill="white"/>
<circle cx="0.957654" cy="0.957654" r="0.957654" transform="matrix(-0.910073 -0.414448 -0.414448 0.910073 75.7856 141.382)" fill="white"/>
<circle cx="0.957654" cy="0.957654" r="0.957654" transform="matrix(-0.910073 -0.414448 -0.414448 0.910073 71.5688 139.462)" fill="white"/>
<circle cx="0.957654" cy="0.957654" r="0.957654" transform="matrix(-0.910073 -0.414448 -0.414448 0.910073 60.6631 151.066)" fill="white"/>
<circle cx="0.957654" cy="0.957654" r="0.957654" transform="matrix(-0.910073 -0.414448 -0.414448 0.910073 63.1357 135.621)" fill="white"/>
<circle cx="0.957654" cy="0.957654" r="0.957654" transform="matrix(-0.910073 -0.414448 -0.414448 0.910073 58.9185 133.701)" fill="white"/>
<circle cx="0.957654" cy="0.957654" r="0.957654" transform="matrix(-0.910073 -0.414448 -0.414448 0.910073 57.7905 126.167)" fill="white"/>
<circle cx="0.957654" cy="0.957654" r="0.957654" transform="matrix(-0.910073 -0.414448 -0.414448 0.910073 50.4854 129.86)" fill="white"/>
<circle cx="0.957654" cy="0.957654" r="0.957654" transform="matrix(-0.910073 -0.414448 -0.414448 0.910073 46.2686 127.94)" fill="white"/>
<circle cx="0.957654" cy="0.957654" r="0.957654" transform="matrix(-0.910073 -0.414448 -0.414448 0.910073 40.5527 129.04)" fill="white"/>
<circle cx="0.957654" cy="0.957654" r="0.957654" transform="matrix(-0.910073 -0.414448 -0.414448 0.910073 37.8267 124.079)" fill="white"/>
<circle cx="0.957654" cy="0.957654" r="0.957654" transform="matrix(-0.910073 -0.414448 -0.414448 0.910073 39.5869 108.909)" fill="white"/>
<circle cx="0.957654" cy="0.957654" r="0.957654" transform="matrix(-0.910073 -0.414448 -0.414448 0.910073 29.3931 120.238)" fill="white"/>
<circle cx="0.957654" cy="0.957654" r="0.957654" transform="matrix(-0.910073 -0.414448 -0.414448 0.910073 25.1763 118.317)" fill="white"/>
<circle cx="0.957654" cy="0.957654" r="0.957654" transform="matrix(-0.910073 -0.414448 -0.414448 0.910073 20.9595 116.398)" fill="white"/>
<circle cx="0.957654" cy="0.957654" r="0.957654" transform="matrix(-0.665551 0.746353 0.746353 0.665551 98.3516 274.327)" fill="white"/>
<circle cx="0.957654" cy="0.957654" r="0.957654" transform="matrix(-0.665551 0.746353 0.746353 0.665551 95.2676 277.784)" fill="white"/>
<circle cx="0.957654" cy="0.957654" r="0.957654" transform="matrix(-0.665551 0.746353 0.746353 0.665551 108.241 291.047)" fill="white"/>
<circle cx="0.957654" cy="0.957654" r="0.957654" transform="matrix(-0.665551 0.746353 0.746353 0.665551 89.1001 284.701)" fill="white"/>
<circle cx="0.957654" cy="0.957654" r="0.957654" transform="matrix(-0.665551 0.746353 0.746353 0.665551 86.0161 288.159)" fill="white"/>
<circle cx="0.957654" cy="0.957654" r="0.957654" transform="matrix(-0.665551 0.746353 0.746353 0.665551 77.5962 284.343)" fill="white"/>
<circle cx="0.957654" cy="0.957654" r="0.957654" transform="matrix(-0.665551 0.746353 0.746353 0.665551 79.8486 295.075)" fill="white"/>
<circle cx="0.957654" cy="0.957654" r="0.957654" transform="matrix(-0.665551 0.746353 0.746353 0.665551 81.4268 301.58)" fill="white"/>
<circle cx="0.957654" cy="0.957654" r="0.957654" transform="matrix(-0.665551 0.746353 0.746353 0.665551 73.6807 301.992)" fill="white"/>
<circle cx="0.957654" cy="0.957654" r="0.957654" transform="matrix(-0.665551 0.746353 0.746353 0.665551 70.5972 305.45)" fill="white"/>
<circle cx="0.957654" cy="0.957654" r="0.957654" transform="matrix(-0.665551 0.746353 0.746353 0.665551 54.6123 291.047)" fill="white"/>
<circle cx="0.957654" cy="0.957654" r="0.957654" transform="matrix(-0.665551 0.746353 0.746353 0.665551 75.6807 320.734)" fill="white"/>
<circle cx="0.957654" cy="0.957654" r="0.957654" transform="matrix(-0.665551 0.746353 0.746353 0.665551 61.3457 315.825)" fill="white"/>
<circle cx="0.957654" cy="0.957654" r="0.957654" transform="matrix(-0.665551 0.746353 0.746353 0.665551 58.2617 319.283)" fill="white"/>
<circle cx="0.957654" cy="0.957654" r="0.957654" transform="matrix(-0.943837 0.330413 0.330413 0.943837 77.2451 233.453)" fill="white"/>
<circle cx="0.957654" cy="0.957654" r="0.957654" transform="matrix(-0.943837 0.330413 0.330413 0.943837 72.8721 234.983)" fill="white"/>
<circle cx="0.957654" cy="0.957654" r="0.957654" transform="matrix(-0.943837 0.330413 0.330413 0.943837 68.4985 236.514)" fill="white"/>
<circle cx="0.957654" cy="0.957654" r="0.957654" transform="matrix(-0.943837 0.330413 0.330413 0.943837 61.8491 225.929)" fill="white"/>
<circle cx="0.957654" cy="0.957654" r="0.957654" transform="matrix(-0.943837 0.330413 0.330413 0.943837 59.752 239.575)" fill="white"/>
<circle cx="0.957654" cy="0.957654" r="0.957654" transform="matrix(-0.943837 0.330413 0.330413 0.943837 57.061 246.04)" fill="white"/>
<circle cx="0.957654" cy="0.957654" r="0.957654" transform="matrix(-0.943837 0.330413 0.330413 0.943837 51.0059 242.637)" fill="white"/>
<circle cx="0.957654" cy="0.957654" r="0.957654" transform="matrix(-0.943837 0.330413 0.330413 0.943837 44.6113 226.887)" fill="white"/>
<circle cx="0.957654" cy="0.957654" r="0.957654" transform="matrix(-0.943837 0.330413 0.330413 0.943837 42.2593 245.699)" fill="white"/>
<circle cx="0.957654" cy="0.957654" r="0.957654" transform="matrix(-0.943837 0.330413 0.330413 0.943837 37.8862 247.23)" fill="white"/>
<circle cx="0.957654" cy="0.957654" r="0.957654" transform="matrix(-0.943837 0.330413 0.330413 0.943837 35.0352 251.785)" fill="white"/>
<circle cx="0.957654" cy="0.957654" r="0.957654" transform="matrix(-0.943837 0.330413 0.330413 0.943837 29.1396 250.292)" fill="white"/>
<circle cx="0.957654" cy="0.957654" r="0.957654" transform="matrix(-0.943837 0.330413 0.330413 0.943837 21.6279 241.251)" fill="white"/>
<circle cx="0.957654" cy="0.957654" r="0.957654" transform="matrix(-0.943837 0.330413 0.330413 0.943837 20.3931 253.354)" fill="white"/>
<circle cx="0.957654" cy="0.957654" r="0.957654" transform="matrix(-0.445212 0.895425 0.895425 0.445212 142.104 301.196)" fill="white"/>
<circle cx="0.957654" cy="0.957654" r="0.957654" transform="matrix(-0.445212 0.895425 0.895425 0.445212 143.253 305.412)" fill="white"/>
<circle cx="0.957654" cy="0.957654" r="0.957654" transform="matrix(-0.445212 0.895425 0.895425 0.445212 137.978 309.494)" fill="white"/>
<circle cx="0.957654" cy="0.957654" r="0.957654" transform="matrix(-0.445212 0.895425 0.895425 0.445212 135.915 313.643)" fill="white"/>
<circle cx="0.957654" cy="0.957654" r="0.957654" transform="matrix(-0.445212 0.895425 0.895425 0.445212 123.142 314.031)" fill="white"/>
<circle cx="0.957654" cy="0.957654" r="0.957654" transform="matrix(-0.445212 0.895425 0.895425 0.445212 131.789 321.94)" fill="white"/>
<circle cx="0.957654" cy="0.957654" r="0.957654" transform="matrix(-0.445212 0.895425 0.895425 0.445212 138.464 328.396)" fill="white"/>
<circle cx="0.957654" cy="0.957654" r="0.957654" transform="matrix(-0.445212 0.895425 0.895425 0.445212 127.663 330.238)" fill="white"/>
<circle cx="0.957654" cy="0.957654" r="0.957654" transform="matrix(-0.445212 0.895425 0.895425 0.445212 125.6 334.387)" fill="white"/>
<circle cx="0.957654" cy="0.957654" r="0.957654" transform="matrix(-0.445212 0.895425 0.895425 0.445212 127.93 339.888)" fill="white"/>
<circle cx="0.957654" cy="0.957654" r="0.957654" transform="matrix(-0.445212 0.895425 0.895425 0.445212 121.475 342.685)" fill="white"/>
<circle cx="0.957654" cy="0.957654" r="0.957654" transform="matrix(-0.445212 0.895425 0.895425 0.445212 96.3276 327.438)" fill="white"/>
<circle cx="0.957654" cy="0.957654" r="0.957654" transform="matrix(-0.445212 0.895425 0.895425 0.445212 117.349 350.983)" fill="white"/>
<circle cx="0.957654" cy="0.957654" r="0.957654" transform="matrix(-0.445212 0.895425 0.895425 0.445212 115.286 355.132)" fill="white"/>
<circle cx="189.707" cy="73.5122" r="0.957654" transform="rotate(-91.056 189.707 73.5122)" fill="white"/>
<circle cx="189.62" cy="59.3042" r="0.957654" transform="rotate(-91.056 189.62 59.3042)" fill="white"/>
<circle cx="189.535" cy="54.6713" r="0.957654" transform="rotate(-91.056 189.535 54.6713)" fill="white"/>
<circle cx="189.45" cy="50.0395" r="0.957654" transform="rotate(-91.056 189.45 50.0395)" fill="white"/>
<circle cx="193.195" cy="45.4067" r="0.957654" transform="rotate(-91.056 193.195 45.4067)" fill="white"/>
<circle cx="189.279" cy="40.7739" r="0.957654" transform="rotate(-91.056 189.279 40.7739)" fill="white"/>
<circle cx="193.024" cy="36.1411" r="0.957654" transform="rotate(-91.056 193.024 36.1411)" fill="white"/>
<circle cx="189.108" cy="31.5083" r="0.957654" transform="rotate(-91.056 189.108 31.5083)" fill="white"/>
<circle cx="176.573" cy="26.8764" r="0.957654" transform="rotate(-91.056 176.573 26.8764)" fill="white"/>
<circle cx="188.937" cy="22.2436" r="0.957654" transform="rotate(-91.056 188.937 22.2436)" fill="white"/>
<circle cx="193.64" cy="17.6098" r="0.957654" transform="rotate(-91.056 193.64 17.6098)" fill="white"/>
<circle cx="188.767" cy="12.978" r="0.957654" transform="rotate(-91.056 188.767 12.978)" fill="white"/>
<circle cx="188.681" cy="8.34615" r="0.957654" transform="rotate(-91.056 188.681 8.34615)" fill="white"/>
<circle cx="180.934" cy="3.71334" r="0.957654" transform="rotate(-91.056 180.934 3.71334)" fill="white"/>
<circle cx="189.999" cy="312.1" r="0.957654" transform="rotate(91.4397 189.999 312.1)" fill="white"/>
<circle cx="189.883" cy="316.732" r="0.957654" transform="rotate(91.4397 189.883 316.732)" fill="white"/>
<circle cx="189.766" cy="321.364" r="0.957654" transform="rotate(91.4397 189.766 321.364)" fill="white"/>
<circle cx="189.533" cy="330.628" r="0.957654" transform="rotate(91.4397 189.533 330.628)" fill="white"/>
<circle cx="189.417" cy="335.26" r="0.957654" transform="rotate(91.4397 189.417 335.26)" fill="white"/>
<circle cx="189.184" cy="344.523" r="0.957654" transform="rotate(91.4397 189.184 344.523)" fill="white"/>
<circle cx="185.518" cy="348.531" r="0.957654" transform="rotate(91.4397 185.518 348.531)" fill="white"/>
<circle cx="188.951" cy="353.788" r="0.957654" transform="rotate(91.4397 188.951 353.788)" fill="white"/>
<circle cx="188.835" cy="358.42" r="0.957654" transform="rotate(91.4397 188.835 358.42)" fill="white"/>
<circle cx="191.264" cy="362.895" r="0.957654" transform="rotate(91.4397 191.264 362.895)" fill="white"/>
<circle cx="188.602" cy="367.683" r="0.957654" transform="rotate(91.4397 188.602 367.683)" fill="white"/>
<circle cx="188.486" cy="372.316" r="0.957654" transform="rotate(91.4397 188.486 372.316)" fill="white"/>
<circle cx="64.8836" cy="189.722" r="0.957654" transform="rotate(-178.989 64.8836 189.722)" fill="white"/>
<circle cx="60.2513" cy="189.64" r="0.957654" transform="rotate(-178.989 60.2513 189.64)" fill="white"/>
<circle cx="55.2698" cy="157.95" r="0.957654" transform="rotate(-178.989 55.2698 157.95)" fill="white"/>
<circle cx="50.4818" cy="191.468" r="0.957654" transform="rotate(-178.989 50.4818 191.468)" fill="white"/>
<circle cx="45.6937" cy="179.019" r="0.957654" transform="rotate(-178.989 45.6937 179.019)" fill="white"/>
<circle cx="41.7205" cy="189.314" r="0.957654" transform="rotate(-178.989 41.7205 189.314)" fill="white"/>
<circle cx="36.117" cy="194.341" r="0.957654" transform="rotate(-178.989 36.117 194.341)" fill="white"/>
<circle cx="32.4549" cy="189.15" r="0.957654" transform="rotate(-178.989 32.4549 189.15)" fill="white"/>
<circle cx="27.8221" cy="189.068" r="0.957654" transform="rotate(-178.989 27.8221 189.068)" fill="white"/>
<circle cx="22.7098" cy="177.104" r="0.957654" transform="rotate(-178.989 22.7098 177.104)" fill="white"/>
<circle cx="18.5565" cy="188.905" r="0.957654" transform="rotate(-178.989 18.5565 188.905)" fill="white"/>
<circle cx="14.0911" cy="199.13" r="0.957654" transform="rotate(-178.989 14.0911 199.13)" fill="white"/>
<circle cx="9.29133" cy="188.74" r="0.957654" transform="rotate(-178.989 9.29133 188.74)" fill="white"/>
<circle cx="5.47199" cy="182.85" r="0.957654" transform="rotate(-178.989 5.47199 182.85)" fill="white"/>
</svg>
