<svg width="619" height="618" viewBox="0 0 619 618" fill="none" xmlns="http://www.w3.org/2000/svg">
<g filter="url(#filter0_g_161_1468)">
<path d="M312 42.9639C458.634 42.9639 577.5 161.611 577.5 307.964C577.5 454.317 458.634 572.964 312 572.964C165.366 572.964 46.5 454.317 46.5 307.964C46.5 161.611 165.366 42.9639 312 42.9639Z" stroke="white" stroke-width="3"/>
</g>
<g filter="url(#filter1_g_161_1468)">
<circle cx="309.707" cy="309.171" r="266.228" stroke="white" stroke-width="0.957654"/>
</g>
<circle cx="581.136" cy="308.743" r="0.73447" transform="rotate(90 581.136 308.743)" fill="white"/>
<circle cx="611.257" cy="313.893" r="0.73447" transform="rotate(90.6635 611.257 313.893)" fill="white"/>
<circle cx="581.062" cy="315.047" r="0.73447" transform="rotate(91.3269 581.062 315.047)" fill="white"/>
<circle cx="580.621" cy="325.448" r="0.73447" transform="rotate(93.537 580.621 325.448)" fill="white"/>
<circle cx="580.41" cy="328.568" r="0.73447" transform="rotate(94.1994 580.41 328.568)" fill="white"/>
<circle cx="554.019" cy="335.244" r="0.73447" transform="rotate(94.8615 554.019 335.244)" fill="white"/>
<circle cx="579.878" cy="334.797" r="0.73447" transform="rotate(95.5232 579.878 334.797)" fill="white"/>
<circle cx="579.458" cy="338.819" r="0.73447" transform="rotate(96.4049 579.458 338.819)" fill="white"/>
<circle cx="579.092" cy="341.91" r="0.73447" transform="rotate(97.0655 579.092 341.91)" fill="white"/>
<circle cx="578.691" cy="344.998" r="0.73447" transform="rotate(97.7257 578.691 344.998)" fill="white"/>
<circle cx="547.449" cy="347.769" r="0.73447" transform="rotate(98.3853 547.449 347.769)" fill="white"/>
<circle cx="577.643" cy="352.01" r="0.73447" transform="rotate(99.2639 577.643 352.01)" fill="white"/>
<circle cx="577.125" cy="355.072" r="0.73447" transform="rotate(99.9221 577.125 355.072)" fill="white"/>
<circle cx="575.819" cy="361.984" r="0.73447" transform="rotate(101.455 575.819 361.984)" fill="white"/>
<circle cx="604.042" cy="369.842" r="0.73447" transform="rotate(102.111 604.042 369.842)" fill="white"/>
<circle cx="574.515" cy="368.053" r="0.73447" transform="rotate(102.767 574.515 368.053)" fill="white"/>
<circle cx="572.093" cy="377.843" r="0.73447" transform="rotate(104.945 572.093 377.843)" fill="white"/>
<circle cx="571.272" cy="380.842" r="0.73447" transform="rotate(105.597 571.272 380.842)" fill="white"/>
<circle cx="538.714" cy="377.962" r="0.73447" transform="rotate(106.465 538.714 377.962)" fill="white"/>
<circle cx="556.354" cy="387.522" r="0.73447" transform="rotate(107.98 556.354 387.522)" fill="white"/>
<circle cx="566.173" cy="397.021" r="0.73447" transform="rotate(109.276 566.173 397.021)" fill="white"/>
<circle cx="557.322" cy="418.985" r="0.73447" transform="rotate(114.422 557.322 418.985)" fill="white"/>
<circle cx="554.415" cy="425.161" r="0.73447" transform="rotate(115.913 554.415 425.161)" fill="white"/>
<circle cx="553.028" cy="427.972" r="0.73447" transform="rotate(116.551 553.028 427.972)" fill="white"/>
<circle cx="551.359" cy="431.247" r="0.73447" transform="rotate(117.4 551.359 431.247)" fill="white"/>
<circle cx="548.4" cy="436.792" r="0.73447" transform="rotate(118.671 548.4 436.792)" fill="white"/>
<circle cx="546.62" cy="439.984" r="0.73447" transform="rotate(119.517 546.62 439.984)" fill="white"/>
<circle cx="552.015" cy="446.326" r="0.73447" transform="rotate(120.15 552.015 446.326)" fill="white"/>
<circle cx="552.756" cy="454.412" r="0.73447" transform="rotate(121.626 552.756 454.412)" fill="white"/>
<circle cx="537.922" cy="454.267" r="0.73447" transform="rotate(123.098 537.922 454.267)" fill="white"/>
<circle cx="536.173" cy="456.91" r="0.73447" transform="rotate(123.728 536.173 456.91)" fill="white"/>
<circle cx="532.33" cy="462.493" r="0.73447" transform="rotate(125.195 532.33 462.493)" fill="white"/>
<circle cx="528.351" cy="467.97" r="0.73447" transform="rotate(126.66 528.351 467.97)" fill="white"/>
<circle cx="526.429" cy="470.515" r="0.73447" transform="rotate(127.288 526.429 470.515)" fill="white"/>
<circle cx="524.239" cy="473.34" r="0.73447" transform="rotate(128.123 524.239 473.34)" fill="white"/>
<circle cx="519.998" cy="478.597" r="0.73447" transform="rotate(129.584 519.998 478.597)" fill="white"/>
<circle cx="515.63" cy="483.741" r="0.73447" transform="rotate(131.043 515.63 483.741)" fill="white"/>
<circle cx="481.543" cy="461.805" r="0.73447" transform="rotate(131.668 481.543 461.805)" fill="white"/>
<circle cx="515.328" cy="495.592" r="0.73447" transform="rotate(132.293 515.328 495.592)" fill="white"/>
<circle cx="508.951" cy="491.128" r="0.73447" transform="rotate(133.126 508.951 491.128)" fill="white"/>
<circle cx="504.273" cy="495.988" r="0.73447" transform="rotate(134.584 504.273 495.988)" fill="white"/>
<circle cx="499.479" cy="500.726" r="0.73447" transform="rotate(136.041 499.479 500.726)" fill="white"/>
<circle cx="497.135" cy="502.956" r="0.73447" transform="rotate(136.665 497.135 502.956)" fill="white"/>
<circle cx="481.543" cy="491.919" r="0.73447" transform="rotate(138.123 481.543 491.919)" fill="white"/>
<circle cx="487.086" cy="511.942" r="0.73447" transform="rotate(139.582 487.086 511.942)" fill="white"/>
<circle cx="467.585" cy="480.9" r="0.73447" transform="rotate(140.207 467.585 480.9)" fill="white"/>
<circle cx="481.9" cy="516.239" r="0.73447" transform="rotate(141.042 481.9 516.239)" fill="white"/>
<circle cx="476.61" cy="520.402" r="0.73447" transform="rotate(142.503 476.61 520.402)" fill="white"/>
<circle cx="469.047" cy="513.943" r="0.73447" transform="rotate(143.13 469.047 513.943)" fill="white"/>
<circle cx="471.372" cy="524.319" r="0.73447" transform="rotate(143.758 471.372 524.319)" fill="white"/>
<circle cx="468.562" cy="526.34" r="0.73447" transform="rotate(144.595 468.562 526.34)" fill="white"/>
<circle cx="460.286" cy="531.978" r="0.73447" transform="rotate(146.692 460.286 531.978)" fill="white"/>
<circle cx="457.392" cy="533.846" r="0.73447" transform="rotate(147.533 457.392 533.846)" fill="white"/>
<circle cx="456.541" cy="543.303" r="0.73447" transform="rotate(148.796 456.541 543.303)" fill="white"/>
<circle cx="445.979" cy="540.709" r="0.73447" transform="rotate(150.272 445.979 540.709)" fill="white"/>
<circle cx="440.085" cy="543.958" r="0.73447" transform="rotate(151.752 440.085 543.958)" fill="white"/>
<circle cx="434.113" cy="547.056" r="0.73447" transform="rotate(153.237 434.113 547.056)" fill="white"/>
<circle cx="430.803" cy="556.492" r="0.73447" transform="rotate(154.725 430.803 556.492)" fill="white"/>
<circle cx="419.051" cy="533.722" r="0.73447" transform="rotate(155.365 419.051 533.722)" fill="white"/>
<circle cx="422.03" cy="552.756" r="0.73447" transform="rotate(156.005 422.03 552.756)" fill="white"/>
<circle cx="403.612" cy="521.956" r="0.73447" transform="rotate(157.501 403.612 521.956)" fill="white"/>
<circle cx="409.59" cy="557.87" r="0.73447" transform="rotate(159.003 409.59 557.87)" fill="white"/>
<circle cx="406.471" cy="559.039" r="0.73447" transform="rotate(159.648 406.471 559.039)" fill="white"/>
<circle cx="392.566" cy="540.288" r="0.73447" transform="rotate(161.156 392.566 540.288)" fill="white"/>
<circle cx="396.967" cy="562.328" r="0.73447" transform="rotate(161.804 396.967 562.328)" fill="white"/>
<circle cx="388.143" cy="553.494" r="0.73447" transform="rotate(163.318 388.143 553.494)" fill="white"/>
<circle cx="387.304" cy="565.265" r="0.73447" transform="rotate(164.186 387.304 565.265)" fill="white"/>
<circle cx="384.085" cy="566.154" r="0.73447" transform="rotate(164.837 384.085 566.154)" fill="white"/>
<circle cx="379.299" cy="575.496" r="0.73447" transform="rotate(166.361 379.299 575.496)" fill="white"/>
<circle cx="374.329" cy="568.587" r="0.73447" transform="rotate(167.015 374.329 568.587)" fill="white"/>
<circle cx="362.393" cy="528.477" r="0.73447" transform="rotate(167.67 362.393 528.477)" fill="white"/>
<circle cx="367.79" cy="569.999" r="0.73447" transform="rotate(168.326 367.79 569.999)" fill="white"/>
<circle cx="344.612" cy="573.643" r="0.73447" transform="rotate(173.375 344.612 573.643)" fill="white"/>
<circle cx="341.275" cy="573.997" r="0.73447" transform="rotate(174.256 341.275 573.997)" fill="white"/>
<circle cx="337.94" cy="574.308" r="0.73447" transform="rotate(174.918 337.94 574.308)" fill="white"/>
<circle cx="330.717" cy="560.699" r="0.73447" transform="rotate(176.242 330.717 560.699)" fill="white"/>
<circle cx="327.909" cy="574.993" r="0.73447" transform="rotate(177.126 327.909 574.993)" fill="white"/>
<circle cx="324.822" cy="581.246" r="0.73447" transform="rotate(177.789 324.822 581.246)" fill="white"/>
<circle cx="321.212" cy="575.24" r="0.73447" transform="rotate(178.452 321.212 575.24)" fill="white"/>
<circle cx="317.862" cy="575.303" r="0.73447" transform="rotate(179.115 317.862 575.303)" fill="white"/>
<circle cx="313.46" cy="575.322" r="0.73447" transform="rotate(-179.779 313.46 575.322)" fill="white"/>
<circle cx="310.109" cy="575.288" r="0.73447" transform="rotate(-179.115 310.109 575.288)" fill="white"/>
<circle cx="306.759" cy="575.213" r="0.73447" transform="rotate(-178.452 306.759 575.213)" fill="white"/>
<circle cx="296.719" cy="574.74" r="0.73447" transform="rotate(-176.242 296.719 574.74)" fill="white"/>
<circle cx="293.268" cy="582.008" r="0.73447" transform="rotate(-175.58 293.268 582.008)" fill="white"/>
<circle cx="286.706" cy="573.891" r="0.73447" transform="rotate(-174.256 286.706 573.891)" fill="white"/>
<circle cx="280.078" cy="559.998" r="0.73447" transform="rotate(-172.714 280.078 559.998)" fill="white"/>
<circle cx="273.421" cy="572.177" r="0.73447" transform="rotate(-171.395 273.421 572.177)" fill="white"/>
<circle cx="266.809" cy="571.068" r="0.73447" transform="rotate(-169.859 266.809 571.068)" fill="white"/>
<circle cx="256.954" cy="569.094" r="0.73447" transform="rotate(-167.67 256.954 569.094)" fill="white"/>
<circle cx="258.103" cy="543.165" r="0.73447" transform="rotate(-167.015 258.103 543.165)" fill="white"/>
<circle cx="247.095" cy="582.833" r="0.73447" transform="rotate(-166.143 247.095 582.833)" fill="white"/>
<circle cx="247.182" cy="566.749" r="0.73447" transform="rotate(-165.49 247.182 566.749)" fill="white"/>
<circle cx="234.322" cy="563.054" r="0.73447" transform="rotate(-162.669 234.322 563.054)" fill="white"/>
<circle cx="233.912" cy="549.084" r="0.73447" transform="rotate(-161.804 233.912 549.084)" fill="white"/>
<circle cx="227.948" cy="560.956" r="0.73447" transform="rotate(-161.156 227.948 560.956)" fill="white"/>
<circle cx="218.516" cy="557.519" r="0.73447" transform="rotate(-159.003 218.516 557.519)" fill="white"/>
<circle cx="229.532" cy="516.794" r="0.73447" transform="rotate(-158.359 229.532 516.794)" fill="white"/>
<circle cx="209.228" cy="553.729" r="0.73447" transform="rotate(-156.859 209.228 553.729)" fill="white"/>
<circle cx="203.842" cy="557.95" r="0.73447" transform="rotate(-156.005 203.842 557.95)" fill="white"/>
<circle cx="203.095" cy="550.997" r="0.73447" transform="rotate(-155.365 203.095 550.997)" fill="white"/>
<circle cx="197.03" cy="548.11" r="0.73447" transform="rotate(-153.874 197.03 548.11)" fill="white"/>
<circle cx="191.037" cy="545.07" r="0.73447" transform="rotate(-152.388 191.037 545.07)" fill="white"/>
<circle cx="188.122" cy="543.52" r="0.73447" transform="rotate(-151.752 188.122 543.52)" fill="white"/>
<circle cx="182.249" cy="540.256" r="0.73447" transform="rotate(-150.272 182.249 540.256)" fill="white"/>
<circle cx="179.402" cy="538.603" r="0.73447" transform="rotate(-149.639 179.402 538.603)" fill="white"/>
<circle cx="185.521" cy="503.635" r="0.73447" transform="rotate(-148.164 185.521 503.635)" fill="white"/>
<circle cx="170.754" cy="533.285" r="0.73447" transform="rotate(-147.322 170.754 533.285)" fill="white"/>
<circle cx="148.806" cy="548.446" r="0.73447" transform="rotate(-146.062 148.806 548.446)" fill="white"/>
<circle cx="162.437" cy="527.727" r="0.73447" transform="rotate(-145.224 162.437 527.727)" fill="white"/>
<circle cx="156.965" cy="523.818" r="0.73447" transform="rotate(-143.758 156.965 523.818)" fill="white"/>
<circle cx="154.344" cy="521.87" r="0.73447" transform="rotate(-143.13 154.344 521.87)" fill="white"/>
<circle cx="133.396" cy="527.895" r="0.73447" transform="rotate(-141.042 133.396 527.895)" fill="white"/>
<circle cx="143.808" cy="513.518" r="0.73447" transform="rotate(-140.207 143.808 513.518)" fill="white"/>
<circle cx="138.697" cy="509.144" r="0.73447" transform="rotate(-138.748 138.697 509.144)" fill="white"/>
<circle cx="136.274" cy="506.991" r="0.73447" transform="rotate(-138.123 136.274 506.991)" fill="white"/>
<circle cx="170.125" cy="475.753" r="0.73447" transform="rotate(-136.665 170.125 475.753)" fill="white"/>
<circle cx="128.999" cy="500.199" r="0.73447" transform="rotate(-136.041 128.999 500.199)" fill="white"/>
<circle cx="124.231" cy="495.461" r="0.73447" transform="rotate(-134.584 124.231 495.461)" fill="white"/>
<circle cx="141.48" cy="478.691" r="0.73447" transform="rotate(-133.751 141.48 478.691)" fill="white"/>
<circle cx="119.58" cy="490.603" r="0.73447" transform="rotate(-133.126 119.58 490.603)" fill="white"/>
<circle cx="126.789" cy="474.284" r="0.73447" transform="rotate(-132.293 126.789 474.284)" fill="white"/>
<circle cx="115.05" cy="485.626" r="0.73447" transform="rotate(-131.668 115.05 485.626)" fill="white"/>
<circle cx="110.642" cy="480.533" r="0.73447" transform="rotate(-130.21 110.642 480.533)" fill="white"/>
<circle cx="98.1399" cy="479.423" r="0.73447" transform="rotate(-128.75 98.1399 479.423)" fill="white"/>
<circle cx="113.562" cy="466.202" r="0.73447" transform="rotate(-128.123 113.562 466.202)" fill="white"/>
<circle cx="100.296" cy="467.466" r="0.73447" transform="rotate(-126.66 100.296 467.466)" fill="white"/>
<circle cx="96.3429" cy="461.998" r="0.73447" transform="rotate(-125.195 96.3429 461.998)" fill="white"/>
<circle cx="126.039" cy="442.686" r="0.73447" transform="rotate(-124.567 126.039 442.686)" fill="white"/>
<circle cx="96.6494" cy="441.941" r="0.73447" transform="rotate(-121.626 96.6494 441.941)" fill="white"/>
<circle cx="82.1469" cy="439.532" r="0.73447" transform="rotate(-119.517 82.1469 439.532)" fill="white"/>
<circle cx="75.7843" cy="427.552" r="0.73447" transform="rotate(-116.551 75.7843 427.552)" fill="white"/>
<circle cx="63.5687" cy="428.692" r="0.73447" transform="rotate(-115.913 63.5687 428.692)" fill="white"/>
<circle cx="72.8249" cy="421.423" r="0.73447" transform="rotate(-115.062 72.8249 421.423)" fill="white"/>
<circle cx="68.7878" cy="412.341" r="0.73447" transform="rotate(-112.927 68.7878 412.341)" fill="white"/>
<circle cx="87.7947" cy="406.651" r="0.73447" transform="rotate(-112.284 87.7947 406.651)" fill="white"/>
<circle cx="66.2093" cy="406.007" r="0.73447" transform="rotate(-111.427 66.2093 406.007)" fill="white"/>
<circle cx="65.0916" cy="403.108" r="0.73447" transform="rotate(-110.782 65.0916 403.108)" fill="white"/>
<circle cx="62.7565" cy="396.694" r="0.73447" transform="rotate(-109.276 62.7565 396.694)" fill="white"/>
<circle cx="94.3774" cy="389.731" r="0.73447" transform="rotate(-108.628 94.3774 389.731)" fill="white"/>
<circle cx="60.5706" cy="390.163" r="0.73447" transform="rotate(-107.764 60.5706 390.163)" fill="white"/>
<circle cx="48.0927" cy="387.515" r="0.73447" transform="rotate(-107.115 48.0927 387.515)" fill="white"/>
<circle cx="58.7501" cy="384.241" r="0.73447" transform="rotate(-106.465 58.7501 384.241)" fill="white"/>
<circle cx="56.8815" cy="377.581" r="0.73447" transform="rotate(-104.945 56.8815 377.581)" fill="white"/>
<circle cx="55.1797" cy="370.842" r="0.73447" transform="rotate(-103.421 55.1797 370.842)" fill="white"/>
<circle cx="54.4788" cy="367.825" r="0.73447" transform="rotate(-102.767 54.4788 367.825)" fill="white"/>
<circle cx="75.214" cy="358.817" r="0.73447" transform="rotate(-101.237 75.214 358.817)" fill="white"/>
<circle cx="52.4397" cy="357.941" r="0.73447" transform="rotate(-100.58 52.4397 357.941)" fill="white"/>
<circle cx="96.4934" cy="347.045" r="0.73447" transform="rotate(-99.2639 96.4934 347.045)" fill="white"/>
<circle cx="50.7694" cy="347.93" r="0.73447" transform="rotate(-98.3853 50.7694 347.93)" fill="white"/>
<circle cx="50.3346" cy="344.858" r="0.73447" transform="rotate(-97.7257 50.3346 344.858)" fill="white"/>
<circle cx="20.8192" cy="341.879" r="0.73447" transform="rotate(-97.0655 20.8192 341.879)" fill="white"/>
<circle cx="48.8756" cy="331.596" r="0.73447" transform="rotate(-94.8615 48.8756 331.596)" fill="white"/>
<circle cx="62.6509" cy="328.626" r="0.73447" transform="rotate(-94.1994 62.6509 328.626)" fill="white"/>
<circle cx="48.4207" cy="325.383" r="0.73447" transform="rotate(-93.537 48.4207 325.383)" fill="white"/>
<circle cx="36.9262" cy="321.997" r="0.73447" transform="rotate(-92.6533 36.9262 321.997)" fill="white"/>
<circle cx="48.0723" cy="318.156" r="0.73447" transform="rotate(-91.9902 48.0723 318.156)" fill="white"/>
<circle cx="57.4666" cy="311.69" r="0.73447" transform="rotate(-90.6635 57.4666 311.69)" fill="white"/>
<circle cx="47.9179" cy="306.642" r="0.73447" transform="rotate(-89.5577 47.9179 306.642)" fill="white"/>
<circle cx="47.9604" cy="303.501" r="0.73447" transform="rotate(-88.8942 47.9604 303.501)" fill="white"/>
<circle cx="48.038" cy="300.374" r="0.73447" transform="rotate(-88.2309 48.038 300.374)" fill="white"/>
<circle cx="48.3014" cy="294.162" r="0.73447" transform="rotate(-86.9048 48.3014 294.162)" fill="white"/>
<circle cx="48.56" cy="289.978" r="0.73447" transform="rotate(-86.0214 48.56 289.978)" fill="white"/>
<circle cx="101.583" cy="286.767" r="0.73447" transform="rotate(-85.3591 101.583 286.767)" fill="white"/>
<circle cx="49.3566" cy="280.802" r="0.73447" transform="rotate(-84.0359 49.3566 280.802)" fill="white"/>
<circle cx="49.8226" cy="276.641" r="0.73447" transform="rotate(-83.1546 49.8226 276.641)" fill="white"/>
<circle cx="72.2444" cy="272.851" r="0.73447" transform="rotate(-81.8345 72.2444 272.851)" fill="white"/>
<circle cx="72.2515" cy="267.717" r="0.73447" transform="rotate(-81.1753 72.2515 267.717)" fill="white"/>
<circle cx="51.7291" cy="263.522" r="0.73447" transform="rotate(-80.2972 51.7291 263.522)" fill="white"/>
<circle cx="52.8008" cy="257.646" r="0.73447" transform="rotate(-78.9823 52.8008 257.646)" fill="white"/>
<circle cx="54.2569" cy="250.652" r="0.73447" transform="rotate(-77.4517 54.2569 250.652)" fill="white"/>
<circle cx="95.0645" cy="258.213" r="0.73447" transform="rotate(-76.797 95.0645 258.213)" fill="white"/>
<circle cx="100.948" cy="248.673" r="0.73447" transform="rotate(-75.9252 100.948 248.673)" fill="white"/>
<circle cx="57.381" cy="238.057" r="0.73447" transform="rotate(-74.6201 57.381 238.057)" fill="white"/>
<circle cx="58.519" cy="234.033" r="0.73447" transform="rotate(-73.7518 58.519 234.033)" fill="white"/>
<circle cx="79.6736" cy="237.682" r="0.73447" transform="rotate(-73.1015 79.6736 237.682)" fill="white"/>
<circle cx="61.4874" cy="224.517" r="0.73447" transform="rotate(-71.5876 61.4874 224.517)" fill="white"/>
<circle cx="35.6235" cy="211.993" r="0.73447" transform="rotate(-70.9401 35.6235 211.993)" fill="white"/>
<circle cx="65.802" cy="212.52" r="0.73447" transform="rotate(-68.7881 65.802 212.52)" fill="white"/>
<circle cx="68.4201" cy="206.015" r="0.73447" transform="rotate(-67.2874 68.4201 206.015)" fill="white"/>
<circle cx="49.61" cy="193.663" r="0.73447" transform="rotate(-66.6456 49.61 193.663)" fill="white"/>
<circle cx="72.3643" cy="197.045" r="0.73447" transform="rotate(-65.1514 72.3643 197.045)" fill="white"/>
<circle cx="73.5454" cy="194.524" r="0.73447" transform="rotate(-64.5124 73.5454 194.524)" fill="white"/>
<circle cx="53.3046" cy="169.448" r="0.73447" transform="rotate(-63.0244 53.3046 169.448)" fill="white"/>
<circle cx="90.0324" cy="194.279" r="0.73447" transform="rotate(-62.1761 90.0324 194.279)" fill="white"/>
<circle cx="79.8414" cy="182.114" r="0.73447" transform="rotate(-61.5407 79.8414 182.114)" fill="white"/>
<circle cx="83.2257" cy="176.047" r="0.73447" transform="rotate(-60.0609 83.2257 176.047)" fill="white"/>
<circle cx="99.598" cy="178.283" r="0.73447" transform="rotate(-58.5849 99.598 178.283)" fill="white"/>
<circle cx="88.1905" cy="167.762" r="0.73447" transform="rotate(-57.9534 88.1905 167.762)" fill="white"/>
<circle cx="90.4521" cy="164.203" r="0.73447" transform="rotate(-57.1123 90.4521 164.203)" fill="white"/>
<circle cx="107.309" cy="165.948" r="0.73447" transform="rotate(-55.0141 107.309 165.948)" fill="white"/>
<circle cx="99.8548" cy="150.599" r="0.73447" transform="rotate(-53.5487 99.8548 150.599)" fill="white"/>
<circle cx="101.453" cy="148.455" r="0.73447" transform="rotate(-52.9214 101.453 148.455)" fill="white"/>
<circle cx="87.869" cy="126.158" r="0.73447" transform="rotate(-51.4592 87.869 126.158)" fill="white"/>
<circle cx="111.75" cy="135.628" r="0.73447" transform="rotate(-49.3734 111.75 135.628)" fill="white"/>
<circle cx="114.541" cy="132.415" r="0.73447" transform="rotate(-48.5398 114.541 132.415)" fill="white"/>
<circle cx="126.801" cy="140.852" r="0.73447" transform="rotate(-47.9149 126.801 140.852)" fill="white"/>
<circle cx="120.974" cy="125.38" r="0.73447" transform="rotate(-46.4572 120.974 125.38)" fill="white"/>
<circle cx="145.898" cy="142.323" r="0.73447" transform="rotate(-45.6245 145.898 142.323)" fill="white"/>
<circle cx="125.784" cy="120.434" r="0.73447" transform="rotate(-45 125.784 120.434)" fill="white"/>
<circle cx="106.972" cy="90.9102" r="0.73447" transform="rotate(-44.3755 106.972 90.9102)" fill="white"/>
<circle cx="142.212" cy="125.343" r="0.73447" transform="rotate(-43.5428 142.212 125.343)" fill="white"/>
<circle cx="132.622" cy="113.819" r="0.73447" transform="rotate(-42.9181 132.622 113.819)" fill="white"/>
<circle cx="135.789" cy="110.911" r="0.73447" transform="rotate(-42.0851 135.789 110.911)" fill="white"/>
<circle cx="159.117" cy="124.694" r="0.73447" transform="rotate(-41.4602 159.117 124.694)" fill="white"/>
<circle cx="145.161" cy="111.473" r="0.73447" transform="rotate(-40.6266 145.161 111.473)" fill="white"/>
<circle cx="144.953" cy="102.992" r="0.73447" transform="rotate(-39.3755 144.953 102.992)" fill="white"/>
<circle cx="159.802" cy="110" r="0.73447" transform="rotate(-38.5408 159.802 110)" fill="white"/>
<circle cx="150.346" cy="98.6584" r="0.73447" transform="rotate(-37.9144 150.346 98.6584)" fill="white"/>
<circle cx="153.787" cy="96.0118" r="0.73447" transform="rotate(-37.0786 153.787 96.0118)" fill="white"/>
<circle cx="155.859" cy="94.4586" r="0.73447" transform="rotate(-36.4513 155.859 94.4586)" fill="white"/>
<circle cx="153.227" cy="79.8769" r="0.73447" transform="rotate(-34.9859 153.227 79.8769)" fill="white"/>
<circle cx="163.612" cy="88.9179" r="0.73447" transform="rotate(-34.3571 163.612 88.9179)" fill="white"/>
<circle cx="167.237" cy="86.4714" r="0.73447" transform="rotate(-33.5178 167.237 86.4714)" fill="white"/>
<circle cx="173.099" cy="82.6894" r="0.73447" transform="rotate(-32.0466 173.099 82.6894)" fill="white"/>
<circle cx="164.231" cy="52.6883" r="0.73447" transform="rotate(-31.4151 164.231 52.6883)" fill="white"/>
<circle cx="179.073" cy="79.0513" r="0.73447" transform="rotate(-30.5721 179.073 79.0513)" fill="white"/>
<circle cx="181.309" cy="77.744" r="0.73447" transform="rotate(-29.9391 181.309 77.744)" fill="white"/>
<circle cx="192.131" cy="90.8713" r="0.73447" transform="rotate(-29.3054 192.131 90.8713)" fill="white"/>
<circle cx="187.432" cy="74.3128" r="0.73447" transform="rotate(-28.4593 187.432 74.3128)" fill="white"/>
<circle cx="189.716" cy="73.0855" r="0.73447" transform="rotate(-27.8239 189.716 73.0855)" fill="white"/>
<circle cx="196.526" cy="74.7003" r="0.73447" transform="rotate(-26.9756 196.526 74.7003)" fill="white"/>
<circle cx="198.317" cy="68.7178" r="0.73447" transform="rotate(-25.7005 198.317 68.7178)" fill="white"/>
<circle cx="202.365" cy="66.7988" r="0.73447" transform="rotate(-24.8486 202.365 66.7988)" fill="white"/>
<circle cx="203.119" cy="57.7911" r="0.73447" transform="rotate(-24.2088 203.119 57.7911)" fill="white"/>
<circle cx="200.176" cy="46.0345" r="0.73447" transform="rotate(-23.3544 200.176 46.0345)" fill="white"/>
<circle cx="213.672" cy="61.8622" r="0.73447" transform="rotate(-22.07 213.672 61.8622)" fill="white"/>
<circle cx="217.885" cy="60.1841" r="0.73447" transform="rotate(-21.2119 217.885 60.1841)" fill="white"/>
<circle cx="225.128" cy="69.5175" r="0.73447" transform="rotate(-20.5673 225.128 69.5175)" fill="white"/>
<circle cx="222.804" cy="58.3231" r="0.73447" transform="rotate(-19.9218 222.804 58.3231)" fill="white"/>
<circle cx="231.727" cy="68.7713" r="0.73447" transform="rotate(-19.0599 231.727 68.7713)" fill="white"/>
<circle cx="233.984" cy="54.5111" r="0.73447" transform="rotate(-17.5479 233.984 54.5111)" fill="white"/>
<circle cx="236.524" cy="53.7207" r="0.73447" transform="rotate(-16.8985 236.524 53.7207)" fill="white"/>
<circle cx="243.54" cy="51.6833" r="0.73447" transform="rotate(-15.3799 243.54 51.6833)" fill="white"/>
<circle cx="246.13" cy="50.9836" r="0.73447" transform="rotate(-14.7278 246.13 50.9836)" fill="white"/>
<circle cx="246.373" cy="40.818" r="0.73447" transform="rotate(-14.0748 246.373 40.818)" fill="white"/>
<circle cx="253.286" cy="49.1972" r="0.73447" transform="rotate(-13.203 253.286 49.1972)" fill="white"/>
<circle cx="255.927" cy="48.5891" r="0.73447" transform="rotate(-12.5483 255.927 48.5891)" fill="white"/>
<circle cx="253.697" cy="1.87008" r="0.73447" transform="rotate(-11.8928 253.697 1.87008)" fill="white"/>
<circle cx="263.222" cy="47.0615" r="0.73447" transform="rotate(-11.0177 263.222 47.0615)" fill="white"/>
<circle cx="265.916" cy="46.5504" r="0.73447" transform="rotate(-10.3605 265.916 46.5504)" fill="white"/>
<circle cx="273.505" cy="62.0748" r="0.73447" transform="rotate(-9.70275 273.505 62.0748)" fill="white"/>
<circle cx="271.348" cy="45.605" r="0.73447" transform="rotate(-9.04433 271.348 45.605)" fill="white"/>
<circle cx="276.097" cy="44.8786" r="0.73447" transform="rotate(-8.16548 276.097 44.8786)" fill="white"/>
<circle cx="278.859" cy="44.4936" r="0.73447" transform="rotate(-7.50568 278.859 44.4936)" fill="white"/>
<circle cx="281.637" cy="44.1363" r="0.73447" transform="rotate(-6.84535 281.637 44.1363)" fill="white"/>
<circle cx="286.471" cy="43.5887" r="0.73447" transform="rotate(-5.96414 286.471 43.5887)" fill="white"/>
<circle cx="288.146" cy="26.7718" r="0.73447" transform="rotate(-5.3027 288.146 26.7718)" fill="white"/>
<circle cx="292.122" cy="43.0574" r="0.73447" transform="rotate(-4.64085 292.122 43.0574)" fill="white"/>
<circle cx="296.21" cy="53.9317" r="0.73447" transform="rotate(-3.97863 296.21 53.9317)" fill="white"/>
<circle cx="297.836" cy="42.6405" r="0.73447" transform="rotate(-3.31609 297.836 42.6405)" fill="white"/>
<circle cx="302.798" cy="42.3833" r="0.73447" transform="rotate(-2.43225 302.798 42.3833)" fill="white"/>
<circle cx="305.704" cy="42.2725" r="0.73447" transform="rotate(-1.76911 305.704 42.2725)" fill="white"/>
<circle cx="311.599" cy="71.5239" r="0.73447" transform="rotate(-1.10579 311.599 71.5239)" fill="white"/>
<circle cx="317.669" cy="42.1492" r="0.73447" transform="rotate(0.663504 317.669 42.1492)" fill="white"/>
<circle cx="320.603" cy="42.1981" r="0.73447" transform="rotate(1.32691 320.603 42.1981)" fill="white"/>
<circle cx="323.361" cy="34.8113" r="0.73447" transform="rotate(1.99018 323.361 34.8113)" fill="white"/>
<circle cx="326.422" cy="42.3898" r="0.73447" transform="rotate(2.65325 326.422 42.3898)" fill="white"/>
<circle cx="329.253" cy="56.8617" r="0.73447" transform="rotate(3.31609 329.253 56.8617)" fill="white"/>
<circle cx="334.239" cy="42.8488" r="0.73447" transform="rotate(4.19941 334.239 42.8488)" fill="white"/>
<circle cx="337.084" cy="43.0714" r="0.73447" transform="rotate(4.86151 337.084 43.0714)" fill="white"/>
<circle cx="339.562" cy="17.2256" r="0.73447" transform="rotate(5.52323 339.562 17.2256)" fill="white"/>
<circle cx="342.507" cy="51.0193" r="0.73447" transform="rotate(6.18452 342.507 51.0193)" fill="white"/>
<circle cx="347.556" cy="44.1566" r="0.73447" transform="rotate(7.06552 347.556 44.1566)" fill="white"/>
<circle cx="350.331" cy="44.5135" r="0.73447" transform="rotate(7.72568 350.331 44.5135)" fill="white"/>
<circle cx="346.938" cy="66.4675" r="0.73447" transform="rotate(8.38529 346.938 66.4675)" fill="white"/>
<circle cx="362.37" cy="26.0786" r="0.73447" transform="rotate(9.04433 362.37 26.0786)" fill="white"/>
<circle cx="360.557" cy="46.0898" r="0.73447" transform="rotate(9.92209 360.557 46.0898)" fill="white"/>
<circle cx="365.957" cy="47.0852" r="0.73447" transform="rotate(11.2366 365.957 47.0852)" fill="white"/>
<circle cx="370.592" cy="48.0368" r="0.73447" transform="rotate(12.1114 370.592 48.0368)" fill="white"/>
<circle cx="366.08" cy="67.9816" r="0.73447" transform="rotate(12.7666 366.08 67.9816)" fill="white"/>
<circle cx="375.889" cy="49.2247" r="0.73447" transform="rotate(13.4211 375.889 49.2247)" fill="white"/>
<circle cx="380.437" cy="50.3413" r="0.73447" transform="rotate(14.2926 380.437 50.3413)" fill="white"/>
<circle cx="382.993" cy="57.7189" r="0.73447" transform="rotate(14.9452 382.993 57.7189)" fill="white"/>
<circle cx="381.53" cy="68.7423" r="0.73447" transform="rotate(15.5971 381.53 68.7423)" fill="white"/>
<circle cx="390.092" cy="52.9921" r="0.73447" transform="rotate(16.465 390.092 52.9921)" fill="white"/>
<circle cx="395.187" cy="54.5485" r="0.73447" transform="rotate(17.7642 395.187 54.5485)" fill="white"/>
<circle cx="400.652" cy="48.2031" r="0.73447" transform="rotate(18.6284 400.652 48.2031)" fill="white"/>
<circle cx="394.047" cy="74.6486" r="0.73447" transform="rotate(19.2755 394.047 74.6486)" fill="white"/>
<circle cx="404.555" cy="57.7118" r="0.73447" transform="rotate(19.9218 404.555 57.7118)" fill="white"/>
<circle cx="408.834" cy="59.291" r="0.73447" transform="rotate(20.7822 408.834 59.291)" fill="white"/>
<circle cx="411.29" cy="60.2333" r="0.73447" transform="rotate(21.4265 411.29 60.2333)" fill="white"/>
<circle cx="417.572" cy="53.3717" r="0.73447" transform="rotate(22.2843 417.572 53.3717)" fill="white"/>
<circle cx="417.921" cy="62.9211" r="0.73447" transform="rotate(22.9266 417.921 62.9211)" fill="white"/>
<circle cx="424.447" cy="65.7742" r="0.73447" transform="rotate(24.4221 424.447 65.7742)" fill="white"/>
<circle cx="426.818" cy="66.8612" r="0.73447" transform="rotate(25.0617 426.818 66.8612)" fill="white"/>
<circle cx="430.866" cy="68.7868" r="0.73447" transform="rotate(25.9132 430.866 68.7868)" fill="white"/>
<circle cx="433.201" cy="69.9345" r="0.73447" transform="rotate(26.5509 433.201 69.9345)" fill="white"/>
<circle cx="441.106" cy="57.8087" r="0.73447" transform="rotate(27.1878 441.106 57.8087)" fill="white"/>
<circle cx="447.734" cy="84.2686" r="0.73447" transform="rotate(30.783 447.734 84.2686)" fill="white"/>
<circle cx="442.599" cy="93.0878" r="0.73447" transform="rotate(32.257 442.599 93.0878)" fill="white"/>
<circle cx="459.813" cy="85.1599" r="0.73447" transform="rotate(33.0978 459.813 85.1599)" fill="white"/>
<circle cx="442.604" cy="113.659" r="0.73447" transform="rotate(33.7277 442.604 113.659)" fill="white"/>
<circle cx="465.604" cy="89.0396" r="0.73447" transform="rotate(34.5667 465.604 89.0396)" fill="white"/>
<circle cx="461.706" cy="97.5055" r="0.73447" transform="rotate(35.1954 461.706 97.5055)" fill="white"/>
<circle cx="478.6" cy="80.6148" r="0.73447" transform="rotate(35.8236 478.6 80.6148)" fill="white"/>
<circle cx="473.368" cy="94.5951" r="0.73447" transform="rotate(36.6605 473.368 94.5951)" fill="white"/>
<circle cx="475.446" cy="96.1528" r="0.73447" transform="rotate(37.2876 475.446 96.1528)" fill="white"/>
<circle cx="484.287" cy="103.156" r="0.73447" transform="rotate(39.5841 484.287 103.156)" fill="white"/>
<circle cx="486.285" cy="104.823" r="0.73447" transform="rotate(40.2097 486.285 104.823)" fill="white"/>
<circle cx="486.69" cy="115.88" r="0.73447" transform="rotate(40.835 486.69 115.88)" fill="white"/>
<circle cx="477.877" cy="128.367" r="0.73447" transform="rotate(41.6685 477.877 128.367)" fill="white"/>
<circle cx="509.46" cy="92.3779" r="0.73447" transform="rotate(42.2934 509.46 92.3779)" fill="white"/>
<circle cx="496.636" cy="114.019" r="0.73447" transform="rotate(43.1263 496.636 114.019)" fill="white"/>
<circle cx="498.539" cy="115.816" r="0.73447" transform="rotate(43.751 498.539 115.816)" fill="white"/>
<circle cx="501.623" cy="118.807" r="0.73447" transform="rotate(44.5837 501.623 118.807)" fill="white"/>
<circle cx="505.332" cy="122.53" r="0.73447" transform="rotate(45.8327 505.332 122.53)" fill="white"/>
<circle cx="508.299" cy="125.622" r="0.73447" transform="rotate(46.6654 508.299 125.622)" fill="white"/>
<circle cx="504.32" cy="132.039" r="0.73447" transform="rotate(47.2901 504.32 132.039)" fill="white"/>
<circle cx="488.895" cy="151.135" r="0.73447" transform="rotate(48.1232 488.895 151.135)" fill="white"/>
<circle cx="517.533" cy="135.909" r="0.73447" transform="rotate(49.5818 517.533 135.909)" fill="white"/>
<circle cx="519.246" cy="137.938" r="0.73447" transform="rotate(50.2073 519.246 137.938)" fill="white"/>
<circle cx="543.976" cy="121.752" r="0.73447" transform="rotate(51.0418 543.976 121.752)" fill="white"/>
<circle cx="525.264" cy="145.41" r="0.73447" transform="rotate(52.2945 525.264 145.41)" fill="white"/>
<circle cx="511.654" cy="159.94" r="0.73447" transform="rotate(53.1304 511.654 159.94)" fill="white"/>
<circle cx="529.443" cy="150.941" r="0.73447" transform="rotate(53.7579 529.443 150.941)" fill="white"/>
<circle cx="531.927" cy="154.377" r="0.73447" transform="rotate(54.5952 531.927 154.377)" fill="white"/>
<circle cx="505.773" cy="176.092" r="0.73447" transform="rotate(55.2237 505.773 176.092)" fill="white"/>
<circle cx="545.431" cy="153.321" r="0.73447" transform="rotate(56.0625 545.431 153.321)" fill="white"/>
<circle cx="538.853" cy="164.604" r="0.73447" transform="rotate(57.3225 538.853 164.604)" fill="white"/>
<circle cx="562.313" cy="157.717" r="0.73447" transform="rotate(58.7955 562.313 157.717)" fill="white"/>
<circle cx="544.703" cy="174.126" r="0.73447" transform="rotate(59.6388 544.703 174.126)" fill="white"/>
<circle cx="572.589" cy="162.117" r="0.73447" transform="rotate(60.2721 572.589 162.117)" fill="white"/>
<circle cx="549.461" cy="182.592" r="0.73447" transform="rotate(61.7524 549.461 182.592)" fill="white"/>
<circle cx="557.884" cy="184.87" r="0.73447" transform="rotate(63.2367 557.884 184.87)" fill="white"/>
<circle cx="556.932" cy="197.592" r="0.73447" transform="rotate(65.3646 556.932 197.592)" fill="white"/>
<circle cx="559.773" cy="204.001" r="0.73447" transform="rotate(66.8594 559.773 204.001)" fill="white"/>
<circle cx="545.372" cy="212.754" r="0.73447" transform="rotate(67.5015 545.372 212.754)" fill="white"/>
<circle cx="563.481" cy="213.138" r="0.73447" transform="rotate(69.0029 563.481 213.138)" fill="white"/>
<circle cx="565.921" cy="219.75" r="0.73447" transform="rotate(70.509 565.921 219.75)" fill="white"/>
<circle cx="566.864" cy="222.461" r="0.73447" transform="rotate(71.1558 566.864 222.461)" fill="white"/>
<circle cx="567.782" cy="225.193" r="0.73447" transform="rotate(71.8036 567.782 225.193)" fill="white"/>
<circle cx="536.518" cy="240.624" r="0.73447" transform="rotate(72.6685 536.518 240.624)" fill="white"/>
<circle cx="569.913" cy="231.96" r="0.73447" transform="rotate(73.3182 569.913 231.96)" fill="white"/>
<circle cx="571.865" cy="238.794" r="0.73447" transform="rotate(74.8374 571.865 238.794)" fill="white"/>
<circle cx="588.635" cy="243.53" r="0.73447" transform="rotate(76.143 588.635 243.53)" fill="white"/>
<circle cx="574.315" cy="248.56" r="0.73447" transform="rotate(77.0152 574.315 248.56)" fill="white"/>
<circle cx="550.428" cy="256.737" r="0.73447" transform="rotate(77.6702 550.428 256.737)" fill="white"/>
<circle cx="576.403" cy="258.474" r="0.73447" transform="rotate(79.2013 576.403 258.474)" fill="white"/>
<circle cx="576.948" cy="261.418" r="0.73447" transform="rotate(79.8586 576.948 261.418)" fill="white"/>
<circle cx="577.462" cy="264.38" r="0.73447" transform="rotate(80.5167 577.462 264.38)" fill="white"/>
<circle cx="595.195" cy="267.718" r="0.73447" transform="rotate(81.1753 595.195 267.718)" fill="white"/>
<circle cx="579.331" cy="277.558" r="0.73447" transform="rotate(83.3749 579.331 277.558)" fill="white"/>
<circle cx="579.784" cy="281.735" r="0.73447" transform="rotate(84.2563 579.784 281.735)" fill="white"/>
<circle cx="580.074" cy="284.792" r="0.73447" transform="rotate(84.9179 580.074 284.792)" fill="white"/>
<circle cx="551.077" cy="291.905" r="0.73447" transform="rotate(85.5798 551.077 291.905)" fill="white"/>
<circle cx="580.552" cy="290.955" r="0.73447" transform="rotate(86.2422 580.552 290.955)" fill="white"/>
<circle cx="580.933" cy="298.266" r="0.73447" transform="rotate(87.7888 580.933 298.266)" fill="white"/>
<circle cx="581.036" cy="301.393" r="0.73447" transform="rotate(88.452 581.036 301.393)" fill="white"/>
<defs>
<filter id="filter0_g_161_1468" x="15" y="11.4639" width="594" height="593" filterUnits="userSpaceOnUse" color-interpolation-filters="sRGB">
<feFlood flood-opacity="0" result="BackgroundImageFix"/>
<feBlend mode="normal" in="SourceGraphic" in2="BackgroundImageFix" result="shape"/>
<feTurbulence type="fractalNoise" baseFrequency="0.5 0.5" numOctaves="3" seed="2392" />
<feDisplacementMap in="shape" scale="60" xChannelSelector="R" yChannelSelector="G" result="displacedImage" width="100%" height="100%" />
<feMerge result="effect1_texture_161_1468">
<feMergeNode in="displacedImage"/>
</feMerge>
</filter>
<filter id="filter1_g_161_1468" x="0.959003" y="0.423359" width="617.495" height="617.495" filterUnits="userSpaceOnUse" color-interpolation-filters="sRGB">
<feFlood flood-opacity="0" result="BackgroundImageFix"/>
<feBlend mode="normal" in="SourceGraphic" in2="BackgroundImageFix" result="shape"/>
<feTurbulence type="fractalNoise" baseFrequency="0.69614589214324951 0.69614589214324951" numOctaves="3" seed="2392" />
<feDisplacementMap in="shape" scale="84.081993103027344" xChannelSelector="R" yChannelSelector="G" result="displacedImage" width="100%" height="100%" />
<feMerge result="effect1_texture_161_1468">
<feMergeNode in="displacedImage"/>
</feMerge>
</filter>
</defs>
</svg>
