<svg width="1380" height="827" viewBox="0 0 1380 827" fill="none" xmlns="http://www.w3.org/2000/svg">
<line x1="273.5" x2="273.5" y2="11" stroke="#575757"/>
<line x1="268" y1="5.5" x2="279" y2="5.5" stroke="#575757"/>
<line x1="552.5" x2="552.5" y2="11" stroke="#575757"/>
<line x1="547" y1="5.5" x2="558" y2="5.5" stroke="#575757"/>
<line x1="411.5" x2="411.5" y2="11" stroke="#575757"/>
<line x1="406" y1="5.5" x2="417" y2="5.5" stroke="#575757"/>
<line x1="968.5" x2="968.5" y2="11" stroke="#575757"/>
<line x1="963" y1="5.5" x2="974" y2="5.5" stroke="#575757"/>
<line x1="829.5" x2="829.5" y2="11" stroke="#575757"/>
<line x1="824" y1="5.5" x2="835" y2="5.5" stroke="#575757"/>
<line x1="691.5" x2="691.5" y2="11" stroke="#575757"/>
<line x1="686" y1="5.5" x2="697" y2="5.5" stroke="#575757"/>
<line x1="1107.5" x2="1107.5" y2="11" stroke="#575757"/>
<line x1="1102" y1="5.5" x2="1113" y2="5.5" stroke="#575757"/>
<line x1="1245.5" x2="1245.5" y2="11" stroke="#575757"/>
<line x1="1240" y1="5.5" x2="1251" y2="5.5" stroke="#575757"/>
<line x1="968.5" y1="139" x2="968.5" y2="150" stroke="#575757"/>
<line x1="963" y1="144.5" x2="974" y2="144.5" stroke="#575757"/>
<line x1="1107.5" y1="139" x2="1107.5" y2="150" stroke="#575757"/>
<line x1="1102" y1="144.5" x2="1113" y2="144.5" stroke="#575757"/>
<line x1="1245.5" y1="139" x2="1245.5" y2="150" stroke="#575757"/>
<line x1="1240" y1="144.5" x2="1251" y2="144.5" stroke="#575757"/>
<line x1="1107.5" y1="278" x2="1107.5" y2="289" stroke="#575757"/>
<line x1="1102" y1="283.5" x2="1113" y2="283.5" stroke="#575757"/>
<line x1="1245.5" y1="278" x2="1245.5" y2="289" stroke="#575757"/>
<line x1="1240" y1="283.5" x2="1251" y2="283.5" stroke="#575757"/>
<line x1="968.5" y1="417" x2="968.5" y2="428" stroke="#575757"/>
<line x1="963" y1="422.5" x2="974" y2="422.5" stroke="#575757"/>
<line x1="1107.5" y1="417" x2="1107.5" y2="428" stroke="#575757"/>
<line x1="1102" y1="422.5" x2="1113" y2="422.5" stroke="#575757"/>
<line x1="1245.5" y1="417" x2="1245.5" y2="428" stroke="#575757"/>
<line x1="1240" y1="422.5" x2="1251" y2="422.5" stroke="#575757"/>
<line x1="1107.5" y1="556" x2="1107.5" y2="567" stroke="#575757"/>
<line x1="1102" y1="561.5" x2="1113" y2="561.5" stroke="#575757"/>
<line x1="968.5" y1="686" x2="968.5" y2="697" stroke="#575757"/>
<line x1="963" y1="691.5" x2="974" y2="691.5" stroke="#575757"/>
<line x1="1107.5" y1="686" x2="1107.5" y2="697" stroke="#575757"/>
<line x1="1102" y1="691.5" x2="1113" y2="691.5" stroke="#575757"/>
<line x1="1245.5" y1="556" x2="1245.5" y2="567" stroke="#575757"/>
<line x1="1240" y1="561.5" x2="1251" y2="561.5" stroke="#575757"/>
<line x1="1245.5" y1="686" x2="1245.5" y2="697" stroke="#575757"/>
<line x1="1240" y1="691.5" x2="1251" y2="691.5" stroke="#575757"/>
<line x1="1374.5" y1="556" x2="1374.5" y2="567" stroke="#575757"/>
<line x1="1369" y1="561.5" x2="1380" y2="561.5" stroke="#575757"/>
<line x1="1374.5" y1="686" x2="1374.5" y2="697" stroke="#575757"/>
<line x1="1369" y1="691.5" x2="1380" y2="691.5" stroke="#575757"/>
<line x1="1245.5" y1="816" x2="1245.5" y2="827" stroke="#575757"/>
<line x1="1240" y1="821.5" x2="1251" y2="821.5" stroke="#575757"/>
<line x1="1374.5" y1="139" x2="1374.5" y2="150" stroke="#575757"/>
<line x1="1369" y1="144.5" x2="1380" y2="144.5" stroke="#575757"/>
<line x1="1374.5" y1="278" x2="1374.5" y2="289" stroke="#575757"/>
<line x1="1369" y1="283.5" x2="1380" y2="283.5" stroke="#575757"/>
<line x1="1374.5" y1="417" x2="1374.5" y2="428" stroke="#575757"/>
<line x1="1369" y1="422.5" x2="1380" y2="422.5" stroke="#575757"/>
<line x1="5.5" y1="139" x2="5.5" y2="150" stroke="#575757"/>
<line y1="144.5" x2="11" y2="144.5" stroke="#575757"/>
<line x1="5.5" y1="556" x2="5.5" y2="567" stroke="#575757"/>
<line y1="561.5" x2="11" y2="561.5" stroke="#575757"/>
<line x1="5.5" y1="686" x2="5.5" y2="697" stroke="#575757"/>
<line y1="691.5" x2="11" y2="691.5" stroke="#575757"/>
<line x1="1374.5" y1="816" x2="1374.5" y2="827" stroke="#575757"/>
<line x1="1369" y1="821.5" x2="1380" y2="821.5" stroke="#575757"/>
<line x1="5.5" y1="816" x2="5.5" y2="827" stroke="#575757"/>
<line y1="821.5" x2="11" y2="821.5" stroke="#575757"/>
<line x1="552.5" y1="139" x2="552.5" y2="150" stroke="#575757"/>
<line x1="547" y1="144.5" x2="558" y2="144.5" stroke="#575757"/>
<line x1="691.5" y1="139" x2="691.5" y2="150" stroke="#575757"/>
<line x1="686" y1="144.5" x2="697" y2="144.5" stroke="#575757"/>
<line x1="829.5" y1="139" x2="829.5" y2="150" stroke="#575757"/>
<line x1="824" y1="144.5" x2="835" y2="144.5" stroke="#575757"/>
<line x1="552.5" y1="278" x2="552.5" y2="289" stroke="#575757"/>
<line x1="547" y1="283.5" x2="558" y2="283.5" stroke="#575757"/>
<line x1="691.5" y1="278" x2="691.5" y2="289" stroke="#575757"/>
<line x1="686" y1="283.5" x2="697" y2="283.5" stroke="#575757"/>
<line x1="829.5" y1="278" x2="829.5" y2="289" stroke="#575757"/>
<line x1="824" y1="283.5" x2="835" y2="283.5" stroke="#575757"/>
<line x1="552.5" y1="417" x2="552.5" y2="428" stroke="#575757"/>
<line x1="547" y1="422.5" x2="558" y2="422.5" stroke="#575757"/>
<line x1="691.5" y1="417" x2="691.5" y2="428" stroke="#575757"/>
<line x1="686" y1="422.5" x2="697" y2="422.5" stroke="#575757"/>
<line x1="829.5" y1="417" x2="829.5" y2="428" stroke="#575757"/>
<line x1="824" y1="422.5" x2="835" y2="422.5" stroke="#575757"/>
<line x1="552.5" y1="556" x2="552.5" y2="567" stroke="#575757"/>
<line x1="547" y1="561.5" x2="558" y2="561.5" stroke="#575757"/>
<line x1="691.5" y1="556" x2="691.5" y2="567" stroke="#575757"/>
<line x1="686" y1="561.5" x2="697" y2="561.5" stroke="#575757"/>
<line x1="829.5" y1="556" x2="829.5" y2="567" stroke="#575757"/>
<line x1="824" y1="561.5" x2="835" y2="561.5" stroke="#575757"/>
<line x1="552.5" y1="686" x2="552.5" y2="697" stroke="#575757"/>
<line x1="547" y1="691.5" x2="558" y2="691.5" stroke="#575757"/>
<line x1="691.5" y1="686" x2="691.5" y2="697" stroke="#575757"/>
<line x1="686" y1="691.5" x2="697" y2="691.5" stroke="#575757"/>
<line x1="829.5" y1="686" x2="829.5" y2="697" stroke="#575757"/>
<line x1="824" y1="691.5" x2="835" y2="691.5" stroke="#575757"/>
<line x1="134.5" y1="139" x2="134.5" y2="150" stroke="#575757"/>
<line x1="129" y1="144.5" x2="140" y2="144.5" stroke="#575757"/>
<line x1="273.5" y1="139" x2="273.5" y2="150" stroke="#575757"/>
<line x1="268" y1="144.5" x2="279" y2="144.5" stroke="#575757"/>
<line x1="411.5" y1="139" x2="411.5" y2="150" stroke="#575757"/>
<line x1="406" y1="144.5" x2="417" y2="144.5" stroke="#575757"/>
<line x1="5.5" y1="278" x2="5.5" y2="289" stroke="#575757"/>
<line y1="283.5" x2="11" y2="283.5" stroke="#575757"/>
<line x1="134.5" y1="278" x2="134.5" y2="289" stroke="#575757"/>
<line x1="129" y1="283.5" x2="140" y2="283.5" stroke="#575757"/>
<line x1="134.5" y1="417" x2="134.5" y2="428" stroke="#575757"/>
<line x1="129" y1="422.5" x2="140" y2="422.5" stroke="#575757"/>
<line x1="273.5" y1="278" x2="273.5" y2="289" stroke="#575757"/>
<line x1="268" y1="283.5" x2="279" y2="283.5" stroke="#575757"/>
<line x1="411.5" y1="278" x2="411.5" y2="289" stroke="#575757"/>
<line x1="406" y1="283.5" x2="417" y2="283.5" stroke="#575757"/>
<line x1="968.5" y1="278" x2="968.5" y2="289" stroke="#575757"/>
<line x1="963" y1="283.5" x2="974" y2="283.5" stroke="#575757"/>
<line x1="968.5" y1="556" x2="968.5" y2="567" stroke="#575757"/>
<line x1="963" y1="561.5" x2="974" y2="561.5" stroke="#575757"/>
<line x1="411.5" y1="556" x2="411.5" y2="567" stroke="#575757"/>
<line x1="406" y1="561.5" x2="417" y2="561.5" stroke="#575757"/>
<line x1="552.5" y1="816" x2="552.5" y2="827" stroke="#575757"/>
<line x1="547" y1="821.5" x2="558" y2="821.5" stroke="#575757"/>
<line x1="829.5" y1="816" x2="829.5" y2="827" stroke="#575757"/>
<line x1="824" y1="821.5" x2="835" y2="821.5" stroke="#575757"/>
<line x1="273.5" y1="417" x2="273.5" y2="428" stroke="#575757"/>
<line x1="268" y1="422.5" x2="279" y2="422.5" stroke="#575757"/>
<line x1="411.5" y1="417" x2="411.5" y2="428" stroke="#575757"/>
<line x1="406" y1="422.5" x2="417" y2="422.5" stroke="#575757"/>
<line x1="134.5" y1="556" x2="134.5" y2="567" stroke="#575757"/>
<line x1="129" y1="561.5" x2="140" y2="561.5" stroke="#575757"/>
<line x1="273.5" y1="556" x2="273.5" y2="567" stroke="#575757"/>
<line x1="268" y1="561.5" x2="279" y2="561.5" stroke="#575757"/>
<line x1="134.5" y1="686" x2="134.5" y2="697" stroke="#575757"/>
<line x1="129" y1="691.5" x2="140" y2="691.5" stroke="#575757"/>
<line x1="1107.5" y1="816" x2="1107.5" y2="827" stroke="#575757"/>
<line x1="1102" y1="821.5" x2="1113" y2="821.5" stroke="#575757"/>
<line x1="134.5" y1="816" x2="134.5" y2="827" stroke="#575757"/>
<line x1="129" y1="821.5" x2="140" y2="821.5" stroke="#575757"/>
<line x1="273.5" y1="686" x2="273.5" y2="697" stroke="#575757"/>
<line x1="268" y1="691.5" x2="279" y2="691.5" stroke="#575757"/>
<line x1="273.5" y1="816" x2="273.5" y2="827" stroke="#575757"/>
<line x1="268" y1="821.5" x2="279" y2="821.5" stroke="#575757"/>
<line x1="411.5" y1="686" x2="411.5" y2="697" stroke="#575757"/>
<line x1="406" y1="691.5" x2="417" y2="691.5" stroke="#575757"/>
</svg>
