<svg width="95" height="186" viewBox="0 0 95 186" fill="none" xmlns="http://www.w3.org/2000/svg">
<path d="M7.08665 98.2202L8.38636 98.2202L8.38636 101.923L7.08665 101.923L7.08665 98.2202ZM9.18324 104.352L9.18324 102.763C9.72301 102.712 10.1321 102.54 10.4105 102.247C10.6889 101.952 10.8281 101.503 10.8281 100.901C10.8281 100.435 10.7116 100.057 10.4787 99.767C10.2429 99.4773 9.91619 99.2656 9.49858 99.1321C9.08097 98.9986 8.59517 98.9318 8.04119 98.9318L7.24858 98.9318C6.66619 98.9318 6.16761 99.0071 5.75284 99.1577C5.33807 99.3082 5.02131 99.5327 4.80256 99.831C4.58097 100.129 4.47017 100.499 4.47017 100.939C4.47017 101.357 4.53693 101.693 4.67045 101.949C4.80398 102.205 4.99716 102.396 5.25 102.524C5.5 102.652 5.79972 102.734 6.14915 102.771L6.14915 104.361C5.58097 104.304 5.07102 104.142 4.61932 103.875C4.16761 103.608 3.81108 103.232 3.54972 102.746C3.28551 102.26 3.15341 101.658 3.15341 100.939C3.15341 100.209 3.32102 99.5767 3.65625 99.0426C3.99148 98.5057 4.46591 98.0909 5.07954 97.7983C5.69318 97.5028 6.41477 97.3551 7.24432 97.3551L8.05398 97.3551C8.88352 97.3551 9.60369 97.5 10.2145 97.7898C10.8224 98.0767 11.2926 98.4844 11.625 99.0128C11.9545 99.5412 12.1193 100.17 12.1193 100.901C12.1193 101.608 11.9943 102.21 11.7443 102.707C11.4915 103.205 11.1449 103.591 10.7045 103.866C10.2614 104.142 9.75426 104.304 9.18324 104.352ZM12 95.854L3.27273 95.854L3.27273 92.5813C3.27273 91.9109 3.39773 91.3484 3.64773 90.8938C3.89773 90.4364 4.24148 90.0913 4.67898 89.8583C5.11364 89.6225 5.60795 89.5046 6.16193 89.5046C6.72159 89.5046 7.21875 89.6225 7.65341 89.8583C8.08807 90.0941 8.4304 90.4421 8.6804 90.9023C8.92756 91.3626 9.05114 91.9293 9.05114 92.6026L9.05114 94.7717L7.75142 94.7717L7.75142 92.8157C7.75142 92.4237 7.68324 92.1026 7.54687 91.8526C7.41051 91.6026 7.22301 91.418 6.98437 91.2987C6.74574 91.1765 6.47159 91.1154 6.16193 91.1154C5.85227 91.1154 5.57954 91.1765 5.34375 91.2987C5.10795 91.418 4.92472 91.604 4.79403 91.8569C4.66051 92.1069 4.59375 92.4293 4.59375 92.8242L4.59375 94.2731L12 94.2731L12 95.854ZM12 87.9833L12 89.6708L3.27273 86.5984L3.27273 84.6467L12 81.57L12 83.2575L5.0625 85.5884L5.0625 85.6566L12 87.9833ZM8.57812 87.9279L8.57812 83.3256L9.84801 83.3256L9.84801 87.9279L8.57812 87.9279Z" fill="white"/>
<path d="M6.99999 -1.19209e-06L7 73" stroke="white"/>
<path d="M6.99999 113L7 186" stroke="white"/>
<path d="M95 93L22 93" stroke="white"/>
</svg>
