<svg width="618" height="60" viewBox="0 0 618 60" fill="none" xmlns="http://www.w3.org/2000/svg">
<path d="M602.16 48.4688V59.1992H599.862V48.4688H602.16Z" fill="white" stroke="white" stroke-width="0.4"/>
<rect x="599.8" y="41.8244" width="12.9309" height="2.32782" fill="white" stroke="white" stroke-width="0.4"/>
<rect x="601.743" y="48.4689" width="11.003" height="2.32782" fill="white" stroke="white" stroke-width="0.4"/>
<mask id="path-4-outside-1_112_56" maskUnits="userSpaceOnUse" x="611.531" y="41.0244" width="6" height="10" fill="black">
<rect fill="white" x="611.531" y="41.0244" width="6" height="10"/>
<path d="M612.666 42.0244C614.986 42.0244 616.867 43.9418 616.867 46.3076C616.867 48.6735 614.986 50.5918 612.666 50.5918C612.621 50.5918 612.576 50.5893 612.531 50.5879V48.6504C612.576 48.653 612.621 48.6582 612.666 48.6582C613.938 48.6582 614.97 47.6059 614.97 46.3086C614.97 45.0112 613.938 43.959 612.666 43.959C612.621 43.959 612.576 43.9622 612.531 43.9648V42.0273C612.576 42.0259 612.621 42.0244 612.666 42.0244Z"/>
</mask>
<path d="M612.666 42.0244C614.986 42.0244 616.867 43.9418 616.867 46.3076C616.867 48.6735 614.986 50.5918 612.666 50.5918C612.621 50.5918 612.576 50.5893 612.531 50.5879V48.6504C612.576 48.653 612.621 48.6582 612.666 48.6582C613.938 48.6582 614.97 47.6059 614.97 46.3086C614.97 45.0112 613.938 43.959 612.666 43.959C612.621 43.959 612.576 43.9622 612.531 43.9648V42.0273C612.576 42.0259 612.621 42.0244 612.666 42.0244Z" fill="white"/>
<path d="M612.666 42.0244L612.666 41.6244L612.666 41.6244L612.666 42.0244ZM616.867 46.3076L617.267 46.3076L617.267 46.3076L616.867 46.3076ZM612.666 50.5918L612.666 50.9918H612.666V50.5918ZM612.531 50.5879H612.131V50.9752L612.518 50.9877L612.531 50.5879ZM612.531 48.6504L612.555 48.2511L612.131 48.2261V48.6504H612.531ZM612.666 48.6582L612.666 49.0582H612.666V48.6582ZM614.97 46.3086L615.37 46.3086L615.37 46.3086L614.97 46.3086ZM612.666 43.959L612.666 43.559L612.666 43.559L612.666 43.959ZM612.531 43.9648H612.131V44.3892L612.555 44.3641L612.531 43.9648ZM612.531 42.0273L612.518 41.6276L612.131 41.64V42.0273H612.531ZM612.666 42.0244V42.4244C614.758 42.4244 616.467 44.1554 616.467 46.3077L616.867 46.3076L617.267 46.3076C617.267 43.7283 615.214 41.6244 612.666 41.6244V42.0244ZM616.867 46.3076L616.467 46.3076C616.467 48.46 614.758 50.1918 612.666 50.1918V50.5918V50.9918C615.215 50.9918 617.267 48.8869 617.267 46.3076L616.867 46.3076ZM612.666 50.5918L612.666 50.1918C612.629 50.1918 612.601 50.1899 612.544 50.1881L612.531 50.5879L612.518 50.9877C612.551 50.9887 612.612 50.9918 612.666 50.9918L612.666 50.5918ZM612.531 50.5879H612.931V48.6504H612.531H612.131V50.5879H612.531ZM612.531 48.6504L612.508 49.0497C612.521 49.0505 612.606 49.0582 612.666 49.0582L612.666 48.6582L612.666 48.2582C612.635 48.2582 612.631 48.2556 612.555 48.2511L612.531 48.6504ZM612.666 48.6582V49.0582C614.167 49.0582 615.37 47.8193 615.37 46.3086L614.97 46.3086L614.57 46.3085C614.57 47.3926 613.71 48.2582 612.666 48.2582V48.6582ZM614.97 46.3086L615.37 46.3086C615.37 44.7978 614.167 43.559 612.666 43.559V43.959V44.359C613.71 44.359 614.57 45.2246 614.57 46.3086L614.97 46.3086ZM612.666 43.959L612.666 43.559C612.606 43.559 612.545 43.5633 612.508 43.5655L612.531 43.9648L612.555 44.3641C612.607 44.3611 612.636 44.359 612.666 44.359L612.666 43.959ZM612.531 43.9648H612.931V42.0273H612.531H612.131V43.9648H612.531ZM612.531 42.0273L612.544 42.4271C612.59 42.4256 612.629 42.4244 612.666 42.4244L612.666 42.0244L612.666 41.6244C612.613 41.6244 612.562 41.6262 612.518 41.6276L612.531 42.0273Z" fill="white" mask="url(#path-4-outside-1_112_56)"/>
<mask id="path-6-outside-2_112_56" maskUnits="userSpaceOnUse" x="302.49" y="0" width="11" height="10" fill="black">
<rect fill="white" x="302.49" width="11" height="10"/>
<path d="M312.08 1.7207L304.799 9.25977L303.49 7.9043L310.152 1H311.551L312.08 1.7207Z"/>
</mask>
<path d="M312.08 1.7207L304.799 9.25977L303.49 7.9043L310.152 1H311.551L312.08 1.7207Z" fill="white"/>
<path d="M312.08 1.7207L312.368 1.99858L312.602 1.75588L312.402 1.48393L312.08 1.7207ZM304.799 9.25977L304.511 9.53759L304.799 9.83561L305.087 9.53765L304.799 9.25977ZM303.49 7.9043L303.202 7.62655L302.934 7.90437L303.202 8.18212L303.49 7.9043ZM310.152 1V0.6H309.982L309.864 0.722251L310.152 1ZM311.551 1L311.873 0.763227L311.753 0.6H311.551V1ZM312.08 1.7207L311.792 1.44282L304.511 8.98189L304.799 9.25977L305.087 9.53765L312.368 1.99858L312.08 1.7207ZM304.799 9.25977L305.087 8.98194L303.778 7.62647L303.49 7.9043L303.202 8.18212L304.511 9.53759L304.799 9.25977ZM303.49 7.9043L303.778 8.18205L310.44 1.27775L310.152 1L309.864 0.722251L303.202 7.62655L303.49 7.9043ZM310.152 1V1.4H311.551V1V0.6H310.152V1ZM311.551 1L311.228 1.23677L311.758 1.95748L312.08 1.7207L312.402 1.48393L311.873 0.763227L311.551 1Z" fill="white" mask="url(#path-6-outside-2_112_56)"/>
<rect x="312.279" y="0.800977" width="17.2685" height="2.32782" transform="rotate(90 312.279 0.800977)" fill="white" stroke="white" stroke-width="0.4"/>
<path d="M601.2 41.8281V44.1562H310.646V41.8281H601.2Z" fill="white" stroke="white" stroke-width="0.4"/>
<path d="M15.7065 48.4688V59.1992H18.0044V48.4688H15.7065Z" fill="white" stroke="white" stroke-width="0.4"/>
<rect x="0.2" y="-0.2" width="12.9309" height="2.32782" transform="matrix(-1 0 0 1 18.2669 42.0244)" fill="white" stroke="white" stroke-width="0.4"/>
<rect x="0.2" y="-0.2" width="11.003" height="2.32782" transform="matrix(-1 0 0 1 16.3236 48.6689)" fill="white" stroke="white" stroke-width="0.4"/>
<mask id="path-13-outside-3_112_56" maskUnits="userSpaceOnUse" x="0.335938" y="41.0244" width="6" height="10" fill="black">
<rect fill="white" x="0.335938" y="41.0244" width="6" height="10"/>
<path d="M5.20117 42.0244C2.88098 42.0244 1.00026 43.9418 1 46.3076C1.00018 48.6735 2.88093 50.5918 5.20117 50.5918C5.24628 50.5918 5.29117 50.5893 5.33594 50.5879V48.6504C5.29096 48.6531 5.24583 48.6582 5.2002 48.6582C3.92799 48.658 2.89666 47.6058 2.89648 46.3086C2.89657 45.0113 3.92793 43.9591 5.2002 43.959C5.24581 43.959 5.29098 43.9622 5.33594 43.9648V42.0273C5.29118 42.0259 5.24628 42.0244 5.20117 42.0244Z"/>
</mask>
<path d="M5.20117 42.0244C2.88098 42.0244 1.00026 43.9418 1 46.3076C1.00018 48.6735 2.88093 50.5918 5.20117 50.5918C5.24628 50.5918 5.29117 50.5893 5.33594 50.5879V48.6504C5.29096 48.6531 5.24583 48.6582 5.2002 48.6582C3.92799 48.658 2.89666 47.6058 2.89648 46.3086C2.89657 45.0113 3.92793 43.9591 5.2002 43.959C5.24581 43.959 5.29098 43.9622 5.33594 43.9648V42.0273C5.29118 42.0259 5.24628 42.0244 5.20117 42.0244Z" fill="white"/>
<path d="M5.20117 42.0244L5.20117 41.6244L5.2012 41.6244L5.20117 42.0244ZM1 46.3076L0.6 46.3076L0.6 46.3076L1 46.3076ZM5.20117 50.5918L5.2012 50.9918H5.20117V50.5918ZM5.33594 50.5879H5.73594V50.9752L5.34882 50.9877L5.33594 50.5879ZM5.33594 48.6504L5.31221 48.2511L5.73594 48.2259V48.6504H5.33594ZM5.2002 48.6582L5.20023 49.0582L5.20015 49.0582L5.2002 48.6582ZM2.89648 46.3086L2.49648 46.3086L2.49648 46.3086L2.89648 46.3086ZM5.2002 43.959L5.20015 43.559L5.20023 43.559L5.2002 43.959ZM5.33594 43.9648H5.73594V44.3893L5.31222 44.3641L5.33594 43.9648ZM5.33594 42.0273L5.34882 41.6276L5.73594 41.64V42.0273H5.33594ZM5.20117 42.0244V42.4244C3.10917 42.4244 1.40023 44.1554 1.4 46.3077L1 46.3076L0.6 46.3076C0.600281 43.7283 2.65279 41.6244 5.20117 41.6244V42.0244ZM1 46.3076L1.4 46.3076C1.40016 48.46 3.10923 50.1918 5.20117 50.1918V50.5918V50.9918C2.65264 50.9918 0.600194 48.8869 0.6 46.3076L1 46.3076ZM5.20117 50.5918L5.20114 50.1918C5.23785 50.1918 5.26614 50.1899 5.32305 50.1881L5.33594 50.5879L5.34882 50.9877C5.31621 50.9887 5.25471 50.9918 5.2012 50.9918L5.20117 50.5918ZM5.33594 50.5879H4.93594V48.6504H5.33594H5.73594V50.5879H5.33594ZM5.33594 48.6504L5.35967 49.0497C5.34467 49.0506 5.26036 49.0582 5.20023 49.0582L5.2002 48.6582L5.20016 48.2582C5.23131 48.2582 5.23724 48.2556 5.31221 48.2511L5.33594 48.6504ZM5.2002 48.6582L5.20015 49.0582C3.69962 49.058 2.49669 47.8192 2.49648 46.3086L2.89648 46.3086L3.29648 46.3085C3.29663 47.3924 4.15635 48.2581 5.20024 48.2582L5.2002 48.6582ZM2.89648 46.3086L2.49648 46.3086C2.49659 44.7979 3.69959 43.5592 5.20015 43.559L5.2002 43.959L5.20024 44.359C4.15627 44.3591 3.29656 45.2247 3.29648 46.3086L2.89648 46.3086ZM5.2002 43.959L5.20023 43.559C5.26085 43.559 5.32127 43.5633 5.35966 43.5655L5.33594 43.9648L5.31222 44.3641C5.26069 44.3611 5.23076 44.359 5.20016 44.359L5.2002 43.959ZM5.33594 43.9648H4.93594V42.0273H5.33594H5.73594V43.9648H5.33594ZM5.33594 42.0273L5.32306 42.4271C5.27691 42.4256 5.23865 42.4244 5.20114 42.4244L5.20117 42.0244L5.2012 41.6244C5.2539 41.6244 5.30544 41.6262 5.34882 41.6276L5.33594 42.0273Z" fill="white" mask="url(#path-13-outside-3_112_56)"/>
<path d="M15.0938 41.7998L15.3418 42.1221L16.8418 44.0742L16.9014 44.1523H310.741V41.8242H310.541L15.5 41.7998H15.0938Z" fill="white" stroke="white" stroke-width="0.4"/>
<mask id="path-16-outside-4_112_56" maskUnits="userSpaceOnUse" x="294.693" y="41.4238" width="18" height="18" fill="black">
<rect fill="white" x="294.693" y="41.4238" width="18" height="18"/>
<path d="M303.87 42.4238C308.359 42.4241 311.998 46.1016 311.998 50.6387C311.998 55.1758 308.359 58.8542 303.87 58.8545C299.38 58.8545 295.693 55.176 295.693 50.6387C295.693 46.1015 299.38 42.4238 303.87 42.4238ZM303.869 44.2236C300.362 44.2239 297.518 47.0971 297.518 50.6416C297.518 54.1862 300.362 57.0603 303.869 57.0605C307.376 57.0605 310.152 54.2518 310.152 50.707C310.152 47.1623 307.376 44.2236 303.869 44.2236Z"/>
</mask>
<path d="M303.87 42.4238C308.359 42.4241 311.998 46.1016 311.998 50.6387C311.998 55.1758 308.359 58.8542 303.87 58.8545C299.38 58.8545 295.693 55.176 295.693 50.6387C295.693 46.1015 299.38 42.4238 303.87 42.4238ZM303.869 44.2236C300.362 44.2239 297.518 47.0971 297.518 50.6416C297.518 54.1862 300.362 57.0603 303.869 57.0605C307.376 57.0605 310.152 54.2518 310.152 50.707C310.152 47.1623 307.376 44.2236 303.869 44.2236Z" fill="white"/>
<path d="M303.87 42.4238L303.87 42.0238H303.87V42.4238ZM311.998 50.6387L312.398 50.6387L312.398 50.6387L311.998 50.6387ZM303.87 58.8545L303.87 59.2545L303.87 59.2545L303.87 58.8545ZM295.693 50.6387L295.293 50.6387V50.6387H295.693ZM303.869 44.2236L303.869 43.8236L303.869 43.8236L303.869 44.2236ZM297.518 50.6416L297.118 50.6416V50.6416H297.518ZM303.869 57.0605L303.869 57.4605H303.869V57.0605ZM310.152 50.707L310.552 50.707V50.707H310.152ZM303.87 42.4238L303.87 42.8238C308.134 42.8241 311.598 46.3185 311.598 50.6387L311.998 50.6387L312.398 50.6387C312.398 45.8847 308.584 42.0241 303.87 42.0238L303.87 42.4238ZM311.998 50.6387H311.598C311.598 54.959 308.134 58.4543 303.87 58.4545L303.87 58.8545L303.87 59.2545C308.584 59.2542 312.398 55.3927 312.398 50.6387H311.998ZM303.87 58.8545V58.4545C299.602 58.4545 296.093 54.956 296.093 50.6387H295.693H295.293C295.293 55.3959 299.159 59.2545 303.87 59.2545V58.8545ZM295.693 50.6387L296.093 50.6387C296.093 46.3215 299.602 42.8238 303.87 42.8238V42.4238V42.0238C299.159 42.0238 295.293 45.8815 295.293 50.6387L295.693 50.6387ZM303.869 44.2236L303.869 43.8236C300.137 43.8239 297.118 46.8802 297.118 50.6416L297.518 50.6416L297.918 50.6416C297.918 47.314 300.587 44.6239 303.869 44.6236L303.869 44.2236ZM297.518 50.6416H297.118C297.118 54.4031 300.137 57.4603 303.869 57.4605L303.869 57.0605L303.869 56.6605C300.587 56.6603 297.918 53.9693 297.918 50.6416H297.518ZM303.869 57.0605V57.4605C307.601 57.4605 310.552 54.4684 310.552 50.707L310.152 50.707L309.752 50.707C309.752 54.0351 307.151 56.6605 303.869 56.6605V57.0605ZM310.152 50.707H310.552C310.552 46.9563 307.612 43.8236 303.869 43.8236V44.2236V44.6236C307.141 44.6236 309.752 47.3682 309.752 50.707H310.152Z" fill="white" mask="url(#path-16-outside-4_112_56)"/>
<rect x="311.861" y="48.5021" width="15.3081" height="2.29739" fill="white" stroke="white" stroke-width="0.4"/>
<path d="M312.28 59.1064L309.951 59.1064L309.951 26.9707L312.28 26.9707L312.28 59.1064Z" fill="white" stroke="white" stroke-width="0.4"/>
<path d="M311.578 43.1924V36.2373H309.963L309.952 36.4268C309.816 38.8166 308.724 40.1544 307.449 40.9043C306.161 41.6618 304.668 41.8281 303.74 41.8281H303.54V43.1924H311.578Z" fill="white" stroke="white" stroke-width="0.4"/>
<path d="M310.703 43.1924V36.3828H312.268L312.279 36.5703C312.422 38.9522 313.603 40.2542 314.987 40.9717C316.385 41.6965 318 41.8281 318.99 41.8281H319.19V43.1924H310.703Z" fill="white" stroke="white" stroke-width="0.4"/>
<path d="M310.928 42.7832V49.834H312.48L312.492 49.6455C312.628 47.3299 313.739 45.9667 315.041 45.1748C316.354 44.3764 317.871 44.1553 318.796 44.1553H318.996V42.7832H310.928Z" fill="white" stroke="white" stroke-width="0.4"/>
<path d="M311.315 42.7832V48.9346H309.802L309.757 48.7949C308.614 45.2354 305.517 44.3623 303.725 44.3623H303.525V42.7832H311.315Z" fill="white" stroke="white" stroke-width="0.4"/>
</svg>
