<svg width="1372" height="60" viewBox="0 0 1372 60" fill="none" xmlns="http://www.w3.org/2000/svg">
<path d="M1356.16 48.4683V59.1987H1353.86V48.4683H1356.16Z" fill="white" stroke="white" stroke-width="0.4"/>
<rect x="1353.8" y="41.8244" width="12.9309" height="2.32782" fill="white" stroke="white" stroke-width="0.4"/>
<rect x="1355.74" y="48.4685" width="11.003" height="2.32782" fill="white" stroke="white" stroke-width="0.4"/>
<mask id="path-4-outside-1_179_33" maskUnits="userSpaceOnUse" x="1365.53" y="41.0244" width="6" height="10" fill="black">
<rect fill="white" x="1365.53" y="41.0244" width="6" height="10"/>
<path d="M1366.67 42.0244C1368.99 42.0244 1370.87 43.9418 1370.87 46.3076C1370.87 48.6735 1368.99 50.5918 1366.67 50.5918C1366.62 50.5918 1366.58 50.5893 1366.53 50.5879V48.6504C1366.58 48.653 1366.62 48.6582 1366.67 48.6582C1367.94 48.6582 1368.97 47.6059 1368.97 46.3086C1368.97 45.0112 1367.94 43.959 1366.67 43.959C1366.62 43.959 1366.58 43.9622 1366.53 43.9648V42.0273C1366.58 42.0259 1366.62 42.0244 1366.67 42.0244Z"/>
</mask>
<path d="M1366.67 42.0244C1368.99 42.0244 1370.87 43.9418 1370.87 46.3076C1370.87 48.6735 1368.99 50.5918 1366.67 50.5918C1366.62 50.5918 1366.58 50.5893 1366.53 50.5879V48.6504C1366.58 48.653 1366.62 48.6582 1366.67 48.6582C1367.94 48.6582 1368.97 47.6059 1368.97 46.3086C1368.97 45.0112 1367.94 43.959 1366.67 43.959C1366.62 43.959 1366.58 43.9622 1366.53 43.9648V42.0273C1366.58 42.0259 1366.62 42.0244 1366.67 42.0244Z" fill="white"/>
<path d="M1366.67 42.0244V41.6244L1366.67 41.6244L1366.67 42.0244ZM1370.87 46.3076L1371.27 46.3076L1371.27 46.3076L1370.87 46.3076ZM1366.67 50.5918L1366.67 50.9918H1366.67V50.5918ZM1366.53 50.5879H1366.13V50.9752L1366.52 50.9877L1366.53 50.5879ZM1366.53 48.6504L1366.55 48.2511L1366.13 48.2261V48.6504H1366.53ZM1366.67 48.6582L1366.67 49.0582H1366.67V48.6582ZM1368.97 46.3086L1369.37 46.3086L1369.37 46.3086L1368.97 46.3086ZM1366.67 43.959L1366.67 43.559L1366.67 43.559L1366.67 43.959ZM1366.53 43.9648H1366.13V44.3892L1366.55 44.3641L1366.53 43.9648ZM1366.53 42.0273L1366.52 41.6276L1366.13 41.64V42.0273H1366.53ZM1366.67 42.0244V42.4244C1368.76 42.4244 1370.47 44.1554 1370.47 46.3077L1370.87 46.3076L1371.27 46.3076C1371.27 43.7283 1369.21 41.6244 1366.67 41.6244V42.0244ZM1370.87 46.3076L1370.47 46.3076C1370.47 48.46 1368.76 50.1918 1366.67 50.1918V50.5918V50.9918C1369.21 50.9918 1371.27 48.8869 1371.27 46.3076L1370.87 46.3076ZM1366.67 50.5918L1366.67 50.1918C1366.63 50.1918 1366.6 50.1899 1366.54 50.1881L1366.53 50.5879L1366.52 50.9877C1366.55 50.9887 1366.61 50.9918 1366.67 50.9918L1366.67 50.5918ZM1366.53 50.5879H1366.93V48.6504H1366.53H1366.13V50.5879H1366.53ZM1366.53 48.6504L1366.51 49.0497C1366.52 49.0505 1366.61 49.0582 1366.67 49.0582L1366.67 48.6582L1366.67 48.2582C1366.63 48.2582 1366.63 48.2556 1366.55 48.2511L1366.53 48.6504ZM1366.67 48.6582V49.0582C1368.17 49.0582 1369.37 47.8193 1369.37 46.3086L1368.97 46.3086L1368.57 46.3085C1368.57 47.3926 1367.71 48.2582 1366.67 48.2582V48.6582ZM1368.97 46.3086L1369.37 46.3086C1369.37 44.7978 1368.17 43.559 1366.67 43.559V43.959V44.359C1367.71 44.359 1368.57 45.2246 1368.57 46.3086L1368.97 46.3086ZM1366.67 43.959L1366.67 43.559C1366.61 43.559 1366.55 43.5633 1366.51 43.5655L1366.53 43.9648L1366.55 44.3641C1366.61 44.3611 1366.64 44.359 1366.67 44.359L1366.67 43.959ZM1366.53 43.9648H1366.93V42.0273H1366.53H1366.13V43.9648H1366.53ZM1366.53 42.0273L1366.54 42.4271C1366.59 42.4256 1366.63 42.4244 1366.67 42.4244L1366.67 42.0244L1366.67 41.6244C1366.61 41.6244 1366.56 41.6262 1366.52 41.6276L1366.53 42.0273Z" fill="white" mask="url(#path-4-outside-1_179_33)"/>
<mask id="path-6-outside-2_179_33" maskUnits="userSpaceOnUse" x="680.49" y="0" width="11" height="10" fill="black">
<rect fill="white" x="680.49" width="11" height="10"/>
<path d="M690.08 1.7207L682.799 9.25977L681.49 7.9043L688.152 1H689.551L690.08 1.7207Z"/>
</mask>
<path d="M690.08 1.7207L682.799 9.25977L681.49 7.9043L688.152 1H689.551L690.08 1.7207Z" fill="white"/>
<path d="M690.08 1.7207L690.368 1.99858L690.602 1.75588L690.402 1.48393L690.08 1.7207ZM682.799 9.25977L682.511 9.53759L682.799 9.83561L683.087 9.53765L682.799 9.25977ZM681.49 7.9043L681.202 7.62655L680.934 7.90437L681.202 8.18212L681.49 7.9043ZM688.152 1V0.6H687.982L687.864 0.722251L688.152 1ZM689.551 1L689.873 0.763227L689.753 0.6H689.551V1ZM690.08 1.7207L689.792 1.44282L682.511 8.98189L682.799 9.25977L683.087 9.53765L690.368 1.99858L690.08 1.7207ZM682.799 9.25977L683.087 8.98194L681.778 7.62647L681.49 7.9043L681.202 8.18212L682.511 9.53759L682.799 9.25977ZM681.49 7.9043L681.778 8.18205L688.44 1.27775L688.152 1L687.864 0.722251L681.202 7.62655L681.49 7.9043ZM688.152 1V1.4H689.551V1V0.6H688.152V1ZM689.551 1L689.228 1.23677L689.758 1.95748L690.08 1.7207L690.402 1.48393L689.873 0.763227L689.551 1Z" fill="white" mask="url(#path-6-outside-2_179_33)"/>
<rect x="690.279" y="0.800977" width="17.2685" height="2.32782" transform="rotate(90 690.279 0.800977)" fill="white" stroke="white" stroke-width="0.4"/>
<path d="M1356.7 41.8276V44.1558H688.646V41.8276H1356.7Z" fill="white" stroke="white" stroke-width="0.4"/>
<path d="M15.7067 48.4683V59.1987H18.0045V48.4683H15.7067Z" fill="white" stroke="white" stroke-width="0.4"/>
<rect x="0.2" y="-0.2" width="12.9309" height="2.32782" transform="matrix(-1 0 0 1 18.2669 42.0244)" fill="white" stroke="white" stroke-width="0.4"/>
<rect x="0.2" y="-0.2" width="11.003" height="2.32782" transform="matrix(-1 0 0 1 16.3236 48.6685)" fill="white" stroke="white" stroke-width="0.4"/>
<mask id="path-13-outside-3_179_33" maskUnits="userSpaceOnUse" x="0.335938" y="41.0244" width="6" height="10" fill="black">
<rect fill="white" x="0.335938" y="41.0244" width="6" height="10"/>
<path d="M5.20117 42.0244C2.88098 42.0244 1.00026 43.9418 1 46.3076C1.00018 48.6735 2.88093 50.5918 5.20117 50.5918C5.24628 50.5918 5.29117 50.5893 5.33594 50.5879V48.6504C5.29096 48.6531 5.24583 48.6582 5.2002 48.6582C3.92799 48.658 2.89666 47.6058 2.89648 46.3086C2.89657 45.0113 3.92793 43.9591 5.2002 43.959C5.24581 43.959 5.29098 43.9622 5.33594 43.9648V42.0273C5.29118 42.0259 5.24628 42.0244 5.20117 42.0244Z"/>
</mask>
<path d="M5.20117 42.0244C2.88098 42.0244 1.00026 43.9418 1 46.3076C1.00018 48.6735 2.88093 50.5918 5.20117 50.5918C5.24628 50.5918 5.29117 50.5893 5.33594 50.5879V48.6504C5.29096 48.6531 5.24583 48.6582 5.2002 48.6582C3.92799 48.658 2.89666 47.6058 2.89648 46.3086C2.89657 45.0113 3.92793 43.9591 5.2002 43.959C5.24581 43.959 5.29098 43.9622 5.33594 43.9648V42.0273C5.29118 42.0259 5.24628 42.0244 5.20117 42.0244Z" fill="white"/>
<path d="M5.20117 42.0244L5.20117 41.6244L5.2012 41.6244L5.20117 42.0244ZM1 46.3076L0.6 46.3076L0.6 46.3076L1 46.3076ZM5.20117 50.5918L5.2012 50.9918H5.20117V50.5918ZM5.33594 50.5879H5.73594V50.9752L5.34882 50.9877L5.33594 50.5879ZM5.33594 48.6504L5.31221 48.2511L5.73594 48.2259V48.6504H5.33594ZM5.2002 48.6582L5.20023 49.0582L5.20015 49.0582L5.2002 48.6582ZM2.89648 46.3086L2.49648 46.3086L2.49648 46.3086L2.89648 46.3086ZM5.2002 43.959L5.20015 43.559L5.20023 43.559L5.2002 43.959ZM5.33594 43.9648H5.73594V44.3893L5.31222 44.3641L5.33594 43.9648ZM5.33594 42.0273L5.34882 41.6276L5.73594 41.64V42.0273H5.33594ZM5.20117 42.0244V42.4244C3.10917 42.4244 1.40023 44.1554 1.4 46.3077L1 46.3076L0.6 46.3076C0.600281 43.7283 2.65279 41.6244 5.20117 41.6244V42.0244ZM1 46.3076L1.4 46.3076C1.40016 48.46 3.10923 50.1918 5.20117 50.1918V50.5918V50.9918C2.65264 50.9918 0.600194 48.8869 0.6 46.3076L1 46.3076ZM5.20117 50.5918L5.20114 50.1918C5.23785 50.1918 5.26614 50.1899 5.32305 50.1881L5.33594 50.5879L5.34882 50.9877C5.31621 50.9887 5.25471 50.9918 5.2012 50.9918L5.20117 50.5918ZM5.33594 50.5879H4.93594V48.6504H5.33594H5.73594V50.5879H5.33594ZM5.33594 48.6504L5.35967 49.0497C5.34467 49.0506 5.26036 49.0582 5.20023 49.0582L5.2002 48.6582L5.20016 48.2582C5.23131 48.2582 5.23724 48.2556 5.31221 48.2511L5.33594 48.6504ZM5.2002 48.6582L5.20015 49.0582C3.69962 49.058 2.49669 47.8192 2.49648 46.3086L2.89648 46.3086L3.29648 46.3085C3.29663 47.3924 4.15635 48.2581 5.20024 48.2582L5.2002 48.6582ZM2.89648 46.3086L2.49648 46.3086C2.49659 44.7979 3.69959 43.5592 5.20015 43.559L5.2002 43.959L5.20024 44.359C4.15627 44.3591 3.29656 45.2247 3.29648 46.3086L2.89648 46.3086ZM5.2002 43.959L5.20023 43.559C5.26085 43.559 5.32127 43.5633 5.35966 43.5655L5.33594 43.9648L5.31222 44.3641C5.26069 44.3611 5.23076 44.359 5.20016 44.359L5.2002 43.959ZM5.33594 43.9648H4.93594V42.0273H5.33594H5.73594V43.9648H5.33594ZM5.33594 42.0273L5.32306 42.4271C5.27691 42.4256 5.23865 42.4244 5.20114 42.4244L5.20117 42.0244L5.2012 41.6244C5.2539 41.6244 5.30544 41.6262 5.34882 41.6276L5.33594 42.0273Z" fill="white" mask="url(#path-13-outside-3_179_33)"/>
<path d="M16.7998 41.8237V44.1519H688.741V41.8237H16.7998Z" fill="white" stroke="white" stroke-width="0.4"/>
<mask id="path-16-outside-4_179_33" maskUnits="userSpaceOnUse" x="672.693" y="41.4233" width="18" height="18" fill="black">
<rect fill="white" x="672.693" y="41.4233" width="18" height="18"/>
<path d="M681.87 42.4233C686.359 42.4236 689.998 46.1011 689.998 50.6382C689.998 55.1753 686.359 58.8538 681.87 58.854C677.381 58.854 673.693 55.1755 673.693 50.6382C673.693 46.101 677.381 42.4233 681.87 42.4233ZM681.869 44.2231C678.362 44.2234 675.519 47.0966 675.519 50.6411C675.519 54.1857 678.362 57.0598 681.869 57.0601C685.376 57.0601 688.152 54.2513 688.152 50.7065C688.152 47.1618 685.377 44.2231 681.869 44.2231Z"/>
</mask>
<path d="M681.87 42.4233C686.359 42.4236 689.998 46.1011 689.998 50.6382C689.998 55.1753 686.359 58.8538 681.87 58.854C677.381 58.854 673.693 55.1755 673.693 50.6382C673.693 46.101 677.381 42.4233 681.87 42.4233ZM681.869 44.2231C678.362 44.2234 675.519 47.0966 675.519 50.6411C675.519 54.1857 678.362 57.0598 681.869 57.0601C685.376 57.0601 688.152 54.2513 688.152 50.7065C688.152 47.1618 685.377 44.2231 681.869 44.2231Z" fill="white"/>
<path d="M681.87 42.4233L681.87 42.0233H681.87V42.4233ZM689.998 50.6382L690.398 50.6382L690.398 50.6382L689.998 50.6382ZM681.87 58.854L681.87 59.254L681.87 59.254L681.87 58.854ZM673.693 50.6382L673.293 50.6382V50.6382H673.693ZM681.869 44.2231V43.8231L681.869 43.8231L681.869 44.2231ZM675.519 50.6411L675.119 50.6411V50.6411H675.519ZM681.869 57.0601L681.869 57.4601H681.869V57.0601ZM688.152 50.7065L688.552 50.7065V50.7065H688.152ZM681.87 42.4233L681.87 42.8233C686.134 42.8236 689.598 46.318 689.598 50.6382L689.998 50.6382L690.398 50.6382C690.398 45.8842 686.584 42.0236 681.87 42.0233L681.87 42.4233ZM689.998 50.6382H689.598C689.598 54.9585 686.134 58.4538 681.87 58.454L681.87 58.854L681.87 59.254C686.584 59.2537 690.398 55.3922 690.398 50.6382H689.998ZM681.87 58.854V58.454C677.603 58.454 674.093 54.9555 674.093 50.6382H673.693H673.293C673.293 55.3954 677.159 59.254 681.87 59.254V58.854ZM673.693 50.6382L674.093 50.6382C674.093 46.321 677.603 42.8233 681.87 42.8233V42.4233V42.0233C677.159 42.0233 673.293 45.881 673.293 50.6382L673.693 50.6382ZM681.869 44.2231L681.869 43.8231C678.137 43.8234 675.119 46.8797 675.119 50.6411L675.519 50.6411L675.919 50.6411C675.919 47.3136 678.587 44.6234 681.869 44.6231L681.869 44.2231ZM675.519 50.6411H675.119C675.119 54.4026 678.137 57.4598 681.869 57.4601L681.869 57.0601L681.869 56.6601C678.587 56.6598 675.919 53.9688 675.919 50.6411H675.519ZM681.869 57.0601V57.4601C685.602 57.4601 688.552 54.4679 688.552 50.7065L688.152 50.7065L687.752 50.7065C687.752 54.0346 685.151 56.6601 681.869 56.6601V57.0601ZM688.152 50.7065H688.552C688.552 46.9558 685.612 43.8231 681.869 43.8231V44.2231V44.6231C685.141 44.6231 687.752 47.3677 687.752 50.7065H688.152Z" fill="white" mask="url(#path-16-outside-4_179_33)"/>
<rect x="689.862" y="48.5021" width="15.3081" height="2.29739" fill="white" stroke="white" stroke-width="0.4"/>
<path d="M690.28 59.1064L687.952 59.1064L687.952 26.9707L690.28 26.9707L690.28 59.1064Z" fill="white" stroke="white" stroke-width="0.4"/>
<path d="M689.578 43.1924V36.2373H687.963L687.952 36.4268C687.816 38.8166 686.724 40.1544 685.449 40.9043C684.161 41.6618 682.668 41.8281 681.74 41.8281H681.54V43.1924H689.578Z" fill="white" stroke="white" stroke-width="0.4"/>
<path d="M688.703 43.1924V36.3828H690.268L690.279 36.5703C690.422 38.9522 691.603 40.2542 692.987 40.9717C694.385 41.6965 696 41.8281 696.99 41.8281H697.19V43.1924H688.703Z" fill="white" stroke="white" stroke-width="0.4"/>
<path d="M688.928 42.7832V49.834H690.481L690.492 49.6455C690.629 47.3299 691.739 45.9667 693.041 45.1748C694.354 44.3764 695.871 44.1553 696.796 44.1553H696.996V42.7832H688.928Z" fill="white" stroke="white" stroke-width="0.4"/>
<path d="M689.315 42.7832V48.9346H687.802L687.757 48.7949C686.614 45.2354 683.518 44.3623 681.725 44.3623H681.525V42.7832H689.315Z" fill="white" stroke="white" stroke-width="0.4"/>
</svg>
