<svg width="719" height="561" viewBox="0 0 719 561" fill="none" xmlns="http://www.w3.org/2000/svg">
<path d="M307.776 369.444V367.183L314.437 356.659H316.322V359.878H315.173L310.689 366.984V367.106H319.986V369.444H307.776ZM315.265 372.357V368.754L315.295 367.743V356.659H317.978V372.357H315.265ZM328.238 372.656C326.975 372.656 325.892 372.336 324.988 371.698C324.088 371.054 323.396 370.126 322.91 368.915C322.43 367.699 322.19 366.235 322.19 364.523C322.195 362.812 322.438 361.355 322.918 360.154C323.404 358.948 324.096 358.029 324.995 357.395C325.9 356.761 326.98 356.445 328.238 356.445C329.495 356.445 330.575 356.761 331.48 357.395C332.384 358.029 333.077 358.948 333.557 360.154C334.042 361.36 334.285 362.817 334.285 364.523C334.285 366.24 334.042 367.707 333.557 368.923C333.077 370.134 332.384 371.059 331.48 371.698C330.58 372.336 329.5 372.656 328.238 372.656ZM328.238 370.257C329.219 370.257 329.993 369.774 330.56 368.808C331.132 367.837 331.418 366.409 331.418 364.523C331.418 363.277 331.288 362.229 331.028 361.381C330.767 360.532 330.399 359.894 329.924 359.464C329.449 359.03 328.887 358.813 328.238 358.813C327.262 358.813 326.49 359.298 325.923 360.269C325.356 361.235 325.069 362.653 325.064 364.523C325.059 365.775 325.184 366.828 325.44 367.681C325.7 368.535 326.068 369.179 326.544 369.613C327.019 370.042 327.583 370.257 328.238 370.257ZM336.548 369.444V367.183L343.209 356.659H345.095V359.878H343.945L339.461 366.984V367.106H348.759V369.444H336.548ZM344.037 372.357V368.754L344.068 367.743V356.659H346.75V372.357H344.037Z" fill="white"/>
<path d="M553.719 418.616L576.586 365.96M655.193 184.953L592.07 330.307" stroke="white" stroke-width="2.19402"/>
<path d="M554.268 418.616L678.23 279.296" stroke="white" stroke-width="2.19402"/>
<path d="M554.268 431.231L616.797 492.664" stroke="white" stroke-width="2.19402"/>
<path d="M185.124 431.78L228.455 373.638" stroke="white" stroke-width="2.19402"/>
<path d="M41.4155 415.874L176.348 436.717" stroke="white" stroke-width="2.19402"/>
<path d="M181.832 444.396L179.09 467.981M172.508 526.671L175.367 501.44" stroke="white" stroke-width="2.19402"/>
<path d="M181.832 431.231L174.875 401.612M162.635 349.504L168.755 375.558" stroke="white" stroke-width="2.19402"/>
<path d="M336.511 234.318L334.591 289.717M332.671 345.116L333.622 317.691" stroke="white" stroke-width="2.19402"/>
<path d="M338.157 221.702L354.142 193.728M386.425 137.232L368.325 168.909" stroke="white" stroke-width="2.19402"/>
<g filter="url(#filter0_f_267_561)">
<path d="M338.157 221.702L354.142 193.728M386.425 137.232L368.325 168.909" stroke="white" stroke-width="2.19402"/>
</g>
<path d="M218.583 201.956L258.075 211.281M330.478 227.736L294.276 219.395" stroke="white" stroke-width="2.19402"/>
<rect x="284.951" y="345.664" width="88.8578" height="38.3953" rx="4.38804" stroke="white" stroke-width="2.19402"/>
<rect x="674.843" y="274.921" width="12.0416" height="12.0416" transform="rotate(-47.5574 674.843 274.921)" stroke="white" stroke-width="2.19402"/>
<path d="M681.88 272.178L683.418 273.585L684.824 272.047L686.132 273.243L684.726 274.781L686.264 276.187L685.067 277.495L683.53 276.089L682.123 277.627L680.815 276.431L682.222 274.893L680.684 273.486L681.88 272.178Z" fill="white" stroke="white" stroke-width="0.548505"/>
<rect x="649.511" y="182.584" width="12.0416" height="12.0416" transform="rotate(-65.8842 649.511 182.584)" stroke="white" stroke-width="2.19402"/>
<path d="M655.329 177.766L657.231 178.617L658.082 176.715L659.7 177.44L658.849 179.342L660.751 180.193L660.027 181.811L658.124 180.959L657.273 182.861L655.655 182.137L656.507 180.235L654.605 179.384L655.329 177.766Z" fill="white" stroke="white" stroke-width="0.548505"/>
<rect x="621.809" y="505.651" width="12.0416" height="12.0416" transform="rotate(-134.941 621.809 505.651)" stroke="white" stroke-width="2.19402"/>
<path d="M619.39 498.496L620.865 497.024L619.393 495.549L620.648 494.297L622.12 495.772L623.595 494.3L624.847 495.555L623.372 497.027L624.844 498.502L623.589 499.754L622.117 498.279L620.642 499.751L619.39 498.496Z" fill="white" stroke="white" stroke-width="0.548505"/>
<rect x="326.638" y="444.395" width="12.0416" height="12.0416" stroke="white" stroke-width="2.19402"/>
<path d="M333.408 447.736V449.82H335.492V451.592H333.408V453.676H331.635V451.592H329.551V449.82H331.635V447.736H333.408Z" fill="white" stroke="white" stroke-width="0.548505"/>
<rect x="548.234" y="419.164" width="12.0416" height="12.0416" stroke="white" stroke-width="2.19402"/>
<path d="M555.004 422.504V424.588H557.088V426.36H555.004V428.444H553.231V426.36H551.147V424.588H553.231V422.504H555.004Z" fill="white" stroke="white" stroke-width="0.548505"/>
<rect x="31.1897" y="407.172" width="12.0416" height="12.0416" transform="rotate(13.7559 31.1897 407.172)" stroke="white" stroke-width="2.19402"/>
<path d="M37.0281 412.06L36.485 414.072L38.4969 414.615L38.035 416.326L36.0231 415.783L35.48 417.795L33.7688 417.333L34.3118 415.321L32.2999 414.778L32.7618 413.067L34.7738 413.61L35.3168 411.598L37.0281 412.06Z" fill="white" stroke="white" stroke-width="0.548505"/>
<rect x="177.668" y="430.82" width="12.0416" height="12.0416" transform="rotate(8.2745 177.668 430.82)" stroke="white" stroke-width="2.19402"/>
<path d="M183.947 435.127L183.598 437.182L185.653 437.53L185.357 439.278L183.302 438.929L182.953 440.984L181.206 440.688L181.554 438.633L179.5 438.285L179.796 436.537L181.851 436.885L182.199 434.831L183.947 435.127Z" fill="white" stroke="white" stroke-width="0.548505"/>
<rect x="153.382" y="338.921" width="12.0416" height="12.0416" transform="rotate(-14.7061 153.382 338.921)" stroke="white" stroke-width="2.19402"/>
<path d="M160.844 340.435L161.326 342.462L163.353 341.981L163.763 343.706L161.735 344.187L162.216 346.215L160.492 346.624L160.01 344.596L157.983 345.078L157.573 343.353L159.601 342.872L159.12 340.844L160.844 340.435Z" fill="white" stroke="white" stroke-width="0.548505"/>
<rect x="227.052" y="367.613" width="12.0416" height="12.0416" transform="rotate(-14.7061 227.052 367.613)" stroke="white" stroke-width="2.19402"/>
<path d="M234.514 369.127L234.996 371.155L237.023 370.673L237.433 372.398L235.405 372.879L235.887 374.907L234.162 375.316L233.681 373.289L231.653 373.77L231.244 372.046L233.271 371.564L232.79 369.537L234.514 369.127Z" fill="white" stroke="white" stroke-width="0.548505"/>
<rect x="166.522" y="526.762" width="12.0416" height="12.0416" transform="rotate(5.01442 166.522 526.762)" stroke="white" stroke-width="2.19402"/>
<path d="M173.034 530.706L172.803 532.778L174.874 533.009L174.678 534.77L172.607 534.539L172.376 536.61L170.614 536.414L170.845 534.343L168.774 534.112L168.971 532.35L171.042 532.581L171.273 530.51L173.034 530.706Z" fill="white" stroke="white" stroke-width="0.548505"/>
<g filter="url(#filter1_g_267_561)">
<path d="M67.1626 281.359L69.5901 281.888L66.5575 294.852L64.1276 294.335L67.1626 281.359ZM57.9226 320.859L60.7251 308.877L63.156 309.394L60.3501 321.387L57.9226 320.859Z" fill="white"/>
</g>
<g filter="url(#filter2_g_267_561)">
<path d="M66.5055 280.717L68.9432 281.197L66.1732 294.219L63.7334 293.751L66.5055 280.717ZM58.0659 320.395L60.6256 308.359L63.0664 308.827L60.5036 320.875L58.0659 320.395Z" fill="white"/>
</g>
<g filter="url(#filter3_g_267_561)">
<path d="M67.1626 281.359L69.5901 281.888L66.5575 294.852L64.1276 294.335L67.1626 281.359ZM57.9226 320.859L60.7251 308.877L63.156 309.394L60.3501 321.387L57.9226 320.859Z" fill="white"/>
</g>
<g filter="url(#filter4_g_267_561)">
<path d="M66.5055 280.717L68.9432 281.197L66.1732 294.219L63.7334 293.751L66.5055 280.717ZM58.0659 320.395L60.6256 308.359L63.0664 308.827L60.5036 320.875L58.0659 320.395Z" fill="white"/>
</g>
<g filter="url(#filter5_g_267_561)">
<path d="M179.121 463.405L181.59 463.677L179.93 476.887L177.46 476.627L179.121 463.405ZM174.065 503.653L175.598 491.445L178.069 491.705L176.534 503.925L174.065 503.653Z" fill="white"/>
</g>
<g filter="url(#filter6_g_267_561)">
<path d="M178.4 462.835L180.874 463.058L179.482 476.299L177.006 476.089L178.4 462.835ZM174.158 503.178L175.445 490.94L177.92 491.151L176.633 503.4L174.158 503.178Z" fill="white"/>
</g>
<g filter="url(#filter7_g_267_561)">
<path d="M591.976 327.766L594.297 328.653L589.354 341.016L587.029 340.14L591.976 327.766ZM576.917 365.433L581.485 354.007L583.81 354.883L579.238 366.32L576.917 365.433Z" fill="white"/>
</g>
<g filter="url(#filter8_g_267_561)">
<path d="M591.422 327.034L593.76 327.873L589.068 340.333L586.726 339.504L591.422 327.034ZM577.128 364.996L581.464 353.48L583.806 354.309L579.466 365.836L577.128 364.996Z" fill="white"/>
</g>
<g filter="url(#filter9_g_267_561)">
<path d="M591.976 327.766L594.297 328.653L589.354 341.016L587.029 340.14L591.976 327.766ZM576.917 365.433L581.485 354.007L583.81 354.883L579.238 366.32L576.917 365.433Z" fill="white"/>
</g>
<g filter="url(#filter10_g_267_561)">
<path d="M591.422 327.034L593.76 327.873L589.068 340.333L586.726 339.504L591.422 327.034ZM577.128 364.996L581.464 353.48L583.806 354.309L579.466 365.836L577.128 364.996Z" fill="white"/>
</g>
<g filter="url(#filter11_g_267_561)">
<path d="M451.334 389.107L450.666 391.499L437.899 387.721L438.556 385.325L451.334 389.107ZM412.436 377.595L424.236 381.087L423.579 383.482L411.768 379.987L412.436 377.595Z" fill="white"/>
</g>
<g filter="url(#filter12_g_267_561)">
<path d="M452.012 388.487L451.392 390.892L438.552 387.373L439.161 384.964L452.012 388.487ZM412.89 377.763L424.757 381.016L424.148 383.425L412.27 380.169L412.89 377.763Z" fill="white"/>
</g>
<g filter="url(#filter13_g_267_561)">
<path d="M451.334 389.107L450.666 391.499L437.899 387.721L438.556 385.325L451.334 389.107ZM412.436 377.595L424.236 381.087L423.579 383.482L411.768 379.987L412.436 377.595Z" fill="white"/>
</g>
<g filter="url(#filter14_g_267_561)">
<path d="M452.012 388.487L451.392 390.892L438.552 387.373L439.161 384.964L452.012 388.487ZM412.89 377.763L424.757 381.016L424.148 383.425L412.27 380.169L412.89 377.763Z" fill="white"/>
</g>
<g filter="url(#filter15_g_267_561)">
<path d="M335.224 320.184L332.74 320.139L333.188 306.832L335.672 306.866L335.224 320.184ZM336.587 279.642L336.174 291.941L333.689 291.907L334.104 279.596L336.587 279.642Z" fill="white"/>
</g>
<g filter="url(#filter16_g_267_561)">
<path d="M335.993 320.686L333.509 320.691L333.687 307.378L336.172 307.362L335.993 320.686ZM336.537 280.125L336.373 292.429L333.887 292.445L334.053 280.129L336.537 280.125Z" fill="white"/>
</g>
<g filter="url(#filter17_g_267_561)">
<path d="M334.201 432.595L331.688 432.841L331.338 420.984L333.85 420.727L334.201 432.595ZM333.134 396.469L333.458 407.428L330.945 407.685L330.621 396.716L333.134 396.469Z" fill="white"/>
</g>
<g filter="url(#filter18_g_267_561)">
<path d="M334.99 432.951L332.483 433.243L331.866 421.412L334.373 421.11L334.99 432.951ZM333.111 396.902L333.681 407.838L331.176 408.14L330.605 397.194L333.111 396.902Z" fill="white"/>
</g>
<g filter="url(#filter19_g_267_561)">
<path d="M166.714 370.011L169.126 369.417L172.112 382.391L169.703 382.996L166.714 370.011ZM175.812 409.542L173.052 397.551L175.462 396.945L178.224 408.948L175.812 409.542Z" fill="white"/>
</g>
<g filter="url(#filter20_g_267_561)">
<path d="M165.841 369.723L168.241 369.081L171.489 381.993L169.092 382.647L165.841 369.723ZM175.738 409.063L172.735 397.13L175.132 396.476L178.137 408.42L175.738 409.063Z" fill="white"/>
</g>
<g filter="url(#filter21_g_267_561)">
<path d="M166.712 370.009L169.125 369.415L172.111 382.39L169.702 382.995L166.712 370.009ZM175.812 409.541L173.052 397.549L175.461 396.944L178.224 408.947L175.812 409.541Z" fill="white"/>
</g>
<g filter="url(#filter22_g_267_561)">
<path d="M165.84 369.724L168.24 369.081L171.487 381.992L169.091 382.646L165.84 369.724ZM175.737 409.063L172.734 397.129L175.131 396.475L178.136 408.42L175.737 409.063Z" fill="white"/>
</g>
<g filter="url(#filter23_g_267_561)">
<path d="M255.413 211.216L255.998 208.801L268.888 212.132L268.314 214.549L255.413 211.216ZM294.688 221.364L282.774 218.285L283.347 215.868L295.273 218.949L294.688 221.364Z" fill="white"/>
</g>
<g filter="url(#filter24_g_267_561)">
<path d="M254.755 211.857L255.291 209.431L268.247 212.501L267.722 214.93L254.755 211.857ZM294.228 221.21L282.255 218.373L282.779 215.945L294.764 218.784L294.228 221.21Z" fill="white"/>
</g>
<g filter="url(#filter25_g_267_561)">
<path d="M255.413 211.216L255.998 208.801L268.888 212.132L268.314 214.549L255.413 211.216ZM294.688 221.364L282.774 218.285L283.347 215.868L295.273 218.949L294.688 221.364Z" fill="white"/>
</g>
<g filter="url(#filter26_g_267_561)">
<path d="M254.755 211.857L255.291 209.431L268.247 212.501L267.722 214.93L254.755 211.857ZM294.228 221.21L282.255 218.373L282.779 215.945L294.764 218.784L294.228 221.21Z" fill="white"/>
</g>
<g filter="url(#filter27_g_267_561)">
<path d="M350.391 201.349L348.228 200.127L354.948 188.634L357.118 189.845L350.391 201.349ZM370.869 166.331L364.657 176.953L362.488 175.742L368.706 165.11L370.869 166.331Z" fill="white"/>
</g>
<g filter="url(#filter28_g_267_561)">
<path d="M350.83 202.156L348.642 200.978L355.13 189.352L357.323 190.519L350.83 202.156ZM370.596 166.732L364.6 177.478L362.407 176.311L368.408 165.555L370.596 166.732Z" fill="white"/>
</g>
<rect x="330.875" y="233.583" width="12.0416" height="12.0416" transform="rotate(-88.1773 330.875 233.583)" stroke="white" stroke-width="2.19402"/>
<path d="M338.072 224.606L337.983 226.688L340.065 226.777L339.989 228.548L337.907 228.459L337.818 230.541L336.047 230.465L336.136 228.383L334.054 228.294L334.13 226.523L336.212 226.612L336.302 224.53L338.072 224.606Z" fill="white" stroke="white" stroke-width="0.548505"/>
<rect x="205.092" y="205.126" width="12.0416" height="12.0416" transform="rotate(-76.8826 205.092 205.126)" stroke="white" stroke-width="2.19402"/>
<path d="M213.909 197.731L213.413 199.756L215.437 200.251L215.016 201.973L212.992 201.477L212.496 203.502L210.775 203.08L211.27 201.056L209.246 200.561L209.667 198.839L211.692 199.334L212.187 197.31L213.909 197.731Z" fill="white" stroke="white" stroke-width="0.548505"/>
<rect x="82.2248" y="193.061" width="12.0416" height="12.0416" transform="rotate(-76.8826 82.2248 193.061)" stroke="white" stroke-width="2.19402"/>
<path d="M91.0416 185.667L90.5462 187.691L92.5705 188.186L92.1491 189.908L90.1248 189.412L89.6294 191.437L87.9078 191.015L88.4032 188.991L86.379 188.496L86.8003 186.774L88.8246 187.269L89.32 185.245L91.0416 185.667Z" fill="white" stroke="white" stroke-width="0.548505"/>
<rect x="381.886" y="133.878" width="12.0416" height="12.0416" transform="rotate(-60.808 381.886 133.878)" stroke="white" stroke-width="2.19402"/>
<path d="M392.405 129.214L391.369 131.022L393.177 132.058L392.295 133.596L390.487 132.56L389.45 134.367L387.913 133.486L388.949 131.678L387.141 130.641L388.023 129.104L389.831 130.14L390.867 128.332L392.405 129.214Z" fill="white" stroke="white" stroke-width="0.548505"/>
<path d="M332.671 384.06V401.064M332.671 443.847V428.489" stroke="white" stroke-width="2.19402"/>
<path d="M326.091 450.974L239.974 369.799" stroke="white" stroke-width="2.19402"/>
<path d="M88.5866 193.729L68.0784 280.392M37.5757 409.291L58.9674 318.788" stroke="white" stroke-width="2.19402"/>
<path d="M212 206.893L233.94 364.862" stroke="white" stroke-width="2.19402"/>
<path d="M373.261 365.412L414.947 379.438M547.685 424.102L460.473 394.757L445.115 389.589" stroke="white" stroke-width="2.19402"/>
<g filter="url(#filter29_f_267_561)">
<path d="M553.719 418.616L576.586 365.96M655.193 184.953L592.07 330.307" stroke="white" stroke-width="2.19402"/>
</g>
<g filter="url(#filter30_f_267_561)">
<path d="M554.268 418.616L678.23 279.296" stroke="white" stroke-width="2.19402"/>
</g>
<g filter="url(#filter31_f_267_561)">
<path d="M554.268 431.231L616.797 492.664" stroke="white" stroke-width="2.19402"/>
</g>
<g filter="url(#filter32_f_267_561)">
<path d="M185.124 431.78L228.455 373.638" stroke="white" stroke-width="2.19402"/>
</g>
<g filter="url(#filter33_f_267_561)">
<path d="M41.4155 415.874L176.348 436.717" stroke="white" stroke-width="2.19402"/>
</g>
<g filter="url(#filter34_f_267_561)">
<path d="M181.832 444.396L179.09 467.981M172.508 526.671L175.367 501.44" stroke="white" stroke-width="2.19402"/>
</g>
<g filter="url(#filter35_f_267_561)">
<path d="M181.832 431.231L174.875 401.612M162.635 349.504L168.755 375.558" stroke="white" stroke-width="2.19402"/>
</g>
<g filter="url(#filter36_f_267_561)">
<path d="M336.511 234.318L334.591 289.717M332.671 345.116L333.622 317.691" stroke="white" stroke-width="2.19402"/>
</g>
<g filter="url(#filter37_f_267_561)">
<path d="M218.583 201.956L258.075 211.281M330.478 227.736L294.276 219.395" stroke="white" stroke-width="2.19402"/>
</g>
<g filter="url(#filter38_f_267_561)">
<rect x="284.951" y="345.664" width="88.8578" height="38.3953" rx="4.38804" stroke="white" stroke-width="2.19402"/>
</g>
<g filter="url(#filter39_f_267_561)">
<rect x="674.843" y="274.921" width="12.0416" height="12.0416" transform="rotate(-47.5574 674.843 274.921)" stroke="white" stroke-width="2.19402"/>
</g>
<g filter="url(#filter40_f_267_561)">
<rect x="649.511" y="182.584" width="12.0416" height="12.0416" transform="rotate(-65.8842 649.511 182.584)" stroke="white" stroke-width="2.19402"/>
</g>
<g filter="url(#filter41_f_267_561)">
<rect x="621.809" y="505.651" width="12.0416" height="12.0416" transform="rotate(-134.941 621.809 505.651)" stroke="white" stroke-width="2.19402"/>
</g>
<g filter="url(#filter42_f_267_561)">
<rect x="326.638" y="444.395" width="12.0416" height="12.0416" stroke="white" stroke-width="2.19402"/>
</g>
<g filter="url(#filter43_f_267_561)">
<rect x="548.234" y="419.164" width="12.0416" height="12.0416" stroke="white" stroke-width="2.19402"/>
</g>
<g filter="url(#filter44_f_267_561)">
<rect x="31.1897" y="407.172" width="12.0416" height="12.0416" transform="rotate(13.7559 31.1897 407.172)" stroke="white" stroke-width="2.19402"/>
</g>
<g filter="url(#filter45_f_267_561)">
<rect x="153.382" y="338.921" width="12.0416" height="12.0416" transform="rotate(-14.7061 153.382 338.921)" stroke="white" stroke-width="2.19402"/>
</g>
<g filter="url(#filter46_f_267_561)">
<rect x="227.052" y="367.613" width="12.0416" height="12.0416" transform="rotate(-14.7061 227.052 367.613)" stroke="white" stroke-width="2.19402"/>
</g>
<g filter="url(#filter47_f_267_561)">
<path d="M326.091 450.974L239.974 369.799" stroke="white" stroke-width="2.19402"/>
</g>
<g filter="url(#filter48_f_267_561)">
<path d="M88.5866 193.729L68.0784 280.392M37.5757 409.291L58.9674 318.788" stroke="white" stroke-width="2.19402"/>
</g>
<g filter="url(#filter49_f_267_561)">
<path d="M212 206.893L233.94 364.862" stroke="white" stroke-width="2.19402"/>
</g>
<g filter="url(#filter50_f_267_561)">
<path d="M373.261 365.412L414.947 379.438M547.685 424.102L460.473 394.757L445.115 389.589" stroke="white" stroke-width="2.19402"/>
</g>
<defs>
<filter id="filter0_f_267_561" x="322.614" y="122.098" width="79.3538" height="114.739" filterUnits="userSpaceOnUse" color-interpolation-filters="sRGB">
<feFlood flood-opacity="0" result="BackgroundImageFix"/>
<feBlend mode="normal" in="SourceGraphic" in2="BackgroundImageFix" result="shape"/>
<feGaussianBlur stdDeviation="7.29511" result="effect1_foregroundBlur_267_561"/>
</filter>
<filter id="filter1_g_267_561" x="46.0004" y="269.437" width="35.5119" height="63.8728" filterUnits="userSpaceOnUse" color-interpolation-filters="sRGB">
<feFlood flood-opacity="0" result="BackgroundImageFix"/>
<feBlend mode="normal" in="SourceGraphic" in2="BackgroundImageFix" result="shape"/>
<feTurbulence type="fractalNoise" baseFrequency="0.60391438007354736 0.60391438007354736" numOctaves="3" seed="3696" />
<feDisplacementMap in="shape" scale="23.844438552856445" xChannelSelector="R" yChannelSelector="G" result="displacedImage" width="100%" height="100%" />
<feMerge result="effect1_texture_267_561">
<feMergeNode in="displacedImage"/>
</feMerge>
</filter>
<filter id="filter2_g_267_561" x="0.690239" y="223.341" width="125.629" height="154.909" filterUnits="userSpaceOnUse" color-interpolation-filters="sRGB">
<feFlood flood-opacity="0" result="BackgroundImageFix"/>
<feBlend mode="normal" in="SourceGraphic" in2="BackgroundImageFix" result="shape"/>
<feTurbulence type="fractalNoise" baseFrequency="0.60391443967819214 0.60391443967819214" numOctaves="3" seed="3696" />
<feDisplacementMap in="shape" scale="114.75135803222656" xChannelSelector="R" yChannelSelector="G" result="displacedImage" width="100%" height="100%" />
<feMerge result="effect1_texture_267_561">
<feMergeNode in="displacedImage"/>
</feMerge>
</filter>
<filter id="filter3_g_267_561" x="46.0004" y="269.437" width="35.5119" height="63.8728" filterUnits="userSpaceOnUse" color-interpolation-filters="sRGB">
<feFlood flood-opacity="0" result="BackgroundImageFix"/>
<feBlend mode="normal" in="SourceGraphic" in2="BackgroundImageFix" result="shape"/>
<feTurbulence type="fractalNoise" baseFrequency="0.60391438007354736 0.60391438007354736" numOctaves="3" seed="3696" />
<feDisplacementMap in="shape" scale="23.844438552856445" xChannelSelector="R" yChannelSelector="G" result="displacedImage" width="100%" height="100%" />
<feMerge result="effect1_texture_267_561">
<feMergeNode in="displacedImage"/>
</feMerge>
</filter>
<filter id="filter4_g_267_561" x="0.690239" y="223.341" width="125.629" height="154.909" filterUnits="userSpaceOnUse" color-interpolation-filters="sRGB">
<feFlood flood-opacity="0" result="BackgroundImageFix"/>
<feBlend mode="normal" in="SourceGraphic" in2="BackgroundImageFix" result="shape"/>
<feTurbulence type="fractalNoise" baseFrequency="0.60391443967819214 0.60391443967819214" numOctaves="3" seed="3696" />
<feDisplacementMap in="shape" scale="114.75135803222656" xChannelSelector="R" yChannelSelector="G" result="displacedImage" width="100%" height="100%" />
<feMerge result="effect1_texture_267_561">
<feMergeNode in="displacedImage"/>
</feMerge>
</filter>
<filter id="filter5_g_267_561" x="162.142" y="451.483" width="31.3698" height="64.3649" filterUnits="userSpaceOnUse" color-interpolation-filters="sRGB">
<feFlood flood-opacity="0" result="BackgroundImageFix"/>
<feBlend mode="normal" in="SourceGraphic" in2="BackgroundImageFix" result="shape"/>
<feTurbulence type="fractalNoise" baseFrequency="0.60391432046890259 0.60391432046890259" numOctaves="3" seed="3696" />
<feDisplacementMap in="shape" scale="23.844440460205078" xChannelSelector="R" yChannelSelector="G" result="displacedImage" width="100%" height="100%" />
<feMerge result="effect1_texture_267_561">
<feMergeNode in="displacedImage"/>
</feMerge>
</filter>
<filter id="filter6_g_267_561" x="116.783" y="405.459" width="121.467" height="155.317" filterUnits="userSpaceOnUse" color-interpolation-filters="sRGB">
<feFlood flood-opacity="0" result="BackgroundImageFix"/>
<feBlend mode="normal" in="SourceGraphic" in2="BackgroundImageFix" result="shape"/>
<feTurbulence type="fractalNoise" baseFrequency="0.60391432046890259 0.60391432046890259" numOctaves="3" seed="3696" />
<feDisplacementMap in="shape" scale="114.75138092041016" xChannelSelector="R" yChannelSelector="G" result="displacedImage" width="100%" height="100%" />
<feMerge result="effect1_texture_267_561">
<feMergeNode in="displacedImage"/>
</feMerge>
</filter>
<filter id="filter7_g_267_561" x="564.995" y="315.844" width="41.2238" height="62.3981" filterUnits="userSpaceOnUse" color-interpolation-filters="sRGB">
<feFlood flood-opacity="0" result="BackgroundImageFix"/>
<feBlend mode="normal" in="SourceGraphic" in2="BackgroundImageFix" result="shape"/>
<feTurbulence type="fractalNoise" baseFrequency="0.60391438007354736 0.60391438007354736" numOctaves="3" seed="3696" />
<feDisplacementMap in="shape" scale="23.844438552856445" xChannelSelector="R" yChannelSelector="G" result="displacedImage" width="100%" height="100%" />
<feMerge result="effect1_texture_267_561">
<feMergeNode in="displacedImage"/>
</feMerge>
</filter>
<filter id="filter8_g_267_561" x="519.752" y="269.658" width="131.383" height="153.554" filterUnits="userSpaceOnUse" color-interpolation-filters="sRGB">
<feFlood flood-opacity="0" result="BackgroundImageFix"/>
<feBlend mode="normal" in="SourceGraphic" in2="BackgroundImageFix" result="shape"/>
<feTurbulence type="fractalNoise" baseFrequency="0.60391432046890259 0.60391432046890259" numOctaves="3" seed="3696" />
<feDisplacementMap in="shape" scale="114.75138092041016" xChannelSelector="R" yChannelSelector="G" result="displacedImage" width="100%" height="100%" />
<feMerge result="effect1_texture_267_561">
<feMergeNode in="displacedImage"/>
</feMerge>
</filter>
<filter id="filter9_g_267_561" x="564.995" y="315.844" width="41.2238" height="62.3981" filterUnits="userSpaceOnUse" color-interpolation-filters="sRGB">
<feFlood flood-opacity="0" result="BackgroundImageFix"/>
<feBlend mode="normal" in="SourceGraphic" in2="BackgroundImageFix" result="shape"/>
<feTurbulence type="fractalNoise" baseFrequency="0.60391438007354736 0.60391438007354736" numOctaves="3" seed="3696" />
<feDisplacementMap in="shape" scale="23.844438552856445" xChannelSelector="R" yChannelSelector="G" result="displacedImage" width="100%" height="100%" />
<feMerge result="effect1_texture_267_561">
<feMergeNode in="displacedImage"/>
</feMerge>
</filter>
<filter id="filter10_g_267_561" x="519.752" y="269.658" width="131.383" height="153.554" filterUnits="userSpaceOnUse" color-interpolation-filters="sRGB">
<feFlood flood-opacity="0" result="BackgroundImageFix"/>
<feBlend mode="normal" in="SourceGraphic" in2="BackgroundImageFix" result="shape"/>
<feTurbulence type="fractalNoise" baseFrequency="0.60391432046890259 0.60391432046890259" numOctaves="3" seed="3696" />
<feDisplacementMap in="shape" scale="114.75138092041016" xChannelSelector="R" yChannelSelector="G" result="displacedImage" width="100%" height="100%" />
<feMerge result="effect1_texture_267_561">
<feMergeNode in="displacedImage"/>
</feMerge>
</filter>
<filter id="filter11_g_267_561" x="399.846" y="365.673" width="63.4108" height="37.7492" filterUnits="userSpaceOnUse" color-interpolation-filters="sRGB">
<feFlood flood-opacity="0" result="BackgroundImageFix"/>
<feBlend mode="normal" in="SourceGraphic" in2="BackgroundImageFix" result="shape"/>
<feTurbulence type="fractalNoise" baseFrequency="0.60391438007354736 0.60391438007354736" numOctaves="3" seed="3696" />
<feDisplacementMap in="shape" scale="23.844438552856445" xChannelSelector="R" yChannelSelector="G" result="displacedImage" width="100%" height="100%" />
<feMerge result="effect1_texture_267_561">
<feMergeNode in="displacedImage"/>
</feMerge>
</filter>
<filter id="filter12_g_267_561" x="354.894" y="320.388" width="154.494" height="127.88" filterUnits="userSpaceOnUse" color-interpolation-filters="sRGB">
<feFlood flood-opacity="0" result="BackgroundImageFix"/>
<feBlend mode="normal" in="SourceGraphic" in2="BackgroundImageFix" result="shape"/>
<feTurbulence type="fractalNoise" baseFrequency="0.60391432046890259 0.60391432046890259" numOctaves="3" seed="3696" />
<feDisplacementMap in="shape" scale="114.75138092041016" xChannelSelector="R" yChannelSelector="G" result="displacedImage" width="100%" height="100%" />
<feMerge result="effect1_texture_267_561">
<feMergeNode in="displacedImage"/>
</feMerge>
</filter>
<filter id="filter13_g_267_561" x="399.846" y="365.673" width="63.4108" height="37.7492" filterUnits="userSpaceOnUse" color-interpolation-filters="sRGB">
<feFlood flood-opacity="0" result="BackgroundImageFix"/>
<feBlend mode="normal" in="SourceGraphic" in2="BackgroundImageFix" result="shape"/>
<feTurbulence type="fractalNoise" baseFrequency="0.60391438007354736 0.60391438007354736" numOctaves="3" seed="3696" />
<feDisplacementMap in="shape" scale="23.844438552856445" xChannelSelector="R" yChannelSelector="G" result="displacedImage" width="100%" height="100%" />
<feMerge result="effect1_texture_267_561">
<feMergeNode in="displacedImage"/>
</feMerge>
</filter>
<filter id="filter14_g_267_561" x="354.894" y="320.388" width="154.494" height="127.88" filterUnits="userSpaceOnUse" color-interpolation-filters="sRGB">
<feFlood flood-opacity="0" result="BackgroundImageFix"/>
<feBlend mode="normal" in="SourceGraphic" in2="BackgroundImageFix" result="shape"/>
<feTurbulence type="fractalNoise" baseFrequency="0.60391432046890259 0.60391432046890259" numOctaves="3" seed="3696" />
<feDisplacementMap in="shape" scale="114.75138092041016" xChannelSelector="R" yChannelSelector="G" result="displacedImage" width="100%" height="100%" />
<feMerge result="effect1_texture_267_561">
<feMergeNode in="displacedImage"/>
</feMerge>
</filter>
<filter id="filter15_g_267_561" x="320.818" y="267.674" width="27.6911" height="64.4323" filterUnits="userSpaceOnUse" color-interpolation-filters="sRGB">
<feFlood flood-opacity="0" result="BackgroundImageFix"/>
<feBlend mode="normal" in="SourceGraphic" in2="BackgroundImageFix" result="shape"/>
<feTurbulence type="fractalNoise" baseFrequency="0.60391438007354736 0.60391438007354736" numOctaves="3" seed="3696" />
<feDisplacementMap in="shape" scale="23.844438552856445" xChannelSelector="R" yChannelSelector="G" result="displacedImage" width="100%" height="100%" />
<feMerge result="effect1_texture_267_561">
<feMergeNode in="displacedImage"/>
</feMerge>
</filter>
<filter id="filter16_g_267_561" x="276.133" y="222.749" width="117.78" height="155.317" filterUnits="userSpaceOnUse" color-interpolation-filters="sRGB">
<feFlood flood-opacity="0" result="BackgroundImageFix"/>
<feBlend mode="normal" in="SourceGraphic" in2="BackgroundImageFix" result="shape"/>
<feTurbulence type="fractalNoise" baseFrequency="0.60391438007354736 0.60391438007354736" numOctaves="3" seed="3696" />
<feDisplacementMap in="shape" scale="114.75137329101562" xChannelSelector="R" yChannelSelector="G" result="displacedImage" width="100%" height="100%" />
<feMerge result="effect1_texture_267_561">
<feMergeNode in="displacedImage"/>
</feMerge>
</filter>
<filter id="filter17_g_267_561" x="318.699" y="384.547" width="27.424" height="60.216" filterUnits="userSpaceOnUse" color-interpolation-filters="sRGB">
<feFlood flood-opacity="0" result="BackgroundImageFix"/>
<feBlend mode="normal" in="SourceGraphic" in2="BackgroundImageFix" result="shape"/>
<feTurbulence type="fractalNoise" baseFrequency="0.60391432046890259 0.60391432046890259" numOctaves="3" seed="3696" />
<feDisplacementMap in="shape" scale="23.844440460205078" xChannelSelector="R" yChannelSelector="G" result="displacedImage" width="100%" height="100%" />
<feMerge result="effect1_texture_267_561">
<feMergeNode in="displacedImage"/>
</feMerge>
</filter>
<filter id="filter18_g_267_561" x="273.229" y="339.527" width="119.137" height="151.092" filterUnits="userSpaceOnUse" color-interpolation-filters="sRGB">
<feFlood flood-opacity="0" result="BackgroundImageFix"/>
<feBlend mode="normal" in="SourceGraphic" in2="BackgroundImageFix" result="shape"/>
<feTurbulence type="fractalNoise" baseFrequency="0.60391432046890259 0.60391432046890259" numOctaves="3" seed="3696" />
<feDisplacementMap in="shape" scale="114.75138092041016" xChannelSelector="R" yChannelSelector="G" result="displacedImage" width="100%" height="100%" />
<feMerge result="effect1_texture_267_561">
<feMergeNode in="displacedImage"/>
</feMerge>
</filter>
<filter id="filter19_g_267_561" x="154.791" y="357.495" width="35.3549" height="63.9699" filterUnits="userSpaceOnUse" color-interpolation-filters="sRGB">
<feFlood flood-opacity="0" result="BackgroundImageFix"/>
<feBlend mode="normal" in="SourceGraphic" in2="BackgroundImageFix" result="shape"/>
<feTurbulence type="fractalNoise" baseFrequency="0.60391432046890259 0.60391432046890259" numOctaves="3" seed="3696" />
<feDisplacementMap in="shape" scale="23.844440460205078" xChannelSelector="R" yChannelSelector="G" result="displacedImage" width="100%" height="100%" />
<feMerge result="effect1_texture_267_561">
<feMergeNode in="displacedImage"/>
</feMerge>
</filter>
<filter id="filter20_g_267_561" x="108.465" y="311.705" width="127.048" height="154.733" filterUnits="userSpaceOnUse" color-interpolation-filters="sRGB">
<feFlood flood-opacity="0" result="BackgroundImageFix"/>
<feBlend mode="normal" in="SourceGraphic" in2="BackgroundImageFix" result="shape"/>
<feTurbulence type="fractalNoise" baseFrequency="0.60391432046890259 0.60391432046890259" numOctaves="3" seed="3696" />
<feDisplacementMap in="shape" scale="114.75138092041016" xChannelSelector="R" yChannelSelector="G" result="displacedImage" width="100%" height="100%" />
<feMerge result="effect1_texture_267_561">
<feMergeNode in="displacedImage"/>
</feMerge>
</filter>
<filter id="filter21_g_267_561" x="154.79" y="357.493" width="35.3562" height="63.9704" filterUnits="userSpaceOnUse" color-interpolation-filters="sRGB">
<feFlood flood-opacity="0" result="BackgroundImageFix"/>
<feBlend mode="normal" in="SourceGraphic" in2="BackgroundImageFix" result="shape"/>
<feTurbulence type="fractalNoise" baseFrequency="0.60391432046890259 0.60391432046890259" numOctaves="3" seed="3696" />
<feDisplacementMap in="shape" scale="23.844440460205078" xChannelSelector="R" yChannelSelector="G" result="displacedImage" width="100%" height="100%" />
<feMerge result="effect1_texture_267_561">
<feMergeNode in="displacedImage"/>
</feMerge>
</filter>
<filter id="filter22_g_267_561" x="108.464" y="311.705" width="127.048" height="154.733" filterUnits="userSpaceOnUse" color-interpolation-filters="sRGB">
<feFlood flood-opacity="0" result="BackgroundImageFix"/>
<feBlend mode="normal" in="SourceGraphic" in2="BackgroundImageFix" result="shape"/>
<feTurbulence type="fractalNoise" baseFrequency="0.60391432046890259 0.60391432046890259" numOctaves="3" seed="3696" />
<feDisplacementMap in="shape" scale="114.75138092041016" xChannelSelector="R" yChannelSelector="G" result="displacedImage" width="100%" height="100%" />
<feMerge result="effect1_texture_267_561">
<feMergeNode in="displacedImage"/>
</feMerge>
</filter>
<filter id="filter23_g_267_561" x="243.491" y="196.879" width="63.7038" height="36.4074" filterUnits="userSpaceOnUse" color-interpolation-filters="sRGB">
<feFlood flood-opacity="0" result="BackgroundImageFix"/>
<feBlend mode="normal" in="SourceGraphic" in2="BackgroundImageFix" result="shape"/>
<feTurbulence type="fractalNoise" baseFrequency="0.60391432046890259 0.60391432046890259" numOctaves="3" seed="3696" />
<feDisplacementMap in="shape" scale="23.844440460205078" xChannelSelector="R" yChannelSelector="G" result="displacedImage" width="100%" height="100%" />
<feMerge result="effect1_texture_267_561">
<feMergeNode in="displacedImage"/>
</feMerge>
</filter>
<filter id="filter24_g_267_561" x="197.38" y="152.056" width="154.76" height="126.53" filterUnits="userSpaceOnUse" color-interpolation-filters="sRGB">
<feFlood flood-opacity="0" result="BackgroundImageFix"/>
<feBlend mode="normal" in="SourceGraphic" in2="BackgroundImageFix" result="shape"/>
<feTurbulence type="fractalNoise" baseFrequency="0.60391438007354736 0.60391438007354736" numOctaves="3" seed="3696" />
<feDisplacementMap in="shape" scale="114.75137329101562" xChannelSelector="R" yChannelSelector="G" result="displacedImage" width="100%" height="100%" />
<feMerge result="effect1_texture_267_561">
<feMergeNode in="displacedImage"/>
</feMerge>
</filter>
<filter id="filter25_g_267_561" x="243.491" y="196.879" width="63.7038" height="36.4074" filterUnits="userSpaceOnUse" color-interpolation-filters="sRGB">
<feFlood flood-opacity="0" result="BackgroundImageFix"/>
<feBlend mode="normal" in="SourceGraphic" in2="BackgroundImageFix" result="shape"/>
<feTurbulence type="fractalNoise" baseFrequency="0.60391432046890259 0.60391432046890259" numOctaves="3" seed="3696" />
<feDisplacementMap in="shape" scale="23.844440460205078" xChannelSelector="R" yChannelSelector="G" result="displacedImage" width="100%" height="100%" />
<feMerge result="effect1_texture_267_561">
<feMergeNode in="displacedImage"/>
</feMerge>
</filter>
<filter id="filter26_g_267_561" x="197.38" y="152.056" width="154.76" height="126.53" filterUnits="userSpaceOnUse" color-interpolation-filters="sRGB">
<feFlood flood-opacity="0" result="BackgroundImageFix"/>
<feBlend mode="normal" in="SourceGraphic" in2="BackgroundImageFix" result="shape"/>
<feTurbulence type="fractalNoise" baseFrequency="0.60391438007354736 0.60391438007354736" numOctaves="3" seed="3696" />
<feDisplacementMap in="shape" scale="114.75137329101562" xChannelSelector="R" yChannelSelector="G" result="displacedImage" width="100%" height="100%" />
<feMerge result="effect1_texture_267_561">
<feMergeNode in="displacedImage"/>
</feMerge>
</filter>
<filter id="filter27_g_267_561" x="336.305" y="153.188" width="46.4856" height="60.0827" filterUnits="userSpaceOnUse" color-interpolation-filters="sRGB">
<feFlood flood-opacity="0" result="BackgroundImageFix"/>
<feBlend mode="normal" in="SourceGraphic" in2="BackgroundImageFix" result="shape"/>
<feTurbulence type="fractalNoise" baseFrequency="0.60391438007354736 0.60391438007354736" numOctaves="3" seed="3696" />
<feDisplacementMap in="shape" scale="23.844438552856445" xChannelSelector="R" yChannelSelector="G" result="displacedImage" width="100%" height="100%" />
<feMerge result="effect1_texture_267_561">
<feMergeNode in="displacedImage"/>
</feMerge>
</filter>
<filter id="filter28_g_267_561" x="291.266" y="108.179" width="136.705" height="151.352" filterUnits="userSpaceOnUse" color-interpolation-filters="sRGB">
<feFlood flood-opacity="0" result="BackgroundImageFix"/>
<feBlend mode="normal" in="SourceGraphic" in2="BackgroundImageFix" result="shape"/>
<feTurbulence type="fractalNoise" baseFrequency="0.60391432046890259 0.60391432046890259" numOctaves="3" seed="3696" />
<feDisplacementMap in="shape" scale="114.75138092041016" xChannelSelector="R" yChannelSelector="G" result="displacedImage" width="100%" height="100%" />
<feMerge result="effect1_texture_267_561">
<feMergeNode in="displacedImage"/>
</feMerge>
</filter>
<filter id="filter29_f_267_561" x="527.372" y="159.175" width="154.168" height="285.219" filterUnits="userSpaceOnUse" color-interpolation-filters="sRGB">
<feFlood flood-opacity="0" result="BackgroundImageFix"/>
<feBlend mode="normal" in="SourceGraphic" in2="BackgroundImageFix" result="shape"/>
<feGaussianBlur stdDeviation="12.6705" result="effect1_foregroundBlur_267_561"/>
</filter>
<filter id="filter30_f_267_561" x="528.107" y="253.226" width="176.283" height="191.46" filterUnits="userSpaceOnUse" color-interpolation-filters="sRGB">
<feFlood flood-opacity="0" result="BackgroundImageFix"/>
<feBlend mode="normal" in="SourceGraphic" in2="BackgroundImageFix" result="shape"/>
<feGaussianBlur stdDeviation="12.6705" result="effect1_foregroundBlur_267_561"/>
</filter>
<filter id="filter31_f_267_561" x="528.158" y="405.107" width="114.749" height="113.679" filterUnits="userSpaceOnUse" color-interpolation-filters="sRGB">
<feFlood flood-opacity="0" result="BackgroundImageFix"/>
<feBlend mode="normal" in="SourceGraphic" in2="BackgroundImageFix" result="shape"/>
<feGaussianBlur stdDeviation="12.6705" result="effect1_foregroundBlur_267_561"/>
</filter>
<filter id="filter32_f_267_561" x="158.903" y="347.641" width="95.7729" height="110.134" filterUnits="userSpaceOnUse" color-interpolation-filters="sRGB">
<feFlood flood-opacity="0" result="BackgroundImageFix"/>
<feBlend mode="normal" in="SourceGraphic" in2="BackgroundImageFix" result="shape"/>
<feGaussianBlur stdDeviation="12.6705" result="effect1_foregroundBlur_267_561"/>
</filter>
<filter id="filter33_f_267_561" x="15.9071" y="389.449" width="185.949" height="73.6931" filterUnits="userSpaceOnUse" color-interpolation-filters="sRGB">
<feFlood flood-opacity="0" result="BackgroundImageFix"/>
<feBlend mode="normal" in="SourceGraphic" in2="BackgroundImageFix" result="shape"/>
<feGaussianBlur stdDeviation="12.6705" result="effect1_foregroundBlur_267_561"/>
</filter>
<filter id="filter34_f_267_561" x="146.077" y="418.928" width="62.1862" height="133.208" filterUnits="userSpaceOnUse" color-interpolation-filters="sRGB">
<feFlood flood-opacity="0" result="BackgroundImageFix"/>
<feBlend mode="normal" in="SourceGraphic" in2="BackgroundImageFix" result="shape"/>
<feGaussianBlur stdDeviation="12.6705" result="effect1_foregroundBlur_267_561"/>
</filter>
<filter id="filter35_f_267_561" x="136.226" y="323.912" width="72.0154" height="132.911" filterUnits="userSpaceOnUse" color-interpolation-filters="sRGB">
<feFlood flood-opacity="0" result="BackgroundImageFix"/>
<feBlend mode="normal" in="SourceGraphic" in2="BackgroundImageFix" result="shape"/>
<feGaussianBlur stdDeviation="12.6705" result="effect1_foregroundBlur_267_561"/>
</filter>
<filter id="filter36_f_267_561" x="306.234" y="208.939" width="56.7141" height="161.556" filterUnits="userSpaceOnUse" color-interpolation-filters="sRGB">
<feFlood flood-opacity="0" result="BackgroundImageFix"/>
<feBlend mode="normal" in="SourceGraphic" in2="BackgroundImageFix" result="shape"/>
<feGaussianBlur stdDeviation="12.6705" result="effect1_foregroundBlur_267_561"/>
</filter>
<filter id="filter37_f_267_561" x="192.989" y="175.547" width="163.075" height="78.5984" filterUnits="userSpaceOnUse" color-interpolation-filters="sRGB">
<feFlood flood-opacity="0" result="BackgroundImageFix"/>
<feBlend mode="normal" in="SourceGraphic" in2="BackgroundImageFix" result="shape"/>
<feGaussianBlur stdDeviation="12.6705" result="effect1_foregroundBlur_267_561"/>
</filter>
<filter id="filter38_f_267_561" x="258.513" y="319.226" width="141.734" height="91.2712" filterUnits="userSpaceOnUse" color-interpolation-filters="sRGB">
<feFlood flood-opacity="0" result="BackgroundImageFix"/>
<feBlend mode="normal" in="SourceGraphic" in2="BackgroundImageFix" result="shape"/>
<feGaussianBlur stdDeviation="12.6705" result="effect1_foregroundBlur_267_561"/>
</filter>
<filter id="filter39_f_267_561" x="647.953" y="239.144" width="70.7942" height="70.7942" filterUnits="userSpaceOnUse" color-interpolation-filters="sRGB">
<feFlood flood-opacity="0" result="BackgroundImageFix"/>
<feBlend mode="normal" in="SourceGraphic" in2="BackgroundImageFix" result="shape"/>
<feGaussianBlur stdDeviation="12.6705" result="effect1_foregroundBlur_267_561"/>
</filter>
<filter id="filter40_f_267_561" x="622.721" y="144.803" width="69.4914" height="69.4914" filterUnits="userSpaceOnUse" color-interpolation-filters="sRGB">
<feFlood flood-opacity="0" result="BackgroundImageFix"/>
<feBlend mode="normal" in="SourceGraphic" in2="BackgroundImageFix" result="shape"/>
<feGaussianBlur stdDeviation="12.6705" result="effect1_foregroundBlur_267_561"/>
</filter>
<filter id="filter41_f_267_561" x="586.411" y="461.729" width="70.8142" height="70.8142" filterUnits="userSpaceOnUse" color-interpolation-filters="sRGB">
<feFlood flood-opacity="0" result="BackgroundImageFix"/>
<feBlend mode="normal" in="SourceGraphic" in2="BackgroundImageFix" result="shape"/>
<feGaussianBlur stdDeviation="12.6705" result="effect1_foregroundBlur_267_561"/>
</filter>
<filter id="filter42_f_267_561" x="300.2" y="417.957" width="64.9177" height="64.9177" filterUnits="userSpaceOnUse" color-interpolation-filters="sRGB">
<feFlood flood-opacity="0" result="BackgroundImageFix"/>
<feBlend mode="normal" in="SourceGraphic" in2="BackgroundImageFix" result="shape"/>
<feGaussianBlur stdDeviation="12.6705" result="effect1_foregroundBlur_267_561"/>
</filter>
<filter id="filter43_f_267_561" x="521.796" y="392.726" width="64.9177" height="64.9177" filterUnits="userSpaceOnUse" color-interpolation-filters="sRGB">
<feFlood flood-opacity="0" result="BackgroundImageFix"/>
<feBlend mode="normal" in="SourceGraphic" in2="BackgroundImageFix" result="shape"/>
<feGaussianBlur stdDeviation="12.6705" result="effect1_foregroundBlur_267_561"/>
</filter>
<filter id="filter44_f_267_561" x="1.65907" y="380.504" width="67.8943" height="67.8943" filterUnits="userSpaceOnUse" color-interpolation-filters="sRGB">
<feFlood flood-opacity="0" result="BackgroundImageFix"/>
<feBlend mode="normal" in="SourceGraphic" in2="BackgroundImageFix" result="shape"/>
<feGaussianBlur stdDeviation="12.6705" result="effect1_foregroundBlur_267_561"/>
</filter>
<filter id="filter45_f_267_561" x="126.702" y="309.183" width="68.0649" height="68.0652" filterUnits="userSpaceOnUse" color-interpolation-filters="sRGB">
<feFlood flood-opacity="0" result="BackgroundImageFix"/>
<feBlend mode="normal" in="SourceGraphic" in2="BackgroundImageFix" result="shape"/>
<feGaussianBlur stdDeviation="12.6705" result="effect1_foregroundBlur_267_561"/>
</filter>
<filter id="filter46_f_267_561" x="200.372" y="337.876" width="68.0649" height="68.0652" filterUnits="userSpaceOnUse" color-interpolation-filters="sRGB">
<feFlood flood-opacity="0" result="BackgroundImageFix"/>
<feBlend mode="normal" in="SourceGraphic" in2="BackgroundImageFix" result="shape"/>
<feGaussianBlur stdDeviation="12.6705" result="effect1_foregroundBlur_267_561"/>
</filter>
<filter id="filter47_f_267_561" x="213.881" y="343.66" width="138.304" height="133.454" filterUnits="userSpaceOnUse" color-interpolation-filters="sRGB">
<feFlood flood-opacity="0" result="BackgroundImageFix"/>
<feBlend mode="normal" in="SourceGraphic" in2="BackgroundImageFix" result="shape"/>
<feGaussianBlur stdDeviation="12.6705" result="effect1_foregroundBlur_267_561"/>
</filter>
<filter id="filter48_f_267_561" x="11.1671" y="168.135" width="103.828" height="266.749" filterUnits="userSpaceOnUse" color-interpolation-filters="sRGB">
<feFlood flood-opacity="0" result="BackgroundImageFix"/>
<feBlend mode="normal" in="SourceGraphic" in2="BackgroundImageFix" result="shape"/>
<feGaussianBlur stdDeviation="12.6705" result="effect1_foregroundBlur_267_561"/>
</filter>
<filter id="filter49_f_267_561" x="185.573" y="181.401" width="74.7954" height="208.953" filterUnits="userSpaceOnUse" color-interpolation-filters="sRGB">
<feFlood flood-opacity="0" result="BackgroundImageFix"/>
<feBlend mode="normal" in="SourceGraphic" in2="BackgroundImageFix" result="shape"/>
<feGaussianBlur stdDeviation="12.6705" result="effect1_foregroundBlur_267_561"/>
</filter>
<filter id="filter50_f_267_561" x="347.57" y="339.031" width="225.806" height="111.451" filterUnits="userSpaceOnUse" color-interpolation-filters="sRGB">
<feFlood flood-opacity="0" result="BackgroundImageFix"/>
<feBlend mode="normal" in="SourceGraphic" in2="BackgroundImageFix" result="shape"/>
<feGaussianBlur stdDeviation="12.6705" result="effect1_foregroundBlur_267_561"/>
</filter>
</defs>
</svg>
