<svg width="149" height="141" viewBox="0 0 149 141" fill="none" xmlns="http://www.w3.org/2000/svg">
<line x1="5.5" x2="5.5" y2="11" stroke="white"/>
<line y1="5.5" x2="11" y2="5.5" stroke="white"/>
<line x1="143.5" x2="143.5" y2="11" stroke="white"/>
<line x1="138" y1="5.5" x2="149" y2="5.5" stroke="white"/>
<line x1="5.5" y1="130" x2="5.5" y2="141" stroke="white"/>
<line y1="135.5" x2="11" y2="135.5" stroke="white"/>
<line x1="143.5" y1="130" x2="143.5" y2="141" stroke="white"/>
<line x1="138" y1="135.5" x2="149" y2="135.5" stroke="white"/>
<path d="M20.3985 32.7726L17.558 43.3256H16.1937L19.0342 32.7726H20.3985ZM24.9907 32.7726L22.1502 43.3256H20.7859L23.6264 32.7726H24.9907ZM36.6046 36.1597H34.995C34.9491 35.8957 34.8644 35.6619 34.7411 35.4582C34.6177 35.2516 34.4642 35.0766 34.2805 34.9331C34.0969 34.7896 33.8875 34.682 33.6522 34.6103C33.4198 34.5357 33.1687 34.4984 32.899 34.4984C32.4199 34.4984 31.9952 34.6189 31.6251 34.8599C31.255 35.0981 30.9652 35.4481 30.7557 35.9101C30.5463 36.3691 30.4415 36.9301 30.4415 37.5929C30.4415 38.2671 30.5463 38.8352 30.7557 39.2972C30.968 39.7563 31.2578 40.1034 31.6251 40.3387C31.9952 40.5711 32.4184 40.6873 32.8947 40.6873C33.1587 40.6873 33.4054 40.6529 33.635 40.584C33.8674 40.5123 34.0754 40.4076 34.259 40.2699C34.4455 40.1321 34.6019 39.9629 34.7281 39.762C34.8573 39.5612 34.9462 39.3316 34.995 39.0734L36.6046 39.082C36.5444 39.5009 36.4138 39.894 36.213 40.2612C36.015 40.6285 35.7553 40.9527 35.434 41.2339C35.1126 41.5122 34.7368 41.7303 34.3064 41.8881C33.876 42.043 33.3983 42.1205 32.8732 42.1205C32.0985 42.1205 31.407 41.9412 30.7987 41.5825C30.1905 41.2239 29.7113 40.706 29.3613 40.0288C29.0112 39.3517 28.8362 38.5397 28.8362 37.5929C28.8362 36.6432 29.0127 35.8312 29.3656 35.1569C29.7185 34.4798 30.1991 33.9619 30.8074 33.6032C31.4156 33.2446 32.1042 33.0652 32.8732 33.0652C33.3638 33.0652 33.82 33.1341 34.2418 33.2718C34.6636 33.4095 35.0395 33.6118 35.3694 33.8787C35.6994 34.1426 35.9705 34.4668 36.1828 34.8513C36.398 35.2329 36.5386 35.6691 36.6046 36.1597ZM45.9429 37.5929C45.9429 38.5426 45.765 39.356 45.4092 40.0331C45.0563 40.7074 44.5743 41.2239 43.9631 41.5825C43.3548 41.9412 42.6648 42.1205 41.893 42.1205C41.1211 42.1205 40.4297 41.9412 39.8185 41.5825C39.2102 41.221 38.7282 40.7031 38.3724 40.0288C38.0195 39.3517 37.8431 38.5397 37.8431 37.5929C37.8431 36.6432 38.0195 35.8312 38.3724 35.1569C38.7282 34.4798 39.2102 33.9619 39.8185 33.6032C40.4297 33.2446 41.1211 33.0652 41.893 33.0652C42.6648 33.0652 43.3548 33.2446 43.9631 33.6032C44.5743 33.9619 45.0563 34.4798 45.4092 35.1569C45.765 35.8312 45.9429 36.6432 45.9429 37.5929ZM44.3375 37.5929C44.3375 36.9243 44.2328 36.3605 44.0234 35.9015C43.8168 35.4395 43.5299 35.0909 43.1626 34.8556C42.7953 34.6175 42.3721 34.4984 41.893 34.4984C41.4138 34.4984 40.9906 34.6175 40.6233 34.8556C40.2561 35.0909 39.9677 35.4395 39.7583 35.9015C39.5517 36.3605 39.4484 36.9243 39.4484 37.5929C39.4484 38.2614 39.5517 38.8266 39.7583 39.2886C39.9677 39.7477 40.2561 40.0963 40.6233 40.3344C40.9906 40.5697 41.4138 40.6873 41.893 40.6873C42.3721 40.6873 42.7953 40.5697 43.1626 40.3344C43.5299 40.0963 43.8168 39.7477 44.0234 39.2886C44.2328 38.8266 44.3375 38.2614 44.3375 37.5929ZM50.5297 42.1205C49.9099 42.1205 49.359 42.0143 48.877 41.802C48.3979 41.5897 48.0191 41.2942 47.7408 40.9154C47.4625 40.5367 47.3147 40.0991 47.2975 39.6028H48.9157C48.9301 39.8409 49.009 40.0489 49.1525 40.2268C49.2959 40.4018 49.4867 40.5381 49.7249 40.6357C49.963 40.7332 50.2299 40.782 50.5254 40.782C50.841 40.782 51.1207 40.7275 51.3646 40.6185C51.6085 40.5066 51.7993 40.3516 51.937 40.1537C52.0748 39.9557 52.1422 39.7276 52.1393 39.4693C52.1422 39.2025 52.0733 38.9672 51.9327 38.7635C51.7921 38.5598 51.5884 38.4006 51.3216 38.2858C51.0576 38.171 50.7391 38.1136 50.3661 38.1136H49.5871V36.8827H50.3661C50.6731 36.8827 50.9414 36.8297 51.171 36.7235C51.4034 36.6173 51.5856 36.4681 51.7175 36.2759C51.8495 36.0808 51.9141 35.8556 51.9112 35.6002C51.9141 35.3506 51.8581 35.1339 51.7434 34.9503C51.6315 34.7638 51.4722 34.6189 51.2656 34.5156C51.0619 34.4123 50.8223 34.3607 50.5469 34.3607C50.2772 34.3607 50.0276 34.4095 49.798 34.507C49.5685 34.6046 49.3834 34.7437 49.2428 34.9245C49.1022 35.1024 49.0276 35.3147 49.019 35.5615H47.4826C47.494 35.068 47.6361 34.6347 47.9087 34.2617C48.1841 33.8858 48.5514 33.5932 49.0104 33.3837C49.4695 33.1714 49.9845 33.0652 50.5555 33.0652C51.1437 33.0652 51.6544 33.1757 52.0877 33.3966C52.5238 33.6147 52.8609 33.9088 53.0991 34.2789C53.3372 34.649 53.4563 35.0579 53.4563 35.5055C53.4592 36.0019 53.3128 36.4179 53.0173 36.7536C52.7246 37.0893 52.3402 37.3088 51.8639 37.4121V37.481C52.4836 37.567 52.9585 37.7966 53.2884 38.1696C53.6213 38.5397 53.7863 39.0002 53.7834 39.5511C53.7834 40.0446 53.6428 40.4865 53.3616 40.8767C53.0833 41.264 52.6988 41.5682 52.2082 41.7891C51.7204 42.01 51.1609 42.1205 50.5297 42.1205ZM54.7743 44.1261V40.6959H55.364C55.5619 40.5381 55.747 40.3158 55.9192 40.0288C56.0913 39.7419 56.2377 39.3488 56.3582 38.8496C56.4787 38.3503 56.5619 37.7048 56.6078 36.9129L56.8402 33.1857H62.4739V40.6959H63.4552V44.1175H61.923V42H56.3065V44.1261H54.7743ZM57.2232 40.6959H60.9417V34.5242H58.2777L58.1399 36.9129C58.1026 37.5125 58.0424 38.0491 57.9592 38.5225C57.876 38.9959 57.7713 39.4134 57.645 39.7749C57.5188 40.1336 57.3782 40.4406 57.2232 40.6959ZM65.8879 42H64.1836L67.2867 33.1857H69.2578L72.3652 42H70.6609L68.3067 34.9934H68.2378L65.8879 42ZM65.9439 38.544H70.592V39.8266H65.9439V38.544ZM73.5262 42V33.1857H75.1229V36.9172H79.2072V33.1857H80.8083V42H79.2072V38.2557H75.1229V42H73.5262ZM82.5449 33.1857H84.1287V39.1939H84.2104L88.355 33.1857H89.7882V42H88.1915V35.9961H88.1183L83.9608 42H82.5449V33.1857ZM91.528 42V33.1857H97.2608V34.5242H93.1248V36.9172H96.9638V38.2557H93.1248V40.6615H97.2952V42H91.528ZM28.8943 48.1857H30.8482L33.465 54.5726H33.5683L36.185 48.1857H38.1389V57H36.6068V50.9445H36.525L34.089 56.9742H32.9442L30.5082 50.9316H30.4265V57H28.8943V48.1857ZM41.0096 57H39.3053L42.4083 48.1857H44.3795L47.4869 57H45.7826L43.4284 49.9934H43.3595L41.0096 57ZM41.0655 53.544H45.7137V54.8266H41.0655V53.544ZM55.7782 51.1597H54.1686C54.1227 50.8957 54.038 50.6619 53.9147 50.4582C53.7913 50.2516 53.6378 50.0766 53.4541 49.9331C53.2705 49.7896 53.0611 49.682 52.8258 49.6103C52.5934 49.5357 52.3423 49.4984 52.0726 49.4984C51.5935 49.4984 51.1688 49.6189 50.7987 49.8599C50.4285 50.0981 50.1388 50.4481 49.9293 50.9101C49.7198 51.3691 49.6151 51.9301 49.6151 52.5929C49.6151 53.2671 49.7198 53.8352 49.9293 54.2972C50.1416 54.7563 50.4314 55.1034 50.7987 55.3387C51.1688 55.5711 51.592 55.6873 52.0683 55.6873C52.3323 55.6873 52.579 55.6529 52.8086 55.584C53.041 55.5123 53.249 55.4076 53.4326 55.2699C53.6191 55.1321 53.7755 54.9629 53.9017 54.762C54.0309 54.5612 54.1198 54.3316 54.1686 54.0734L55.7782 54.082C55.718 54.5009 55.5874 54.894 55.3866 55.2612C55.1886 55.6285 54.9289 55.9527 54.6076 56.2339C54.2862 56.5122 53.9104 56.7303 53.48 56.8881C53.0496 57.043 52.5719 57.1205 52.0468 57.1205C51.2721 57.1205 50.5806 56.9412 49.9723 56.5825C49.3641 56.2239 48.8849 55.706 48.5349 55.0288C48.1848 54.3517 48.0098 53.5397 48.0098 52.5929C48.0098 51.6432 48.1862 50.8312 48.5392 50.1569C48.8921 49.4798 49.3727 48.9619 49.9809 48.6032C50.5892 48.2446 51.2778 48.0652 52.0468 48.0652C52.5374 48.0652 52.9936 48.1341 53.4154 48.2718C53.8372 48.4095 54.2131 48.6118 54.543 48.8787C54.873 49.1426 55.1441 49.4668 55.3564 49.8513C55.5716 50.2329 55.7122 50.6691 55.7782 51.1597ZM62.5213 57L59.6205 53.1481H58.8372V57H57.2404V48.1857H58.8372V51.8096H59.2374L62.3706 48.1857H64.3375L60.8557 52.2055L64.4881 57H62.5213ZM72.9753 52.5929C72.9753 53.5426 72.7974 54.356 72.4416 55.0331C72.0887 55.7074 71.6067 56.2239 70.9955 56.5825C70.3872 56.9412 69.6972 57.1205 68.9254 57.1205C68.1535 57.1205 67.4621 56.9412 66.8509 56.5825C66.2426 56.221 65.7606 55.7031 65.4048 55.0288C65.0519 54.3517 64.8755 53.5397 64.8755 52.5929C64.8755 51.6432 65.0519 50.8312 65.4048 50.1569C65.7606 49.4798 66.2426 48.9619 66.8509 48.6032C67.4621 48.2446 68.1535 48.0652 68.9254 48.0652C69.6972 48.0652 70.3872 48.2446 70.9955 48.6032C71.6067 48.9619 72.0887 49.4798 72.4416 50.1569C72.7974 50.8312 72.9753 51.6432 72.9753 52.5929ZM71.3699 52.5929C71.3699 51.9243 71.2652 51.3605 71.0558 50.9015C70.8492 50.4395 70.5623 50.0909 70.195 49.8556C69.8277 49.6175 69.4045 49.4984 68.9254 49.4984C68.4462 49.4984 68.023 49.6175 67.6557 49.8556C67.2885 50.0909 67.0001 50.4395 66.7907 50.9015C66.5841 51.3605 66.4808 51.9243 66.4808 52.5929C66.4808 53.2614 66.5841 53.8266 66.7907 54.2886C67.0001 54.7477 67.2885 55.0963 67.6557 55.3344C68.023 55.5697 68.4462 55.6873 68.9254 55.6873C69.4045 55.6873 69.8277 55.5697 70.195 55.3344C70.5623 55.0963 70.8492 54.7477 71.0558 54.2886C71.2652 53.8266 71.3699 53.2614 71.3699 52.5929ZM73.7069 49.5242V48.1857H80.7394V49.5242H78.0151V57H76.4313V49.5242H73.7069ZM82.1618 57H80.4575L83.5606 48.1857H85.5317L88.6391 57H86.9348L84.5806 49.9934H84.5117L82.1618 57ZM82.2178 53.544H86.8659V54.8266H82.2178V53.544ZM30.0262 72H28.3219L31.425 63.1857H33.3961L36.5035 72H34.7992L32.445 64.9934H32.3761L30.0262 72ZM30.0822 68.544H34.7303V69.8266H30.0822V68.544ZM43.3326 63.1857V64.5242H39.2612V72H37.6644V63.1857H43.3326ZM44.6829 72V63.1857H50.4156V64.5242H46.2796V66.9172H50.1187V68.2557H46.2796V70.6615H50.4501V72H44.6829ZM52.0446 72V63.1857H53.6414V66.9172H57.7257V63.1857H59.3267V72H57.7257V68.2557H53.6414V72H52.0446ZM68.608 66.1597H66.9983C66.9524 65.8957 66.8678 65.6619 66.7444 65.4582C66.621 65.2516 66.4675 65.0766 66.2839 64.9331C66.1003 64.7896 65.8908 64.682 65.6555 64.6103C65.4231 64.5357 65.1721 64.4984 64.9024 64.4984C64.4232 64.4984 63.9985 64.6189 63.6284 64.8599C63.2583 65.0981 62.9685 65.4481 62.759 65.9101C62.5496 66.3691 62.4449 66.9301 62.4449 67.5929C62.4449 68.2671 62.5496 68.8352 62.759 69.2972C62.9714 69.7563 63.2612 70.1034 63.6284 70.3387C63.9985 70.5711 64.4218 70.6873 64.898 70.6873C65.162 70.6873 65.4088 70.6529 65.6383 70.584C65.8707 70.5123 66.0787 70.4076 66.2624 70.2699C66.4489 70.1321 66.6052 69.9629 66.7315 69.762C66.8606 69.5612 66.9495 69.3316 66.9983 69.0734L68.608 69.082C68.5477 69.5009 68.4172 69.894 68.2163 70.2612C68.0183 70.6285 67.7587 70.9527 67.4373 71.2339C67.116 71.5122 66.7401 71.7303 66.3097 71.8881C65.8793 72.043 65.4016 72.1205 64.8765 72.1205C64.1018 72.1205 63.4104 71.9412 62.8021 71.5825C62.1938 71.2239 61.7146 70.706 61.3646 70.0288C61.0146 69.3517 60.8395 68.5397 60.8395 67.5929C60.8395 66.6432 61.016 65.8312 61.3689 65.1569C61.7218 64.4798 62.2024 63.9619 62.8107 63.6032C63.419 63.2446 64.1076 63.0652 64.8765 63.0652C65.3672 63.0652 65.8234 63.1341 66.2451 63.2718C66.6669 63.4095 67.0428 63.6118 67.3728 63.8787C67.7027 64.1426 67.9739 64.4668 68.1862 64.8513C68.4014 65.2329 68.542 65.6691 68.608 66.1597ZM69.6828 64.5242V63.1857H76.7153V64.5242H73.991V72H72.4072V64.5242H69.6828ZM78.071 72V63.1857H81.4452C82.0822 63.1857 82.6116 63.2862 83.0333 63.487C83.458 63.685 83.775 63.9561 83.9845 64.3004C84.1968 64.6447 84.303 65.035 84.303 65.4711C84.303 65.8297 84.2341 66.1367 84.0964 66.3921C83.9587 66.6446 83.7736 66.8497 83.5412 67.0075C83.3088 67.1654 83.0491 67.2787 82.7622 67.3476V67.4336C83.0749 67.4508 83.3748 67.547 83.6617 67.722C83.9515 67.8941 84.1882 68.138 84.3718 68.4536C84.5555 68.7693 84.6473 69.1509 84.6473 69.5985C84.6473 70.0547 84.5368 70.465 84.3159 70.8294C84.095 71.1909 83.7621 71.4764 83.3174 71.6858C82.8727 71.8953 82.3132 72 81.6389 72H78.071ZM79.6677 70.6658H81.385C81.9646 70.6658 82.382 70.5553 82.6374 70.3344C82.8956 70.1106 83.0247 69.8237 83.0247 69.4736C83.0247 69.2125 82.9602 68.9773 82.8311 68.7678C82.7019 68.5555 82.5183 68.3891 82.2802 68.2686C82.042 68.1452 81.758 68.0835 81.428 68.0835H79.6677V70.6658ZM79.6677 66.9344H81.2473C81.5227 66.9344 81.7709 66.8842 81.9918 66.7837C82.2127 66.6805 82.3863 66.5356 82.5126 66.3491C82.6417 66.1597 82.7063 65.9359 82.7063 65.6777C82.7063 65.3362 82.5857 65.055 82.3447 64.8341C82.1066 64.6132 81.7522 64.5027 81.2817 64.5027H79.6677V66.9344ZM87.1683 72H85.4639L88.567 63.1857H90.5382L93.6455 72H91.9412L89.587 64.9934H89.5181L87.1683 72ZM87.2242 68.544H91.8723V69.8266H87.2242V68.544ZM20.3985 92.7726L17.558 103.326H16.1937L19.0342 92.7726H20.3985ZM24.9907 92.7726L22.1502 103.326H20.7859L23.6264 92.7726H24.9907ZM32.559 93.1857V102H30.9623V94.7394H30.9106L28.8491 96.0564V94.5931L31.0398 93.1857H32.559ZM38.055 102.168C37.3463 102.168 36.738 101.989 36.2302 101.63C35.7252 101.268 35.3364 100.748 35.0638 100.068C34.7941 99.3847 34.6593 98.5627 34.6593 97.6015C34.6622 96.6403 34.7984 95.8226 35.0682 95.1483C35.3407 94.4712 35.7295 93.9547 36.2345 93.5989C36.7423 93.2431 37.3492 93.0652 38.055 93.0652C38.7608 93.0652 39.3677 93.2431 39.8755 93.5989C40.3834 93.9547 40.7722 94.4712 41.0419 95.1483C41.3145 95.8254 41.4507 96.6432 41.4507 97.6015C41.4507 98.5655 41.3145 99.389 41.0419 100.072C40.7722 100.752 40.3834 101.271 39.8755 101.63C39.3706 101.989 38.7637 102.168 38.055 102.168ZM38.055 100.821C38.6059 100.821 39.0406 100.55 39.3591 100.007C39.6804 99.4622 39.8411 98.6602 39.8411 97.6015C39.8411 96.9014 39.7679 96.3132 39.6216 95.8369C39.4753 95.3606 39.2687 95.002 39.0019 94.7609C38.735 94.5171 38.4194 94.3951 38.055 94.3951C37.507 94.3951 37.0737 94.6677 36.7553 95.2128C36.4368 95.7551 36.2761 96.5513 36.2732 97.6015C36.2704 98.3044 36.3407 98.8955 36.4841 99.3747C36.6304 99.8538 36.837 100.215 37.1039 100.459C37.3707 100.7 37.6878 100.821 38.055 100.821ZM48.1572 96.9516V98.2341H42.0974V96.9516H48.1572ZM52.1985 102.168C51.4898 102.168 50.8815 101.989 50.3737 101.63C49.8687 101.268 49.4799 100.748 49.2073 100.068C48.9376 99.3847 48.8028 98.5627 48.8028 97.6015C48.8056 96.6403 48.9419 95.8226 49.2116 95.1483C49.4842 94.4712 49.873 93.9547 50.378 93.5989C50.8858 93.2431 51.4927 93.0652 52.1985 93.0652C52.9043 93.0652 53.5112 93.2431 54.019 93.5989C54.5269 93.9547 54.9157 94.4712 55.1854 95.1483C55.4579 95.8254 55.5942 96.6432 55.5942 97.6015C55.5942 98.5655 55.4579 99.389 55.1854 100.072C54.9157 100.752 54.5269 101.271 54.019 101.63C53.514 101.989 52.9072 102.168 52.1985 102.168ZM52.1985 100.821C52.7494 100.821 53.1841 100.55 53.5026 100.007C53.8239 99.4622 53.9846 98.6602 53.9846 97.6015C53.9846 96.9014 53.9114 96.3132 53.7651 95.8369C53.6188 95.3606 53.4122 95.002 53.1453 94.7609C52.8785 94.5171 52.5629 94.3951 52.1985 94.3951C51.6505 94.3951 51.2172 94.6677 50.8987 95.2128C50.5803 95.7551 50.4196 96.5513 50.4167 97.6015C50.4138 98.3044 50.4841 98.8955 50.6276 99.3747C50.7739 99.8538 50.9805 100.215 51.2474 100.459C51.5142 100.7 51.8312 100.821 52.1985 100.821ZM56.8649 100.365V99.0949L60.605 93.1857H61.6637V94.9934H61.0181L58.5004 98.983V99.0519H63.7209V100.365H56.8649ZM61.0698 102V99.9772L61.087 99.4091V93.1857H62.5933V102H61.0698ZM70.3725 96.9516V98.2341H64.3127V96.9516H70.3725ZM71.1558 102V100.847L74.2159 97.8468C74.5085 97.5513 74.7524 97.2887 74.9475 97.0592C75.1426 96.8297 75.2889 96.6073 75.3865 96.3921C75.4841 96.1769 75.5328 95.9474 75.5328 95.7035C75.5328 95.4252 75.4697 95.187 75.3435 94.989C75.2172 94.7882 75.0436 94.6333 74.8227 94.5242C74.6018 94.4152 74.3507 94.3607 74.0695 94.3607C73.7797 94.3607 73.5258 94.4209 73.3077 94.5414C73.0897 94.6591 72.9204 94.8269 72.7999 95.045C72.6823 95.2631 72.6234 95.5227 72.6234 95.824H71.1042C71.1042 95.2645 71.2319 94.7782 71.4872 94.365C71.7426 93.9518 72.0941 93.6319 72.5417 93.4052C72.9921 93.1786 73.5086 93.0652 74.091 93.0652C74.6821 93.0652 75.2014 93.1757 75.649 93.3966C76.0966 93.6176 76.4438 93.9203 76.6906 94.3047C76.9402 94.6892 77.065 95.1282 77.065 95.6217C77.065 95.9517 77.0019 96.2759 76.8756 96.5944C76.7494 96.9129 76.527 97.2658 76.2085 97.6531C75.8929 98.0405 75.4496 98.5096 74.8786 99.0605L73.3594 100.606V100.666H77.1984V102H71.1558ZM81.9412 102.168C81.2325 102.168 80.6243 101.989 80.1164 101.63C79.6114 101.268 79.2227 100.748 78.9501 100.068C78.6804 99.3847 78.5455 98.5627 78.5455 97.6015C78.5484 96.6403 78.6847 95.8226 78.9544 95.1483C79.227 94.4712 79.6157 93.9547 80.1207 93.5989C80.6286 93.2431 81.2354 93.0652 81.9412 93.0652C82.6471 93.0652 83.2539 93.2431 83.7618 93.5989C84.2696 93.9547 84.6584 94.4712 84.9281 95.1483C85.2007 95.8254 85.337 96.6432 85.337 97.6015C85.337 98.5655 85.2007 99.389 84.9281 100.072C84.6584 100.752 84.2696 101.271 83.7618 101.63C83.2568 101.989 82.6499 102.168 81.9412 102.168ZM81.9412 100.821C82.4921 100.821 82.9268 100.55 83.2453 100.007C83.5667 99.4622 83.7273 98.6602 83.7273 97.6015C83.7273 96.9014 83.6542 96.3132 83.5078 95.8369C83.3615 95.3606 83.1549 95.002 82.8881 94.7609C82.6213 94.5171 82.3056 94.3951 81.9412 94.3951C81.3932 94.3951 80.96 94.6677 80.6415 95.2128C80.323 95.7551 80.1623 96.5513 80.1595 97.6015C80.1566 98.3044 80.2269 98.8955 80.3703 99.3747C80.5167 99.8538 80.7233 100.215 80.9901 100.459C81.2569 100.7 81.574 100.821 81.9412 100.821ZM86.6077 100.365V99.0949L90.3477 93.1857H91.4065V94.9934H90.7609L88.2431 98.983V99.0519H93.4637V100.365H86.6077ZM90.8125 102V99.9772L90.8297 99.4091V93.1857H92.3361V102H90.8125ZM105.123 93.1857V102H103.539V94.5113H99.6827V102H98.0989V93.1857H105.123ZM107.924 102.095C107.662 102.095 107.439 102.003 107.252 101.819C107.066 101.636 106.974 101.412 106.977 101.148C106.974 100.89 107.066 100.669 107.252 100.485C107.439 100.301 107.662 100.21 107.924 100.21C108.176 100.21 108.395 100.301 108.582 100.485C108.771 100.669 108.867 100.89 108.87 101.148C108.867 101.323 108.822 101.482 108.733 101.626C108.647 101.769 108.532 101.884 108.388 101.97C108.248 102.053 108.093 102.095 107.924 102.095ZM116.526 97.0377V98.3503H112.786V97.0377H116.526ZM110.333 99.1552H111.938C111.99 99.7003 112.163 100.113 112.459 100.395C112.757 100.676 113.21 100.816 113.819 100.816C114.289 100.816 114.671 100.699 114.964 100.464C115.256 100.225 115.47 99.8954 115.605 99.4736C115.74 99.0519 115.807 98.5612 115.807 98.0017V97.2012C115.807 96.613 115.731 96.1095 115.579 95.6906C115.427 95.2717 115.2 94.9517 114.899 94.7308C114.598 94.507 114.225 94.3951 113.78 94.3951C113.358 94.3951 113.018 94.4625 112.76 94.5974C112.502 94.7323 112.308 94.9274 112.179 95.1827C112.05 95.4352 111.967 95.7379 111.929 96.0908H110.324C110.381 95.517 110.545 95.002 110.815 94.5458C111.084 94.0895 111.464 93.7295 111.955 93.4655C112.446 93.1987 113.054 93.0652 113.78 93.0652C114.517 93.0652 115.156 93.2345 115.695 93.5731C116.237 93.9117 116.656 94.3908 116.952 95.0106C117.25 95.6303 117.399 96.3591 117.399 97.1969V98.0146C117.399 98.8525 117.253 99.5798 116.96 100.197C116.671 100.811 116.259 101.286 115.725 101.621C115.192 101.954 114.556 102.121 113.819 102.121C113.104 102.121 112.496 101.994 111.994 101.742C111.492 101.486 111.102 101.136 110.823 100.692C110.545 100.244 110.381 99.7319 110.333 99.1552Z" fill="white"/>
</svg>
