<svg width="900" height="774" viewBox="0 0 900 774" fill="none" xmlns="http://www.w3.org/2000/svg">
<path d="M525.005 139.5L564.505 12.5" stroke="white"/>
<rect x="562.448" y="1.47875" width="10" height="10" transform="rotate(17.2405 562.448 1.47875)" stroke="white"/>
<path d="M564.453 9.86446L565.909 5.17051L566.974 5.50099L565.518 10.1949L564.453 9.86446ZM563.201 7.48687L563.532 6.42192L568.226 7.87857L567.895 8.94353L563.201 7.48687Z" fill="white"/>
<path d="M544.505 146L583.505 55" stroke="white"/>
<rect x="582.929" y="43.6653" width="10" height="10" transform="rotate(25.2037 582.929 43.6653)" stroke="white"/>
<path d="M583.753 52.2481L585.845 47.8012L586.854 48.2761L584.761 52.7229L583.753 52.2481ZM582.843 49.7201L583.317 48.7112L587.764 50.8041L587.289 51.813L582.843 49.7201Z" fill="white"/>
<path d="M594.005 171.5L645.505 89.5" stroke="white"/>
<rect x="646.052" y="78.69" width="10" height="10" transform="rotate(32.3868 646.052 78.69)" stroke="white"/>
<path d="M645.796 87.309L648.428 83.1587L649.37 83.756L646.737 87.9063L645.796 87.309ZM645.209 84.6871L645.806 83.7455L649.956 86.378L649.359 87.3196L645.209 84.6871Z" fill="white"/>
<path d="M580.005 163L623.505 85" stroke="white"/>
<rect x="624.769" y="73.6847" width="10" height="10" transform="rotate(30.5283 624.769 73.6847)" stroke="white"/>
<path d="M624.793 82.3074L627.29 78.0739L628.25 78.6404L625.754 82.8738L624.793 82.3074ZM624.122 79.7059L624.688 78.7454L628.922 81.2419L628.355 82.2024L624.122 79.7059Z" fill="white"/>
<path d="M269.705 198.224L163.758 88.9651" stroke="white"/>
<rect x="153.207" y="84.7231" width="10" height="10" transform="rotate(-43.0253 153.207 84.7231)" stroke="white"/>
<path d="M161.484 87.1419L158.13 83.5489L158.945 82.7881L162.299 86.381L161.484 87.1419ZM158.798 87.0493L158.038 86.2341L161.63 82.8807L162.391 83.6958L158.798 87.0493Z" fill="white"/>
<path d="M690.005 281L815.005 219" stroke="white"/>
<rect x="820.83" y="209.857" width="10" height="10" transform="rotate(63.7351 820.83 209.857)" stroke="white"/>
<path d="M816.128 217.085L820.535 214.91L821.029 215.91L816.621 218.085L816.128 217.085ZM816.991 214.541L817.991 214.047L820.166 218.455L819.166 218.948L816.991 214.541Z" fill="white"/>
<path d="M715.005 376.5L888.505 367.5" stroke="white"/>
<rect x="898.517" y="361.528" width="10" height="10" transform="rotate(86.6839 898.517 361.528)" stroke="white"/>
<path d="M891.368 366.35L896.274 366.066L896.339 367.179L891.432 367.463L891.368 366.35ZM893.155 364.343L894.268 364.279L894.552 369.185L893.439 369.25L893.155 364.343Z" fill="white"/>
<path d="M713.505 429L807.505 443" stroke="white"/>
<rect x="817.947" y="440.053" width="10" height="10" transform="rotate(98.5346 817.947 440.053)" stroke="white"/>
<path d="M809.96 443.304L814.82 444.034L814.655 445.136L809.794 444.407L809.96 443.304ZM812.121 441.707L813.223 441.873L812.494 446.733L811.391 446.568L812.121 441.707Z" fill="white"/>
<path d="M687.718 511.245L748.758 543.622" stroke="white"/>
<rect x="760.234" y="544.429" width="10" height="10" transform="rotate(118.37 760.234 544.429)" stroke="white"/>
<path d="M751.617 544.778L755.942 547.113L755.412 548.094L751.087 545.759L751.617 544.778ZM754.191 544.009L755.173 544.539L752.837 548.863L751.856 548.333L754.191 544.009Z" fill="white"/>
<path d="M338.607 637.231L316.247 675.277" stroke="white"/>
<rect x="315.247" y="686.438" width="10" height="10" transform="rotate(-148.681 315.247 686.438)" stroke="white"/>
<path d="M315.342 677.816L312.788 682.014L311.835 681.435L314.39 677.236L315.342 677.816ZM315.978 680.426L315.398 681.379L311.2 678.824L311.779 677.872L315.978 680.426Z" fill="white"/>
<path d="M650.505 221L750.505 131.5" stroke="white"/>
<rect x="754.347" y="121.727" width="10" height="10" transform="rotate(49.5926 754.347 121.727)" stroke="white"/>
<path d="M751.553 129.884L755.295 126.699L756.018 127.548L752.275 130.734L751.553 129.884ZM751.768 127.206L752.617 126.483L755.803 130.226L754.954 130.949L751.768 127.206Z" fill="white"/>
<path d="M659.005 230.5L732.005 169" stroke="white"/>
<rect x="736.325" y="158.705" width="10" height="10" transform="rotate(49.5926 736.325 158.705)" stroke="white"/>
<path d="M733.53 166.862L737.273 163.677L737.995 164.526L734.253 167.712L733.53 166.862ZM733.745 164.184L734.594 163.462L737.78 167.204L736.931 167.927L733.745 164.184Z" fill="white"/>
<path d="M456.007 128.5L460.007 15.5" stroke="white"/>
<rect x="454.857" y="5.7403" width="10" height="10" transform="rotate(0.626912 454.857 5.7403)" stroke="white"/>
<path d="M459.176 13.2038L459.229 8.28934L460.344 8.30154L460.291 13.216L459.176 13.2038ZM457.297 11.2833L457.309 10.1683L462.223 10.2221L462.211 11.3371L457.297 11.2833Z" fill="white"/>
<path d="M488.508 131.5L500.508 68.5" stroke="white"/>
<rect x="497.375" y="58.4442" width="10" height="10" transform="rotate(11.0842 497.375 58.4442)" stroke="white"/>
<path d="M500.267 66.5677L501.212 61.7446L502.306 61.959L501.361 66.7821L500.267 66.5677ZM498.768 64.3381L498.982 63.2438L503.805 64.1887L503.591 65.2829L498.768 64.3381Z" fill="white"/>
<path d="M422.468 662.109L418.868 758.874" stroke="white"/>
<rect x="423.8" y="768.508" width="10" height="10" transform="rotate(-177.613 423.8 768.508)" stroke="white"/>
<path d="M419.712 760.916L419.508 765.827L418.393 765.78L418.598 760.87L419.712 760.916ZM421.531 762.893L421.485 764.008L416.574 763.803L416.621 762.689L421.531 762.893Z" fill="white"/>
<path d="M193.616 319.703L16.5065 283.5" stroke="white"/>
<rect x="5.59242" y="286.404" width="10" height="10" transform="rotate(-79.0558 5.59242 286.404)" stroke="white"/>
<path d="M13.7095 283.492L8.88413 282.559L9.09583 281.464L13.9212 282.397L13.7095 283.492ZM11.4835 284.996L10.3887 284.785L11.3218 279.959L12.4166 280.171L11.4835 284.996Z" fill="white"/>
<path d="M418.437 662.127L415.805 711.567" stroke="white"/>
<rect x="420.386" y="720.825" width="10" height="10" transform="rotate(-176.839 420.386 720.825)" stroke="white"/>
<path d="M416.401 713.178L416.13 718.086L415.017 718.024L415.288 713.117L416.401 713.178ZM418.193 715.18L418.132 716.293L413.224 716.022L413.286 714.909L418.193 715.18Z" fill="white"/>
<path d="M533.831 644L554.939 704.56" stroke="white"/>
<rect x="562.68" y="711.701" width="10" height="10" transform="rotate(161.084 562.68 711.701)" stroke="white"/>
<path d="M556.113 706.113L557.707 710.762L556.652 711.123L555.059 706.474L556.113 706.113ZM558.527 707.294L558.888 708.349L554.239 709.942L553.877 708.887L558.527 707.294Z" fill="white"/>
<path d="M477.008 130L483.008 80" stroke="white"/>
<rect x="478.971" y="69.9934" width="10" height="10" transform="rotate(5.56689 478.971 69.9934)" stroke="white"/>
<path d="M482.631 77.801L483.108 72.9094L484.218 73.0176L483.741 77.9092L482.631 77.801ZM480.925 75.7258L481.033 74.616L485.925 75.0928L485.816 76.2026L480.925 75.7258Z" fill="white"/>
<path d="M353.508 644L314.478 750.466" stroke="white"/>
<rect x="316.081" y="761.384" width="10" height="10" transform="rotate(-159.902 316.081 761.384)" stroke="white"/>
<path d="M314.497 752.907L312.808 757.523L311.76 757.14L313.449 752.524L314.497 752.907ZM315.628 755.344L315.245 756.392L310.629 754.703L311.012 753.656L315.628 755.344Z" fill="white"/>
<path d="M362.008 647L328.435 739.491" stroke="white"/>
<rect x="329.709" y="750.542" width="10" height="10" transform="rotate(-159.902 329.709 750.542)" stroke="white"/>
<path d="M328.125 742.066L326.436 746.681L325.389 746.298L327.078 741.682L328.125 742.066ZM329.256 744.503L328.873 745.55L324.258 743.861L324.641 742.814L329.256 744.503Z" fill="white"/>
</svg>
