<svg width="804" height="769" viewBox="0 0 804 769" fill="none" xmlns="http://www.w3.org/2000/svg">
<path d="M522.418 141L561.418 50" stroke="white"/>
<rect x="560.842" y="38.6653" width="10" height="10" transform="rotate(25.2037 560.842 38.6653)" stroke="white"/>
<path d="M561.665 47.2481L563.758 42.8012L564.767 43.2761L562.674 47.7229L561.665 47.2481ZM560.755 44.7201L561.23 43.7112L565.677 45.8041L565.202 46.813L560.755 44.7201Z" fill="white"/>
<path d="M511.918 137L542.418 48.5" stroke="white"/>
<rect x="541.228" y="37.9192" width="10" height="10" transform="rotate(19.8214 541.228 37.9192)" stroke="white"/>
<path d="M542.853 46.387L544.52 41.7634L545.569 42.1415L543.902 46.7651L542.853 46.387ZM541.71 43.9554L542.088 42.9064L546.712 44.573L546.334 45.622L541.71 43.9554Z" fill="white"/>
<path d="M571.918 166.5L623.418 84.5" stroke="white"/>
<rect x="623.964" y="73.69" width="10" height="10" transform="rotate(32.3868 623.964 73.69)" stroke="white"/>
<path d="M623.708 82.309L626.341 78.1587L627.282 78.756L624.65 82.9063L623.708 82.309ZM623.121 79.6871L623.719 78.7455L627.869 81.378L627.272 82.3196L623.121 79.6871Z" fill="white"/>
<path d="M557.918 158L601.418 80" stroke="white"/>
<rect x="602.683" y="68.6847" width="10" height="10" transform="rotate(30.5283 602.683 68.6847)" stroke="white"/>
<path d="M602.706 77.3074L605.202 73.0739L606.163 73.6404L603.666 77.8738L602.706 77.3074ZM602.034 74.7059L602.601 73.7454L606.834 76.2419L606.268 77.2024L602.034 74.7059Z" fill="white"/>
<path d="M197.281 253.728L54.0467 172.216" stroke="white"/>
<rect x="43.1969" y="172.122" width="10" height="10" transform="rotate(-61.2518 43.1969 172.122)" stroke="white"/>
<path d="M51.8145 171.83L47.5056 169.467L48.0419 168.489L52.3508 170.853L51.8145 171.83ZM49.2351 172.582L48.2575 172.046L50.6213 167.737L51.5989 168.273L49.2351 172.582Z" fill="white"/>
<path d="M183.105 280.402L16.9192 190.5" stroke="white"/>
<rect x="5.59829" y="189.447" width="10" height="10" transform="rotate(-61.2518 5.59829 189.447)" stroke="white"/>
<path d="M14.2154 189.156L9.90643 186.792L10.4427 185.814L14.7517 188.178L14.2154 189.156ZM11.636 189.908L10.6584 189.371L13.0222 185.062L13.9998 185.599L11.636 189.908Z" fill="white"/>
<path d="M211.616 232.574L176.419 205.5" stroke="white"/>
<rect x="165.618" y="202.795" width="10" height="10" transform="rotate(-54.0687 165.618 202.795)" stroke="white"/>
<path d="M174.204 203.583L170.225 200.699L170.879 199.797L174.859 202.681L174.204 203.583ZM171.551 204.007L170.648 203.353L173.532 199.373L174.435 200.027L171.551 204.007Z" fill="white"/>
<path d="M667.918 276L792.918 214" stroke="white"/>
<rect x="798.743" y="204.857" width="10" height="10" transform="rotate(63.7351 798.743 204.857)" stroke="white"/>
<path d="M794.04 212.085L798.448 209.91L798.941 210.91L794.534 213.085L794.04 212.085ZM794.903 209.541L795.903 209.047L798.078 213.455L797.078 213.948L794.903 209.541Z" fill="white"/>
<path d="M691.418 424L785.418 438" stroke="white"/>
<rect x="795.86" y="435.053" width="10" height="10" transform="rotate(98.5346 795.86 435.053)" stroke="white"/>
<path d="M787.873 438.304L792.733 439.034L792.568 440.136L787.707 439.407L787.873 438.304ZM790.034 436.707L791.136 436.873L790.407 441.733L789.304 441.568L790.034 436.707Z" fill="white"/>
<path d="M672.764 492.126L714.386 509.41" stroke="white"/>
<rect x="725.752" y="508.676" width="10" height="10" transform="rotate(113.692 725.752 508.676)" stroke="white"/>
<path d="M717.193 509.726L721.694 511.701L721.246 512.722L716.745 510.747L717.193 509.726ZM719.696 508.749L720.717 509.198L718.742 513.698L717.721 513.25L719.696 508.749Z" fill="white"/>
<path d="M665.63 506.245L726.671 538.622" stroke="white"/>
<rect x="738.146" y="539.429" width="10" height="10" transform="rotate(118.37 738.146 539.429)" stroke="white"/>
<path d="M729.53 539.778L733.854 542.113L733.324 543.094L729 540.759L729.53 539.778ZM732.104 539.009L733.085 539.539L730.75 543.863L729.769 543.333L732.104 539.009Z" fill="white"/>
<path d="M628.418 216L728.418 126.5" stroke="white"/>
<rect x="732.259" y="116.727" width="10" height="10" transform="rotate(49.5926 732.259 116.727)" stroke="white"/>
<path d="M729.465 124.884L733.208 121.699L733.93 122.548L730.188 125.734L729.465 124.884ZM729.68 122.206L730.529 121.483L733.715 125.226L732.866 125.949L729.68 122.206Z" fill="white"/>
<path d="M636.918 225.5L709.918 164" stroke="white"/>
<rect x="714.237" y="153.705" width="10" height="10" transform="rotate(49.5926 714.237 153.705)" stroke="white"/>
<path d="M711.443 161.862L715.186 158.677L715.908 159.526L712.166 162.712L711.443 161.862ZM711.658 159.184L712.507 158.462L715.693 162.204L714.844 162.927L711.658 159.184Z" fill="white"/>
<path d="M575.418 168.5L602.418 127" stroke="white"/>
<rect x="603.08" y="116.692" width="10" height="10" transform="rotate(33.161 603.08 116.692)" stroke="white"/>
<path d="M602.707 125.307L605.396 121.193L606.329 121.802L603.641 125.917L602.707 125.307ZM602.156 122.677L602.766 121.744L606.88 124.432L606.27 125.366L602.156 122.677Z" fill="white"/>
<path d="M433.919 123.5L437.919 10.5" stroke="white"/>
<rect x="432.769" y="0.740304" width="10" height="10" transform="rotate(0.626912 432.769 0.740304)" stroke="white"/>
<path d="M437.088 8.20382L437.142 3.28934L438.257 3.30154L438.203 8.21602L437.088 8.20382ZM435.209 6.28329L435.221 5.1683L440.136 5.22207L440.124 6.33706L435.209 6.28329Z" fill="white"/>
<path d="M428.419 124V25.5" stroke="white"/>
<rect x="423.534" y="15.5054" width="10" height="10" transform="rotate(0.626912 423.534 15.5054)" stroke="white"/>
<path d="M427.853 22.969L427.907 18.0545L429.022 18.0667L428.968 22.9812L427.853 22.969ZM425.974 21.0484L425.986 19.9334L430.901 19.9872L430.888 21.1022L425.974 21.0484Z" fill="white"/>
<path d="M466.42 126.5L478.42 63.5" stroke="white"/>
<rect x="475.287" y="53.4442" width="10" height="10" transform="rotate(11.0842 475.287 53.4442)" stroke="white"/>
<path d="M478.179 61.5677L479.124 56.7446L480.218 56.959L479.274 61.7821L478.179 61.5677ZM476.68 59.3381L476.895 58.2438L481.718 59.1887L481.503 60.2829L476.68 59.3381Z" fill="white"/>
<path d="M400.381 657.11L396.781 753.874" stroke="white"/>
<rect x="401.713" y="763.509" width="10" height="10" transform="rotate(-177.613 401.713 763.509)" stroke="white"/>
<path d="M397.625 755.917L397.421 760.827L396.307 760.781L396.511 755.87L397.625 755.917ZM399.444 757.894L399.398 759.008L394.487 758.803L394.534 757.689L399.444 757.894Z" fill="white"/>
<path d="M348.921 645.501L319.921 740.501" stroke="white"/>
<rect x="322.367" y="751.155" width="10" height="10" transform="rotate(-164.282 322.367 751.155)" stroke="white"/>
<path d="M320.139 742.824L318.808 747.555L317.735 747.253L319.066 742.522L320.139 742.824ZM321.453 745.167L321.151 746.241L316.42 744.909L316.722 743.836L321.453 745.167Z" fill="white"/>
<path d="M396.35 657.127L393.717 706.567" stroke="white"/>
<rect x="398.298" y="715.825" width="10" height="10" transform="rotate(-176.839 398.298 715.825)" stroke="white"/>
<path d="M394.313 708.178L394.042 713.086L392.929 713.024L393.2 708.117L394.313 708.178ZM396.106 710.18L396.044 711.293L391.137 711.022L391.198 709.909L396.106 710.18Z" fill="white"/>
<path d="M511.744 639L532.852 699.56" stroke="white"/>
<rect x="540.593" y="706.701" width="10" height="10" transform="rotate(161.084 540.593 706.701)" stroke="white"/>
<path d="M534.026 701.113L535.62 705.762L534.565 706.123L532.972 701.474L534.026 701.113ZM536.44 702.294L536.801 703.349L532.152 704.942L531.79 703.887L536.44 702.294Z" fill="white"/>
<path d="M442.42 124L445.42 83.5" stroke="white"/>
<rect x="440.78" y="73.5169" width="10" height="10" transform="rotate(1.96726 440.78 73.5169)" stroke="white"/>
<path d="M444.923 81.0791L445.092 76.1673L446.206 76.2055L446.038 81.1174L444.923 81.0791ZM443.09 79.1152L443.128 78.0008L448.04 78.1695L448.002 79.2839L443.09 79.1152Z" fill="white"/>
<path d="M331.421 639L292.391 745.466" stroke="white"/>
<rect x="293.993" y="756.384" width="10" height="10" transform="rotate(-159.902 293.993 756.384)" stroke="white"/>
<path d="M292.409 747.907L290.72 752.523L289.673 752.14L291.362 747.524L292.409 747.907ZM293.54 750.344L293.157 751.392L288.542 749.703L288.925 748.656L293.54 750.344Z" fill="white"/>
<path d="M327.284 637.957L310.956 675.141" stroke="white"/>
<rect x="312.003" y="686.1" width="10" height="10" transform="rotate(-158.561 312.003 686.1)" stroke="white"/>
<path d="M310.617 677.589L308.821 682.164L307.783 681.756L309.579 677.182L310.617 677.589ZM311.691 680.052L311.284 681.09L306.709 679.294L307.117 678.256L311.691 680.052Z" fill="white"/>
</svg>
