<svg width="899" height="775" viewBox="0 0 899 775" fill="none" xmlns="http://www.w3.org/2000/svg">
<path d="M524.379 140.5L563.879 13.5" stroke="white"/>
<rect x="561.822" y="2.47875" width="10" height="10" transform="rotate(17.2405 561.822 2.47875)" stroke="white"/>
<path d="M563.826 10.8645L565.283 6.17051L566.348 6.50099L564.891 11.1949L563.826 10.8645ZM562.575 8.48687L562.905 7.42192L567.599 8.87857L567.269 9.94353L562.575 8.48687Z" fill="white"/>
<path d="M571.379 159.5L643.879 11.5" stroke="white"/>
<rect x="643.302" y="0.665319" width="10" height="10" transform="rotate(25.2037 643.302 0.665319)" stroke="white"/>
<path d="M644.126 9.2481L646.219 4.80122L647.228 5.27605L645.135 9.72294L644.126 9.2481ZM643.216 6.72008L643.691 5.71118L648.138 7.80407L647.663 8.81298L643.216 6.72008Z" fill="white"/>
<path d="M543.879 147L582.879 56" stroke="white"/>
<rect x="582.302" y="44.6653" width="10" height="10" transform="rotate(25.2037 582.302 44.6653)" stroke="white"/>
<path d="M583.126 53.2481L585.219 48.8012L586.228 49.2761L584.135 53.7229L583.126 53.2481ZM582.216 50.7201L582.691 49.7112L587.138 51.8041L586.663 52.813L582.216 50.7201Z" fill="white"/>
<path d="M533.379 143L563.879 54.5" stroke="white"/>
<rect x="562.689" y="43.9192" width="10" height="10" transform="rotate(19.8214 562.689 43.9192)" stroke="white"/>
<path d="M564.314 52.387L565.981 47.7634L567.03 48.1415L565.363 52.7651L564.314 52.387ZM563.171 49.9554L563.549 48.9064L568.173 50.573L567.795 51.622L563.171 49.9554Z" fill="white"/>
<path d="M585.879 167.5L640.379 75" stroke="white"/>
<rect x="640.724" y="64.1738" width="10" height="10" transform="rotate(31.1383 640.724 64.1738)" stroke="white"/>
<path d="M640.655 72.796L643.197 68.5894L644.151 69.166L641.61 73.3726L640.655 72.796ZM640.012 70.1875L640.588 69.2331L644.795 71.7745L644.218 72.7289L640.012 70.1875Z" fill="white"/>
<path d="M593.379 172.5L644.879 90.5" stroke="white"/>
<rect x="645.425" y="79.69" width="10" height="10" transform="rotate(32.3868 645.425 79.69)" stroke="white"/>
<path d="M645.169 88.309L647.802 84.1587L648.743 84.756L646.111 88.9063L645.169 88.309ZM644.582 85.6871L645.18 84.7455L649.33 87.378L648.733 88.3196L644.582 85.6871Z" fill="white"/>
<path d="M579.379 164L622.879 86" stroke="white"/>
<rect x="624.144" y="74.6847" width="10" height="10" transform="rotate(30.5283 624.144 74.6847)" stroke="white"/>
<path d="M624.167 83.3074L626.663 79.0739L627.624 79.6404L625.127 83.8738L624.167 83.3074ZM623.495 80.7059L624.062 79.7454L628.295 82.2419L627.729 83.2024L623.495 80.7059Z" fill="white"/>
<path d="M634.879 206L737.379 93.5" stroke="white"/>
<rect x="740.961" y="82.7068" width="10" height="10" transform="rotate(43.4301 740.961 82.7068)" stroke="white"/>
<path d="M739.058 91.1175L742.437 87.5483L743.247 88.3148L739.868 91.884L739.058 91.1175ZM738.984 88.4317L739.751 87.6219L743.32 91.0006L742.554 91.8104L738.984 88.4317Z" fill="white"/>
<path d="M218.742 259.728L75.5076 178.216" stroke="white"/>
<rect x="64.6579" y="178.122" width="10" height="10" transform="rotate(-61.2518 64.6579 178.122)" stroke="white"/>
<path d="M73.2755 177.83L68.9665 175.467L69.5028 174.489L73.8118 176.853L73.2755 177.83ZM70.696 178.582L69.7184 178.046L72.0822 173.737L73.0599 174.273L70.696 178.582Z" fill="white"/>
<path d="M204.566 286.402L38.3801 196.5" stroke="white"/>
<rect x="27.0592" y="195.447" width="10" height="10" transform="rotate(-61.2518 27.0592 195.447)" stroke="white"/>
<path d="M35.6764 195.156L31.3674 192.792L31.9037 191.814L36.2127 194.178L35.6764 195.156ZM33.0969 195.908L32.1193 195.371L34.4831 191.062L35.4607 191.599L33.0969 195.908Z" fill="white"/>
<path d="M233.077 238.574L197.88 211.5" stroke="white"/>
<rect x="187.079" y="208.795" width="10" height="10" transform="rotate(-54.0687 187.079 208.795)" stroke="white"/>
<path d="M195.665 209.583L191.686 206.699L192.34 205.797L196.32 208.681L195.665 209.583ZM193.012 210.007L192.109 209.353L194.993 205.373L195.896 206.027L193.012 210.007Z" fill="white"/>
<path d="M269.079 199.224L163.131 89.9651" stroke="white"/>
<rect x="152.58" y="85.7231" width="10" height="10" transform="rotate(-43.0253 152.58 85.7231)" stroke="white"/>
<path d="M160.857 88.1419L157.504 84.5489L158.319 83.7881L161.672 87.381L160.857 88.1419ZM158.172 88.0493L157.411 87.2341L161.004 83.8807L161.765 84.6958L158.172 88.0493Z" fill="white"/>
<path d="M689.379 282L814.379 220" stroke="white"/>
<rect x="820.204" y="210.857" width="10" height="10" transform="rotate(63.7351 820.204 210.857)" stroke="white"/>
<path d="M815.501 218.085L819.909 215.91L820.402 216.91L815.995 219.085L815.501 218.085ZM816.364 215.541L817.364 215.047L819.539 219.455L818.539 219.948L816.364 215.541Z" fill="white"/>
<path d="M714.379 377.5L887.879 368.5" stroke="white"/>
<rect x="897.89" y="362.528" width="10" height="10" transform="rotate(86.6839 897.89 362.528)" stroke="white"/>
<path d="M890.741 367.35L895.648 367.066L895.712 368.179L890.806 368.463L890.741 367.35ZM892.528 365.343L893.641 365.279L893.926 370.185L892.813 370.25L892.528 365.343Z" fill="white"/>
<path d="M712.879 430L806.879 444" stroke="white"/>
<rect x="817.321" y="441.053" width="10" height="10" transform="rotate(98.5346 817.321 441.053)" stroke="white"/>
<path d="M809.334 444.304L814.194 445.034L814.029 446.136L809.168 445.407L809.334 444.304ZM811.495 442.707L812.597 442.873L811.868 447.733L810.765 447.568L811.495 442.707Z" fill="white"/>
<path d="M694.224 498.126L735.846 515.41" stroke="white"/>
<rect x="747.213" y="514.676" width="10" height="10" transform="rotate(113.692 747.213 514.676)" stroke="white"/>
<path d="M738.654 515.726L743.154 517.701L742.706 518.722L738.205 516.747L738.654 515.726ZM741.157 514.749L742.178 515.198L740.203 519.698L739.182 519.25L741.157 514.749Z" fill="white"/>
<path d="M687.091 512.245L748.132 544.622" stroke="white"/>
<rect x="759.607" y="545.429" width="10" height="10" transform="rotate(118.37 759.607 545.429)" stroke="white"/>
<path d="M750.991 545.778L755.315 548.113L754.785 549.094L750.461 546.759L750.991 545.778ZM753.565 545.009L754.546 545.539L752.211 549.863L751.23 549.333L753.565 545.009Z" fill="white"/>
<path d="M337.98 638.231L315.621 676.277" stroke="white"/>
<rect x="314.621" y="687.438" width="10" height="10" transform="rotate(-148.681 314.621 687.438)" stroke="white"/>
<path d="M314.716 678.816L312.161 683.014L311.209 682.435L313.763 678.236L314.716 678.816ZM315.351 681.426L314.772 682.379L310.573 679.824L311.153 678.872L315.351 681.426Z" fill="white"/>
<path d="M686.248 277.146L776.879 225.499" stroke="white"/>
<rect x="782.796" y="216.68" width="10" height="10" transform="rotate(60.8858 782.796 216.68)" stroke="white"/>
<path d="M778.458 224.133L782.752 221.741L783.294 222.716L779 225.107L778.458 224.133ZM779.193 221.548L780.167 221.006L782.559 225.3L781.584 225.842L779.193 221.548Z" fill="white"/>
<path d="M649.879 222L749.879 132.5" stroke="white"/>
<rect x="753.72" y="122.727" width="10" height="10" transform="rotate(49.5926 753.72 122.727)" stroke="white"/>
<path d="M750.926 130.884L754.669 127.699L755.391 128.548L751.649 131.734L750.926 130.884ZM751.141 128.206L751.99 127.483L755.176 131.226L754.327 131.949L751.141 128.206Z" fill="white"/>
<path d="M658.379 231.5L731.379 170" stroke="white"/>
<rect x="735.698" y="159.705" width="10" height="10" transform="rotate(49.5926 735.698 159.705)" stroke="white"/>
<path d="M732.904 167.862L736.647 164.677L737.369 165.526L733.627 168.712L732.904 167.862ZM733.119 165.184L733.968 164.462L737.154 168.204L736.305 168.927L733.119 165.184Z" fill="white"/>
<path d="M596.879 174.5L623.879 133" stroke="white"/>
<rect x="624.541" y="122.692" width="10" height="10" transform="rotate(33.161 624.541 122.692)" stroke="white"/>
<path d="M624.168 131.307L626.857 127.193L627.79 127.802L625.102 131.917L624.168 131.307ZM623.617 128.677L624.227 127.744L628.341 130.432L627.731 131.366L623.617 128.677Z" fill="white"/>
<path d="M455.38 129.5L459.38 16.5" stroke="white"/>
<rect x="454.23" y="6.7403" width="10" height="10" transform="rotate(0.626912 454.23 6.7403)" stroke="white"/>
<path d="M458.549 14.2038L458.602 9.28934L459.717 9.30154L459.664 14.216L458.549 14.2038ZM456.67 12.2833L456.682 11.1683L461.596 11.2221L461.584 12.3371L456.67 12.2833Z" fill="white"/>
<path d="M449.88 130V31.5" stroke="white"/>
<rect x="444.994" y="21.5054" width="10" height="10" transform="rotate(0.626912 444.994 21.5054)" stroke="white"/>
<path d="M449.313 28.969L449.367 24.0545L450.482 24.0667L450.428 28.9812L449.313 28.969ZM447.434 27.0484L447.446 25.9334L452.361 25.9872L452.349 27.1022L447.434 27.0484Z" fill="white"/>
<path d="M487.881 132.5L499.881 69.5" stroke="white"/>
<rect x="496.748" y="59.4442" width="10" height="10" transform="rotate(11.0842 496.748 59.4442)" stroke="white"/>
<path d="M499.64 67.5677L500.585 62.7446L501.679 62.959L500.735 67.7821L499.64 67.5677ZM498.141 65.3381L498.355 64.2438L503.179 65.1887L502.964 66.2829L498.141 65.3381Z" fill="white"/>
<path d="M477.458 660.443L489.183 758.751" stroke="white"/>
<rect x="495.35" y="768.279" width="10" height="10" transform="rotate(175.204 495.35 768.279)" stroke="white"/>
<path d="M490.345 761.257L490.756 766.155L489.645 766.248L489.234 761.351L490.345 761.257ZM492.397 762.992L492.49 764.103L487.593 764.514L487.499 763.403L492.397 762.992Z" fill="white"/>
<path d="M421.842 663.11L418.241 759.874" stroke="white"/>
<rect x="423.173" y="769.509" width="10" height="10" transform="rotate(-177.613 423.173 769.509)" stroke="white"/>
<path d="M419.086 761.917L418.881 766.827L417.767 766.781L417.972 761.87L419.086 761.917ZM420.905 763.894L420.858 765.008L415.948 764.803L415.994 763.689L420.905 763.894Z" fill="white"/>
<path d="M370.382 651.501L341.382 746.501" stroke="white"/>
<rect x="343.827" y="757.155" width="10" height="10" transform="rotate(-164.282 343.827 757.155)" stroke="white"/>
<path d="M341.6 748.824L340.269 753.555L339.195 753.253L340.527 748.522L341.6 748.824ZM342.914 751.167L342.612 752.241L337.881 750.909L338.183 749.836L342.914 751.167Z" fill="white"/>
<path d="M192.989 320.703L15.8803 284.5" stroke="white"/>
<rect x="4.9662" y="287.404" width="10" height="10" transform="rotate(-79.0558 4.9662 287.404)" stroke="white"/>
<path d="M13.0831 284.492L8.25767 283.559L8.46936 282.464L13.2947 283.397L13.0831 284.492ZM10.8571 285.996L9.76228 285.785L10.6954 280.959L11.7901 281.171L10.8571 285.996Z" fill="white"/>
<path d="M417.811 663.127L415.178 712.567" stroke="white"/>
<rect x="419.759" y="721.825" width="10" height="10" transform="rotate(-176.839 419.759 721.825)" stroke="white"/>
<path d="M415.774 714.178L415.503 719.086L414.39 719.024L414.661 714.117L415.774 714.178ZM417.567 716.18L417.505 717.293L412.598 717.022L412.659 715.909L417.567 716.18Z" fill="white"/>
<path d="M533.205 645L554.313 705.56" stroke="white"/>
<rect x="562.054" y="712.701" width="10" height="10" transform="rotate(161.084 562.054 712.701)" stroke="white"/>
<path d="M555.487 707.113L557.081 711.762L556.026 712.123L554.433 707.474L555.487 707.113ZM557.901 708.294L558.262 709.349L553.613 710.942L553.251 709.887L557.901 708.294Z" fill="white"/>
<path d="M476.381 131L482.381 81" stroke="white"/>
<rect x="478.345" y="70.9934" width="10" height="10" transform="rotate(5.56689 478.345 70.9934)" stroke="white"/>
<path d="M482.005 78.801L482.482 73.9094L483.592 74.0176L483.115 78.9092L482.005 78.801ZM480.298 76.7258L480.407 75.616L485.298 76.0928L485.19 77.2026L480.298 76.7258Z" fill="white"/>
<path d="M463.881 130L466.881 89.5" stroke="white"/>
<rect x="462.241" y="79.5169" width="10" height="10" transform="rotate(1.96726 462.241 79.5169)" stroke="white"/>
<path d="M466.384 87.0791L466.553 82.1673L467.667 82.2055L467.499 87.1174L466.384 87.0791ZM464.551 85.1152L464.589 84.0008L469.501 84.1695L469.463 85.2839L464.551 85.1152Z" fill="white"/>
<path d="M352.882 645L313.852 751.466" stroke="white"/>
<rect x="315.454" y="762.384" width="10" height="10" transform="rotate(-159.902 315.454 762.384)" stroke="white"/>
<path d="M313.87 753.907L312.181 758.523L311.134 758.14L312.823 753.524L313.87 753.907ZM315.001 756.344L314.618 757.392L310.003 755.703L310.386 754.656L315.001 756.344Z" fill="white"/>
<path d="M361.381 648L327.808 740.491" stroke="white"/>
<rect x="329.083" y="751.542" width="10" height="10" transform="rotate(-159.902 329.083 751.542)" stroke="white"/>
<path d="M327.498 743.066L325.81 747.681L324.762 747.298L326.451 742.682L327.498 743.066ZM328.63 745.503L328.247 746.55L323.631 744.861L324.014 743.814L328.63 745.503Z" fill="white"/>
<path d="M348.745 643.957L332.417 681.141" stroke="white"/>
<rect x="333.463" y="692.1" width="10" height="10" transform="rotate(-158.561 333.463 692.1)" stroke="white"/>
<path d="M332.078 683.589L330.282 688.164L329.244 687.756L331.04 683.182L332.078 683.589ZM333.152 686.052L332.745 687.09L328.17 685.294L328.578 684.256L333.152 686.052Z" fill="white"/>
<path d="M471.881 130.5L474.381 105.5" stroke="white"/>
<rect x="470.028" y="95.5518" width="10" height="10" transform="rotate(6.28794 470.028 95.5518)" stroke="white"/>
<path d="M473.59 103.405L474.128 98.5196L475.237 98.6417L474.698 103.527L473.59 103.405ZM471.91 101.308L472.032 100.2L476.917 100.738L476.795 101.847L471.91 101.308Z" fill="white"/>
</svg>
